%TF.GenerationSoftware,KiCad,Pcbnew,7.0.7*%
%TF.CreationDate,2023-09-22T00:24:37-06:00*%
%TF.ProjectId,Basic_Diff_Probe,42617369-635f-4446-9966-665f50726f62,1*%
%TF.SameCoordinates,Original*%
%TF.FileFunction,Copper,L1,Top*%
%TF.FilePolarity,Positive*%
%FSLAX46Y46*%
G04 Gerber Fmt 4.6, Leading zero omitted, Abs format (unit mm)*
G04 Created by KiCad (PCBNEW 7.0.7) date 2023-09-22 00:24:37*
%MOMM*%
%LPD*%
G01*
G04 APERTURE LIST*
G04 Aperture macros list*
%AMRoundRect*
0 Rectangle with rounded corners*
0 $1 Rounding radius*
0 $2 $3 $4 $5 $6 $7 $8 $9 X,Y pos of 4 corners*
0 Add a 4 corners polygon primitive as box body*
4,1,4,$2,$3,$4,$5,$6,$7,$8,$9,$2,$3,0*
0 Add four circle primitives for the rounded corners*
1,1,$1+$1,$2,$3*
1,1,$1+$1,$4,$5*
1,1,$1+$1,$6,$7*
1,1,$1+$1,$8,$9*
0 Add four rect primitives between the rounded corners*
20,1,$1+$1,$2,$3,$4,$5,0*
20,1,$1+$1,$4,$5,$6,$7,0*
20,1,$1+$1,$6,$7,$8,$9,0*
20,1,$1+$1,$8,$9,$2,$3,0*%
G04 Aperture macros list end*
%TA.AperFunction,ComponentPad*%
%ADD10R,2.500000X2.500000*%
%TD*%
%TA.AperFunction,ComponentPad*%
%ADD11C,1.600000*%
%TD*%
%TA.AperFunction,ComponentPad*%
%ADD12O,1.600000X1.600000*%
%TD*%
%TA.AperFunction,ComponentPad*%
%ADD13R,2.200000X2.200000*%
%TD*%
%TA.AperFunction,ComponentPad*%
%ADD14O,2.200000X2.200000*%
%TD*%
%TA.AperFunction,ComponentPad*%
%ADD15R,1.800000X1.800000*%
%TD*%
%TA.AperFunction,ComponentPad*%
%ADD16C,1.800000*%
%TD*%
%TA.AperFunction,ComponentPad*%
%ADD17C,0.800000*%
%TD*%
%TA.AperFunction,ComponentPad*%
%ADD18C,6.400000*%
%TD*%
%TA.AperFunction,ComponentPad*%
%ADD19R,2.400000X2.400000*%
%TD*%
%TA.AperFunction,ComponentPad*%
%ADD20O,2.400000X2.400000*%
%TD*%
%TA.AperFunction,ComponentPad*%
%ADD21R,1.600000X1.600000*%
%TD*%
%TA.AperFunction,SMDPad,CuDef*%
%ADD22RoundRect,0.250001X0.624999X-0.462499X0.624999X0.462499X-0.624999X0.462499X-0.624999X-0.462499X0*%
%TD*%
%TA.AperFunction,ComponentPad*%
%ADD23R,2.600000X2.600000*%
%TD*%
%TA.AperFunction,ComponentPad*%
%ADD24C,2.600000*%
%TD*%
%TA.AperFunction,ComponentPad*%
%ADD25C,4.000000*%
%TD*%
%TA.AperFunction,ComponentPad*%
%ADD26RoundRect,0.400000X0.400000X0.400000X-0.400000X0.400000X-0.400000X-0.400000X0.400000X-0.400000X0*%
%TD*%
%TA.AperFunction,ComponentPad*%
%ADD27R,1.208000X1.208000*%
%TD*%
%TA.AperFunction,ComponentPad*%
%ADD28C,1.208000*%
%TD*%
%TA.AperFunction,ViaPad*%
%ADD29C,0.800000*%
%TD*%
%TA.AperFunction,Conductor*%
%ADD30C,0.250000*%
%TD*%
G04 APERTURE END LIST*
D10*
%TO.P,TP4,1,1*%
%TO.N,Net-(J2-In)*%
X145500000Y-119800000D03*
%TD*%
%TO.P,TP2,1,1*%
%TO.N,GND*%
X183200000Y-119600000D03*
%TD*%
D11*
%TO.P,R12,1*%
%TO.N,Net-(R12-Pad1)*%
X133880000Y-122200000D03*
D12*
%TO.P,R12,2*%
%TO.N,Net-(D3-A2)*%
X141500000Y-122200000D03*
%TD*%
D11*
%TO.P,R10,1*%
%TO.N,+BATT*%
X170110000Y-118000000D03*
D12*
%TO.P,R10,2*%
%TO.N,Net-(U2C-+)*%
X162490000Y-118000000D03*
%TD*%
D13*
%TO.P,D4,1,K*%
%TO.N,Net-(D4-K)*%
X127180000Y-123500000D03*
D14*
%TO.P,D4,2,A*%
%TO.N,Net-(D4-A)*%
X117020000Y-123500000D03*
%TD*%
D15*
%TO.P,D1,1,K*%
%TO.N,-BATT*%
X178540000Y-123000000D03*
D16*
%TO.P,D1,2,A*%
%TO.N,Net-(D1-A)*%
X176000000Y-123000000D03*
%TD*%
D11*
%TO.P,R2,1*%
%TO.N,Net-(R2-Pad1)*%
X162490000Y-121200000D03*
D12*
%TO.P,R2,2*%
%TO.N,GND*%
X170110000Y-121200000D03*
%TD*%
D11*
%TO.P,C5,1*%
%TO.N,Net-(U2B--)*%
X141500000Y-118900000D03*
%TO.P,C5,2*%
%TO.N,Net-(C5-Pad2)*%
X136500000Y-118900000D03*
%TD*%
%TO.P,R13,1*%
%TO.N,Net-(D3-A1)*%
X170120000Y-104900000D03*
D12*
%TO.P,R13,2*%
%TO.N,Net-(R13-Pad2)*%
X162500000Y-104900000D03*
%TD*%
D11*
%TO.P,R6,1*%
%TO.N,Net-(U2B-+)*%
X133880000Y-102575000D03*
D12*
%TO.P,R6,2*%
%TO.N,GND*%
X141500000Y-102575000D03*
%TD*%
D17*
%TO.P,H1,1,1*%
%TO.N,GND*%
X94600000Y-91000000D03*
X95302944Y-89302944D03*
X95302944Y-92697056D03*
X97000000Y-88600000D03*
D18*
X97000000Y-91000000D03*
D17*
X97000000Y-93400000D03*
X98697056Y-89302944D03*
X98697056Y-92697056D03*
X99400000Y-91000000D03*
%TD*%
D11*
%TO.P,R11,1*%
%TO.N,Net-(U2C-+)*%
X162490000Y-114700000D03*
D12*
%TO.P,R11,2*%
%TO.N,-BATT*%
X170110000Y-114700000D03*
%TD*%
D19*
%TO.P,D3,1,A1*%
%TO.N,Net-(D3-A1)*%
X120200000Y-100480000D03*
D20*
%TO.P,D3,2,A2*%
%TO.N,Net-(D3-A2)*%
X120200000Y-90320000D03*
%TD*%
D10*
%TO.P,TP1,1,1*%
%TO.N,Net-(D3-A2)*%
X138000000Y-95000000D03*
%TD*%
D21*
%TO.P,U2,1*%
%TO.N,Net-(U2A--)*%
X148180000Y-100700000D03*
D12*
%TO.P,U2,2,-*%
X148180000Y-103240000D03*
%TO.P,U2,3,+*%
%TO.N,Net-(D3-A2)*%
X148180000Y-105780000D03*
%TO.P,U2,4,V+*%
%TO.N,+BATT*%
X148180000Y-108320000D03*
%TO.P,U2,5,+*%
%TO.N,Net-(U2B-+)*%
X148180000Y-110860000D03*
%TO.P,U2,6,-*%
%TO.N,Net-(U2B--)*%
X148180000Y-113400000D03*
%TO.P,U2,7*%
%TO.N,Net-(C5-Pad2)*%
X148180000Y-115940000D03*
%TO.P,U2,8*%
%TO.N,Net-(R2-Pad1)*%
X155800000Y-115940000D03*
%TO.P,U2,9,-*%
%TO.N,GND*%
X155800000Y-113400000D03*
%TO.P,U2,10,+*%
%TO.N,Net-(U2C-+)*%
X155800000Y-110860000D03*
%TO.P,U2,11,V-*%
%TO.N,-BATT*%
X155800000Y-108320000D03*
%TO.P,U2,12,+*%
%TO.N,Net-(D3-A1)*%
X155800000Y-105780000D03*
%TO.P,U2,13,-*%
%TO.N,Net-(U2D--)*%
X155800000Y-103240000D03*
%TO.P,U2,14*%
X155800000Y-100700000D03*
%TD*%
D11*
%TO.P,C3,1*%
%TO.N,Net-(U2C-+)*%
X162500000Y-111400000D03*
%TO.P,C3,2*%
%TO.N,-BATT*%
X167500000Y-111400000D03*
%TD*%
D17*
%TO.P,H3,1,1*%
%TO.N,GND*%
X94600000Y-125000000D03*
X95302944Y-123302944D03*
X95302944Y-126697056D03*
X97000000Y-122600000D03*
D18*
X97000000Y-125000000D03*
D17*
X97000000Y-127400000D03*
X98697056Y-123302944D03*
X98697056Y-126697056D03*
X99400000Y-125000000D03*
%TD*%
D11*
%TO.P,R4,1*%
%TO.N,Net-(U2B--)*%
X141510000Y-115700000D03*
D12*
%TO.P,R4,2*%
%TO.N,Net-(C5-Pad2)*%
X133890000Y-115700000D03*
%TD*%
D11*
%TO.P,R8,1*%
%TO.N,Net-(C5-Pad2)*%
X133890000Y-109100000D03*
D12*
%TO.P,R8,2*%
%TO.N,Net-(J2-In)*%
X141510000Y-109100000D03*
%TD*%
D11*
%TO.P,C1,1*%
%TO.N,+BATT*%
X162500000Y-108100000D03*
%TO.P,C1,2*%
%TO.N,-BATT*%
X167500000Y-108100000D03*
%TD*%
D17*
%TO.P,H2,1,1*%
%TO.N,GND*%
X185600000Y-125000000D03*
X186302944Y-123302944D03*
X186302944Y-126697056D03*
X188000000Y-122600000D03*
D18*
X188000000Y-125000000D03*
D17*
X188000000Y-127400000D03*
X189697056Y-123302944D03*
X189697056Y-126697056D03*
X190400000Y-125000000D03*
%TD*%
D22*
%TO.P,F1,1*%
%TO.N,Net-(D4-K)*%
X130100000Y-121987500D03*
%TO.P,F1,2*%
%TO.N,+BATT*%
X130100000Y-119012500D03*
%TD*%
D23*
%TO.P,J4,1,Pin_1*%
%TO.N,GND*%
X169000000Y-93000000D03*
D24*
%TO.P,J4,2,Pin_2*%
X163920000Y-93000000D03*
%TD*%
D11*
%TO.P,R16,1*%
%TO.N,GND*%
X162490000Y-101700000D03*
D12*
%TO.P,R16,2*%
%TO.N,Net-(D3-A1)*%
X170110000Y-101700000D03*
%TD*%
D25*
%TO.P,J3,*%
%TO.N,*%
X97560000Y-111080000D03*
X107720000Y-100920000D03*
D26*
%TO.P,J3,1,In*%
%TO.N,Net-(J3-In)*%
X102640000Y-106000000D03*
D11*
%TO.P,J3,2,Ext*%
%TO.N,Net-(J3-Ext)*%
X105180000Y-106000000D03*
%TD*%
D19*
%TO.P,D2,1,K*%
%TO.N,+BATT*%
X127180000Y-117500000D03*
D20*
%TO.P,D2,2,A*%
%TO.N,-BATT*%
X117020000Y-117500000D03*
%TD*%
D23*
%TO.P,J1,1,Pin_1*%
%TO.N,-BATT*%
X106635000Y-122805000D03*
D24*
%TO.P,J1,2,Pin_2*%
%TO.N,Net-(D4-A)*%
X111715000Y-122805000D03*
%TD*%
D10*
%TO.P,TP6,1,1*%
%TO.N,-BATT*%
X155000000Y-121800000D03*
%TD*%
D11*
%TO.P,R5,1*%
%TO.N,Net-(U2A--)*%
X141510000Y-105800000D03*
D12*
%TO.P,R5,2*%
%TO.N,Net-(U2B-+)*%
X133890000Y-105800000D03*
%TD*%
D10*
%TO.P,TP5,1,1*%
%TO.N,+BATT*%
X123000000Y-113000000D03*
%TD*%
D11*
%TO.P,C2,1*%
%TO.N,GND*%
X158800000Y-113400000D03*
%TO.P,C2,2*%
%TO.N,-BATT*%
X158800000Y-108400000D03*
%TD*%
D17*
%TO.P,H4,1,1*%
%TO.N,GND*%
X185600000Y-91000000D03*
X186302944Y-89302944D03*
X186302944Y-92697056D03*
X188000000Y-88600000D03*
D18*
X188000000Y-91000000D03*
D17*
X188000000Y-93400000D03*
X189697056Y-89302944D03*
X189697056Y-92697056D03*
X190400000Y-91000000D03*
%TD*%
D11*
%TO.P,R9,1*%
%TO.N,Net-(D3-A2)*%
X133890000Y-99400000D03*
D12*
%TO.P,R9,2*%
%TO.N,GND*%
X141510000Y-99400000D03*
%TD*%
D25*
%TO.P,J2,*%
%TO.N,*%
X177880000Y-111080000D03*
X188040000Y-100920000D03*
D26*
%TO.P,J2,1,In*%
%TO.N,Net-(J2-In)*%
X182960000Y-106000000D03*
D11*
%TO.P,J2,2,Ext*%
%TO.N,GND*%
X185500000Y-106000000D03*
%TD*%
%TO.P,R7,1*%
%TO.N,Net-(U2D--)*%
X141510000Y-112400000D03*
D12*
%TO.P,R7,2*%
%TO.N,Net-(U2B--)*%
X133890000Y-112400000D03*
%TD*%
D11*
%TO.P,R1,1*%
%TO.N,+BATT*%
X162580000Y-124700000D03*
D12*
%TO.P,R1,2*%
%TO.N,Net-(D1-A)*%
X170200000Y-124700000D03*
%TD*%
D11*
%TO.P,C4,1*%
%TO.N,GND*%
X145280000Y-103325000D03*
%TO.P,C4,2*%
%TO.N,+BATT*%
X145280000Y-108325000D03*
%TD*%
D10*
%TO.P,TP3,1,1*%
%TO.N,Net-(D3-A1)*%
X179000000Y-94000000D03*
%TD*%
D27*
%TO.P,SW1,1,A*%
%TO.N,Net-(R12-Pad1)*%
X120180000Y-107500000D03*
D28*
%TO.P,SW1,2,B*%
%TO.N,Net-(J3-In)*%
X118180000Y-107500000D03*
%TO.P,SW1,3,C*%
%TO.N,Net-(D3-A2)*%
X116180000Y-107500000D03*
%TO.P,SW1,4,A*%
%TO.N,Net-(R13-Pad2)*%
X120180000Y-105000000D03*
%TO.P,SW1,5,B*%
%TO.N,Net-(J3-Ext)*%
X118180000Y-105000000D03*
%TO.P,SW1,6,C*%
%TO.N,Net-(D3-A1)*%
X116180000Y-105000000D03*
%TD*%
D29*
%TO.N,Net-(D3-A1)*%
X157500000Y-97100000D03*
X157500000Y-99500000D03*
X124500000Y-95600000D03*
X124400000Y-97300000D03*
%TO.N,Net-(D3-A2)*%
X150600000Y-120900000D03*
X150700000Y-112600000D03*
X150700000Y-119000000D03*
X150700000Y-110600000D03*
%TO.N,Net-(R12-Pad1)*%
X128000000Y-107700000D03*
X126300000Y-107700000D03*
%TO.N,Net-(R13-Pad2)*%
X126300000Y-100700000D03*
X148300000Y-98000000D03*
X124400000Y-100700000D03*
X150800000Y-98000000D03*
%TD*%
D30*
%TO.N,+BATT*%
X123500000Y-117500000D02*
X127180000Y-117500000D01*
X165000000Y-108600000D02*
X165000000Y-117600000D01*
X129680000Y-117500000D02*
X130100000Y-117920000D01*
X165400000Y-118000000D02*
X165700000Y-118000000D01*
X128900000Y-101200000D02*
X127180000Y-102920000D01*
X140500000Y-107500000D02*
X139600000Y-106600000D01*
X165700000Y-118000000D02*
X170110000Y-118000000D01*
X127180000Y-117500000D02*
X129680000Y-117500000D01*
X162580000Y-124700000D02*
X164700000Y-124700000D01*
X164500000Y-108100000D02*
X165000000Y-108600000D01*
X123000000Y-113000000D02*
X123000000Y-117000000D01*
X139600000Y-101500000D02*
X139300000Y-101200000D01*
X165700000Y-123700000D02*
X165700000Y-118000000D01*
X130100000Y-117920000D02*
X130100000Y-119012500D01*
X127180000Y-102920000D02*
X127180000Y-117500000D01*
X139600000Y-106600000D02*
X139600000Y-101500000D01*
X145280000Y-108325000D02*
X144455000Y-107500000D01*
X139300000Y-101200000D02*
X128900000Y-101200000D01*
X145280000Y-108325000D02*
X148175000Y-108325000D01*
X165000000Y-117600000D02*
X165400000Y-118000000D01*
X144455000Y-107500000D02*
X140500000Y-107500000D01*
X164700000Y-124700000D02*
X165700000Y-123700000D01*
X123000000Y-117000000D02*
X123500000Y-117500000D01*
X162500000Y-108100000D02*
X164500000Y-108100000D01*
%TO.N,-BATT*%
X107200000Y-120100000D02*
X116000000Y-120100000D01*
X116000000Y-120100000D02*
X117020000Y-119080000D01*
X117020000Y-119080000D02*
X117020000Y-117500000D01*
X106635000Y-122805000D02*
X106635000Y-120665000D01*
X106635000Y-120665000D02*
X107200000Y-120100000D01*
%TO.N,Net-(U2C-+)*%
X162490000Y-114700000D02*
X162490000Y-111410000D01*
X155800000Y-110860000D02*
X158760000Y-110860000D01*
X162490000Y-114700000D02*
X162490000Y-118000000D01*
X158760000Y-110860000D02*
X159300000Y-111400000D01*
X159300000Y-111400000D02*
X162500000Y-111400000D01*
%TO.N,Net-(U2B--)*%
X140180000Y-115700000D02*
X141510000Y-115700000D01*
X141510000Y-115700000D02*
X141510000Y-118890000D01*
X145300000Y-113400000D02*
X148180000Y-113400000D01*
X139280000Y-114800000D02*
X140180000Y-115700000D01*
X138780000Y-112400000D02*
X139280000Y-112900000D01*
X143000000Y-115700000D02*
X145300000Y-113400000D01*
X141510000Y-115700000D02*
X143000000Y-115700000D01*
X133890000Y-112400000D02*
X138780000Y-112400000D01*
X139280000Y-112900000D02*
X139280000Y-114800000D01*
%TO.N,Net-(C5-Pad2)*%
X134580000Y-118900000D02*
X136500000Y-118900000D01*
X139000000Y-118900000D02*
X140600000Y-120500000D01*
X136500000Y-118900000D02*
X139000000Y-118900000D01*
X132580000Y-109100000D02*
X132180000Y-109500000D01*
X132180000Y-109500000D02*
X132180000Y-115200000D01*
X133890000Y-109100000D02*
X132580000Y-109100000D01*
X140600000Y-120500000D02*
X142700000Y-120500000D01*
X133890000Y-118210000D02*
X134580000Y-118900000D01*
X143000000Y-117600000D02*
X144660000Y-115940000D01*
X132680000Y-115700000D02*
X133890000Y-115700000D01*
X133890000Y-115700000D02*
X133890000Y-118210000D01*
X142700000Y-120500000D02*
X143000000Y-120200000D01*
X143000000Y-120200000D02*
X143000000Y-117600000D01*
X144660000Y-115940000D02*
X148180000Y-115940000D01*
X132180000Y-115200000D02*
X132680000Y-115700000D01*
%TO.N,Net-(D1-A)*%
X172700000Y-123300000D02*
X173000000Y-123000000D01*
X172500000Y-124700000D02*
X172700000Y-124500000D01*
X172700000Y-124500000D02*
X172700000Y-123300000D01*
X170200000Y-124700000D02*
X172500000Y-124700000D01*
X173000000Y-123000000D02*
X176000000Y-123000000D01*
%TO.N,Net-(D3-A1)*%
X122220000Y-100480000D02*
X123200000Y-99500000D01*
X124500000Y-95600000D02*
X124900000Y-95200000D01*
X167200000Y-104900000D02*
X165500000Y-106600000D01*
X158080000Y-105780000D02*
X158900000Y-106600000D01*
X165500000Y-106600000D02*
X158900000Y-106600000D01*
X170110000Y-101700000D02*
X175900000Y-101700000D01*
X170120000Y-104900000D02*
X167200000Y-104900000D01*
X141700000Y-94900000D02*
X148300000Y-94900000D01*
X155800000Y-105780000D02*
X157500000Y-105780000D01*
X157200000Y-96800000D02*
X157500000Y-97100000D01*
X138400000Y-92400000D02*
X139200000Y-92400000D01*
X170110000Y-101700000D02*
X170110000Y-104890000D01*
X124900000Y-95200000D02*
X133300000Y-95200000D01*
X141100000Y-94300000D02*
X141700000Y-94900000D01*
X124400000Y-98300000D02*
X124400000Y-97300000D01*
X150200000Y-96800000D02*
X155200000Y-96800000D01*
X179000000Y-98600000D02*
X179000000Y-94000000D01*
X139200000Y-92400000D02*
X141100000Y-94300000D01*
X155200000Y-96800000D02*
X157200000Y-96800000D01*
X120200000Y-100480000D02*
X122220000Y-100480000D01*
X123200000Y-99500000D02*
X124400000Y-98300000D01*
X136100000Y-92400000D02*
X138400000Y-92400000D01*
X148300000Y-94900000D02*
X150200000Y-96800000D01*
X133300000Y-95200000D02*
X136100000Y-92400000D01*
X175900000Y-101700000D02*
X179000000Y-98600000D01*
X157500000Y-99500000D02*
X157500000Y-105780000D01*
X157500000Y-105780000D02*
X158080000Y-105780000D01*
%TO.N,Net-(D3-A2)*%
X150100000Y-109100000D02*
X150700000Y-109700000D01*
X138000000Y-97200000D02*
X148800000Y-97200000D01*
X116180000Y-107500000D02*
X117480000Y-106200000D01*
X135400000Y-97200000D02*
X138000000Y-97200000D01*
X133890000Y-99400000D02*
X133890000Y-97710000D01*
X150100000Y-98500000D02*
X150100000Y-105000000D01*
X150100000Y-105000000D02*
X149320000Y-105780000D01*
X133890000Y-97710000D02*
X134400000Y-97200000D01*
X149320000Y-105780000D02*
X148180000Y-105780000D01*
X135400000Y-96700000D02*
X135400000Y-97200000D01*
X121300000Y-96400000D02*
X125400000Y-96400000D01*
X121700000Y-106200000D02*
X125400000Y-102500000D01*
X149300000Y-122200000D02*
X150600000Y-120900000D01*
X148800000Y-97200000D02*
X150100000Y-98500000D01*
X134400000Y-97200000D02*
X135400000Y-97200000D01*
X125400000Y-102500000D02*
X125400000Y-96400000D01*
X120200000Y-90320000D02*
X120200000Y-95300000D01*
X135100000Y-96400000D02*
X135400000Y-96700000D01*
X150700000Y-109700000D02*
X150700000Y-110600000D01*
X150100000Y-105000000D02*
X150100000Y-109100000D01*
X120200000Y-95300000D02*
X121300000Y-96400000D01*
X150700000Y-112600000D02*
X150700000Y-119000000D01*
X138000000Y-95000000D02*
X138000000Y-97200000D01*
X125400000Y-96400000D02*
X135100000Y-96400000D01*
X141500000Y-122200000D02*
X149300000Y-122200000D01*
X117480000Y-106200000D02*
X121700000Y-106200000D01*
%TO.N,Net-(D4-K)*%
X127180000Y-123500000D02*
X129700000Y-123500000D01*
X129700000Y-123500000D02*
X130100000Y-123100000D01*
X130100000Y-123100000D02*
X130100000Y-121987500D01*
%TO.N,Net-(D4-A)*%
X114105000Y-122805000D02*
X114800000Y-123500000D01*
X111715000Y-122805000D02*
X114105000Y-122805000D01*
X114800000Y-123500000D02*
X117020000Y-123500000D01*
%TO.N,Net-(J2-In)*%
X145500000Y-119800000D02*
X159200000Y-119800000D01*
X161100000Y-126300000D02*
X164600000Y-126300000D01*
X164600000Y-126300000D02*
X168000000Y-122900000D01*
X159200000Y-119800000D02*
X160200000Y-120800000D01*
X175800000Y-106000000D02*
X182960000Y-106000000D01*
X171400000Y-122900000D02*
X171900000Y-122400000D01*
X160200000Y-125400000D02*
X161100000Y-126300000D01*
X171900000Y-122400000D02*
X171900000Y-109900000D01*
X171900000Y-109900000D02*
X175800000Y-106000000D01*
X160200000Y-120800000D02*
X160200000Y-125400000D01*
X168000000Y-122900000D02*
X171400000Y-122900000D01*
%TO.N,Net-(J3-In)*%
X102880000Y-109200000D02*
X117280000Y-109200000D01*
X117280000Y-109200000D02*
X118180000Y-108300000D01*
X102580000Y-106060000D02*
X102580000Y-108900000D01*
X118180000Y-108300000D02*
X118180000Y-107500000D01*
X102580000Y-108900000D02*
X102880000Y-109200000D01*
%TO.N,Net-(J3-Ext)*%
X112980000Y-106000000D02*
X113780000Y-105200000D01*
X113780000Y-105200000D02*
X113780000Y-104100000D01*
X117780000Y-103600000D02*
X118180000Y-104000000D01*
X105180000Y-106000000D02*
X112980000Y-106000000D01*
X113780000Y-104100000D02*
X114280000Y-103600000D01*
X114280000Y-103600000D02*
X117780000Y-103600000D01*
X118180000Y-104000000D02*
X118180000Y-105000000D01*
%TO.N,Net-(R2-Pad1)*%
X155800000Y-115940000D02*
X155800000Y-117600000D01*
X159890000Y-118600000D02*
X162490000Y-121200000D01*
X156800000Y-118600000D02*
X159890000Y-118600000D01*
X155800000Y-117600000D02*
X156800000Y-118600000D01*
%TO.N,Net-(U2A--)*%
X141510000Y-105800000D02*
X145200000Y-105800000D01*
X145200000Y-105800000D02*
X146100000Y-104900000D01*
X146520000Y-104900000D02*
X148180000Y-103240000D01*
X146100000Y-104900000D02*
X146520000Y-104900000D01*
X148180000Y-100700000D02*
X148180000Y-103240000D01*
%TO.N,Net-(U2B-+)*%
X138950000Y-110860000D02*
X148180000Y-110860000D01*
X133890000Y-105800000D02*
X138950000Y-110860000D01*
X133880000Y-102575000D02*
X133880000Y-105790000D01*
%TO.N,Net-(U2D--)*%
X151400000Y-111600000D02*
X151800000Y-111200000D01*
X152760000Y-103240000D02*
X155800000Y-103240000D01*
X151800000Y-111200000D02*
X151800000Y-104200000D01*
X145800000Y-112100000D02*
X149600000Y-112100000D01*
X141510000Y-112400000D02*
X145500000Y-112400000D01*
X151800000Y-104200000D02*
X152760000Y-103240000D01*
X149600000Y-112100000D02*
X150100000Y-111600000D01*
X155800000Y-100700000D02*
X155800000Y-103240000D01*
X145500000Y-112400000D02*
X145800000Y-112100000D01*
X150100000Y-111600000D02*
X151400000Y-111600000D01*
%TO.N,Net-(R12-Pad1)*%
X131300000Y-108100000D02*
X131300000Y-117000000D01*
X126300000Y-107700000D02*
X121900000Y-107700000D01*
X121900000Y-107700000D02*
X121700000Y-107500000D01*
X121700000Y-107500000D02*
X120180000Y-107500000D01*
X130900000Y-107700000D02*
X131300000Y-108100000D01*
X131300000Y-117000000D02*
X133880000Y-119580000D01*
X128000000Y-107700000D02*
X130900000Y-107700000D01*
X133880000Y-119580000D02*
X133880000Y-122200000D01*
%TO.N,Net-(R13-Pad2)*%
X124200000Y-102300000D02*
X124200000Y-100900000D01*
X158000000Y-98000000D02*
X158500000Y-98500000D01*
X158500000Y-98500000D02*
X158500000Y-103400000D01*
X147000000Y-98000000D02*
X148300000Y-98000000D01*
X121500000Y-105000000D02*
X124200000Y-102300000D01*
X126300000Y-100700000D02*
X144300000Y-100700000D01*
X150800000Y-98000000D02*
X158000000Y-98000000D01*
X120180000Y-105000000D02*
X121500000Y-105000000D01*
X144300000Y-100700000D02*
X145500000Y-99500000D01*
X124200000Y-100900000D02*
X124400000Y-100700000D01*
X145500000Y-99500000D02*
X147000000Y-98000000D01*
X160000000Y-104900000D02*
X162500000Y-104900000D01*
X158500000Y-103400000D02*
X160000000Y-104900000D01*
%TD*%
%TA.AperFunction,Conductor*%
%TO.N,-BATT*%
G36*
X186026410Y-88019685D02*
G01*
X186072165Y-88072489D01*
X186082109Y-88141647D01*
X186053084Y-88205203D01*
X186034415Y-88222713D01*
X185961199Y-88278370D01*
X185795330Y-88404461D01*
X185795330Y-88404462D01*
X185527626Y-88658044D01*
X185288909Y-88939083D01*
X185081979Y-89244282D01*
X185081973Y-89244291D01*
X184909261Y-89570061D01*
X184909255Y-89570073D01*
X184772770Y-89912628D01*
X184772768Y-89912634D01*
X184674128Y-90267905D01*
X184674122Y-90267931D01*
X184614470Y-90631786D01*
X184614469Y-90631803D01*
X184595111Y-90988849D01*
X184594506Y-91000000D01*
X184613694Y-91353913D01*
X184614469Y-91368196D01*
X184614470Y-91368213D01*
X184674122Y-91732068D01*
X184674128Y-91732094D01*
X184772768Y-92087365D01*
X184772770Y-92087371D01*
X184772772Y-92087377D01*
X184772773Y-92087379D01*
X184788385Y-92126562D01*
X184909255Y-92429926D01*
X184909261Y-92429938D01*
X185081973Y-92755708D01*
X185081979Y-92755717D01*
X185273814Y-93038653D01*
X185288910Y-93060917D01*
X185527627Y-93341956D01*
X185795330Y-93595538D01*
X186088881Y-93818690D01*
X186404838Y-94008795D01*
X186404840Y-94008796D01*
X186404842Y-94008797D01*
X186404846Y-94008799D01*
X186618699Y-94107738D01*
X186739497Y-94163625D01*
X187088934Y-94281364D01*
X187449052Y-94360632D01*
X187815630Y-94400500D01*
X187815636Y-94400500D01*
X188184364Y-94400500D01*
X188184370Y-94400500D01*
X188550948Y-94360632D01*
X188911066Y-94281364D01*
X189260503Y-94163625D01*
X189595162Y-94008795D01*
X189911119Y-93818690D01*
X190204670Y-93595538D01*
X190472373Y-93341956D01*
X190711090Y-93060917D01*
X190773366Y-92969066D01*
X190827281Y-92924625D01*
X190896663Y-92916387D01*
X190959485Y-92946967D01*
X190995801Y-93006658D01*
X191000000Y-93038653D01*
X191000000Y-122961346D01*
X190980315Y-123028385D01*
X190927511Y-123074140D01*
X190858353Y-123084084D01*
X190794797Y-123055059D01*
X190773367Y-123030934D01*
X190740535Y-122982511D01*
X190711090Y-122939083D01*
X190701477Y-122927766D01*
X190472373Y-122658044D01*
X190451713Y-122638474D01*
X190204670Y-122404462D01*
X190198800Y-122400000D01*
X190098954Y-122324099D01*
X189911119Y-122181310D01*
X189595162Y-121991205D01*
X189595161Y-121991204D01*
X189595157Y-121991202D01*
X189595153Y-121991200D01*
X189260513Y-121836379D01*
X189260508Y-121836377D01*
X189260503Y-121836375D01*
X189090172Y-121778983D01*
X188911065Y-121718635D01*
X188550946Y-121639367D01*
X188184371Y-121599500D01*
X188184370Y-121599500D01*
X187815630Y-121599500D01*
X187815628Y-121599500D01*
X187449053Y-121639367D01*
X187088934Y-121718635D01*
X186847457Y-121799999D01*
X186739497Y-121836375D01*
X186739494Y-121836376D01*
X186739486Y-121836379D01*
X186404846Y-121991200D01*
X186404842Y-121991202D01*
X186214037Y-122106006D01*
X186088881Y-122181310D01*
X186045398Y-122214365D01*
X185795330Y-122404461D01*
X185795330Y-122404462D01*
X185527626Y-122658044D01*
X185288909Y-122939083D01*
X185081979Y-123244282D01*
X185081973Y-123244291D01*
X184909261Y-123570061D01*
X184909255Y-123570073D01*
X184772770Y-123912628D01*
X184772768Y-123912634D01*
X184674128Y-124267905D01*
X184674122Y-124267931D01*
X184614470Y-124631786D01*
X184614469Y-124631803D01*
X184594506Y-124999997D01*
X184594506Y-125000002D01*
X184596093Y-125029264D01*
X184608523Y-125258539D01*
X184614469Y-125368196D01*
X184614470Y-125368213D01*
X184674122Y-125732068D01*
X184674128Y-125732094D01*
X184772768Y-126087365D01*
X184772770Y-126087371D01*
X184909255Y-126429926D01*
X184909261Y-126429938D01*
X185081973Y-126755708D01*
X185081979Y-126755717D01*
X185273814Y-127038653D01*
X185288910Y-127060917D01*
X185527627Y-127341956D01*
X185795330Y-127595538D01*
X186034413Y-127777285D01*
X186075870Y-127833526D01*
X186080339Y-127903252D01*
X186046402Y-127964326D01*
X185984833Y-127997358D01*
X185959371Y-128000000D01*
X99040629Y-128000000D01*
X98973590Y-127980315D01*
X98927835Y-127927511D01*
X98917891Y-127858353D01*
X98946916Y-127794797D01*
X98965584Y-127777286D01*
X99204670Y-127595538D01*
X99472373Y-127341956D01*
X99711090Y-127060917D01*
X99918022Y-126755716D01*
X100090743Y-126429930D01*
X100227227Y-126087379D01*
X100325875Y-125732081D01*
X100357417Y-125539683D01*
X100385529Y-125368213D01*
X100385529Y-125368210D01*
X100385531Y-125368199D01*
X100404476Y-125018785D01*
X100405494Y-125000002D01*
X100405494Y-124999997D01*
X100401275Y-124922182D01*
X100385531Y-124631801D01*
X100384520Y-124625637D01*
X100325877Y-124267931D01*
X100325876Y-124267930D01*
X100325875Y-124267919D01*
X100293925Y-124152844D01*
X104835000Y-124152844D01*
X104841401Y-124212372D01*
X104841403Y-124212379D01*
X104891645Y-124347086D01*
X104891649Y-124347093D01*
X104977809Y-124462187D01*
X104977812Y-124462190D01*
X105092906Y-124548350D01*
X105092913Y-124548354D01*
X105227620Y-124598596D01*
X105227627Y-124598598D01*
X105287155Y-124604999D01*
X105287172Y-124605000D01*
X106385000Y-124605000D01*
X106385000Y-123571753D01*
X106404685Y-123504714D01*
X106457489Y-123458959D01*
X106526647Y-123449015D01*
X106539816Y-123451644D01*
X106552886Y-123455000D01*
X106552890Y-123455000D01*
X106675892Y-123455000D01*
X106675894Y-123455000D01*
X106675899Y-123454999D01*
X106675903Y-123454999D01*
X106718552Y-123449611D01*
X106745458Y-123446212D01*
X106814436Y-123457338D01*
X106866448Y-123503991D01*
X106885000Y-123569234D01*
X106885000Y-124605000D01*
X107982828Y-124605000D01*
X107982844Y-124604999D01*
X108042372Y-124598598D01*
X108042379Y-124598596D01*
X108177086Y-124548354D01*
X108177093Y-124548350D01*
X108292187Y-124462190D01*
X108292190Y-124462187D01*
X108378350Y-124347093D01*
X108378354Y-124347086D01*
X108428596Y-124212379D01*
X108428598Y-124212372D01*
X108434999Y-124152844D01*
X108435000Y-124152827D01*
X108435000Y-123055000D01*
X107398921Y-123055000D01*
X107331882Y-123035315D01*
X107286127Y-122982511D01*
X107276183Y-122913353D01*
X107277117Y-122907766D01*
X107279047Y-122897646D01*
X107288873Y-122846138D01*
X107286285Y-122805005D01*
X110209357Y-122805005D01*
X110229890Y-123052812D01*
X110229892Y-123052824D01*
X110290936Y-123293881D01*
X110390826Y-123521606D01*
X110526833Y-123729782D01*
X110548385Y-123753194D01*
X110695256Y-123912738D01*
X110891491Y-124065474D01*
X110891493Y-124065475D01*
X111031904Y-124141462D01*
X111110190Y-124183828D01*
X111345386Y-124264571D01*
X111590665Y-124305500D01*
X111839335Y-124305500D01*
X112084614Y-124264571D01*
X112319810Y-124183828D01*
X112538509Y-124065474D01*
X112734744Y-123912738D01*
X112903164Y-123729785D01*
X112905182Y-123726697D01*
X112948324Y-123660662D01*
X113039173Y-123521607D01*
X113139063Y-123293881D01*
X113156744Y-123224059D01*
X113192284Y-123163904D01*
X113254704Y-123132512D01*
X113276950Y-123130500D01*
X113918812Y-123130500D01*
X113985851Y-123150185D01*
X114006492Y-123166818D01*
X114283003Y-123443330D01*
X114557868Y-123718195D01*
X114561523Y-123722184D01*
X114587541Y-123753190D01*
X114587542Y-123753191D01*
X114587545Y-123753194D01*
X114613029Y-123767907D01*
X114622604Y-123773435D01*
X114627154Y-123776333D01*
X114660316Y-123799553D01*
X114660318Y-123799553D01*
X114660319Y-123799554D01*
X114665168Y-123801815D01*
X114681947Y-123808765D01*
X114686952Y-123810587D01*
X114686953Y-123810587D01*
X114686955Y-123810588D01*
X114726829Y-123817618D01*
X114732092Y-123818786D01*
X114743907Y-123821951D01*
X114771193Y-123829263D01*
X114811510Y-123825735D01*
X114816912Y-123825500D01*
X115665692Y-123825500D01*
X115732731Y-123845185D01*
X115778486Y-123897989D01*
X115785464Y-123917398D01*
X115793259Y-123946488D01*
X115793262Y-123946499D01*
X115889431Y-124152732D01*
X115889432Y-124152734D01*
X116019954Y-124339141D01*
X116180858Y-124500045D01*
X116180861Y-124500047D01*
X116367266Y-124630568D01*
X116573504Y-124726739D01*
X116793308Y-124785635D01*
X116955230Y-124799801D01*
X117019998Y-124805468D01*
X117020000Y-124805468D01*
X117020002Y-124805468D01*
X117076796Y-124800499D01*
X117246692Y-124785635D01*
X117466496Y-124726739D01*
X117672734Y-124630568D01*
X117688181Y-124619752D01*
X125879500Y-124619752D01*
X125891131Y-124678229D01*
X125891132Y-124678230D01*
X125935447Y-124744552D01*
X126001769Y-124788867D01*
X126001770Y-124788868D01*
X126060247Y-124800499D01*
X126060250Y-124800500D01*
X126060252Y-124800500D01*
X128299750Y-124800500D01*
X128299751Y-124800499D01*
X128314568Y-124797552D01*
X128358229Y-124788868D01*
X128358229Y-124788867D01*
X128358231Y-124788867D01*
X128424552Y-124744552D01*
X128468867Y-124678231D01*
X128468867Y-124678229D01*
X128468868Y-124678229D01*
X128478102Y-124631803D01*
X128480500Y-124619748D01*
X128480500Y-123949499D01*
X128500185Y-123882461D01*
X128552989Y-123836706D01*
X128604500Y-123825500D01*
X129683078Y-123825500D01*
X129688481Y-123825735D01*
X129728807Y-123829264D01*
X129767940Y-123818777D01*
X129773162Y-123817619D01*
X129813045Y-123810588D01*
X129813050Y-123810584D01*
X129818099Y-123808747D01*
X129834824Y-123801819D01*
X129839681Y-123799554D01*
X129839684Y-123799554D01*
X129872841Y-123776335D01*
X129877390Y-123773438D01*
X129912455Y-123753194D01*
X129912459Y-123753190D01*
X129932099Y-123729782D01*
X129938481Y-123722176D01*
X129942121Y-123718203D01*
X130318210Y-123342115D01*
X130322172Y-123338484D01*
X130353194Y-123312455D01*
X130373444Y-123277378D01*
X130376333Y-123272845D01*
X130399553Y-123239684D01*
X130399555Y-123239676D01*
X130401816Y-123234828D01*
X130408754Y-123218079D01*
X130410583Y-123213052D01*
X130410588Y-123213045D01*
X130417622Y-123173147D01*
X130418779Y-123167929D01*
X130429263Y-123128807D01*
X130425733Y-123088465D01*
X130425500Y-123083107D01*
X130425500Y-123024497D01*
X130445186Y-122957458D01*
X130497991Y-122911704D01*
X130549500Y-122900499D01*
X130779258Y-122900499D01*
X130779264Y-122900499D01*
X130809698Y-122897646D01*
X130937882Y-122852793D01*
X131047150Y-122772150D01*
X131127793Y-122662882D01*
X131172646Y-122534698D01*
X131175500Y-122504265D01*
X131175499Y-121470736D01*
X131172646Y-121440302D01*
X131127793Y-121312118D01*
X131047150Y-121202850D01*
X130966505Y-121143332D01*
X130937881Y-121122206D01*
X130809695Y-121077353D01*
X130809698Y-121077353D01*
X130779268Y-121074500D01*
X129420741Y-121074500D01*
X129390301Y-121077354D01*
X129390300Y-121077354D01*
X129262118Y-121122206D01*
X129152850Y-121202850D01*
X129072206Y-121312118D01*
X129027353Y-121440302D01*
X129024500Y-121470731D01*
X129024500Y-122504258D01*
X129027354Y-122534698D01*
X129027354Y-122534699D01*
X129072206Y-122662881D01*
X129072207Y-122662882D01*
X129152850Y-122772150D01*
X129262118Y-122852793D01*
X129390302Y-122897646D01*
X129390301Y-122897646D01*
X129394867Y-122898074D01*
X129420735Y-122900500D01*
X129539813Y-122900499D01*
X129606851Y-122920183D01*
X129652606Y-122972987D01*
X129662550Y-123042145D01*
X129633526Y-123105701D01*
X129627499Y-123112174D01*
X129601492Y-123138181D01*
X129540172Y-123171666D01*
X129513812Y-123174500D01*
X128604500Y-123174500D01*
X128537461Y-123154815D01*
X128491706Y-123102011D01*
X128480500Y-123050500D01*
X128480500Y-122380249D01*
X128480499Y-122380247D01*
X128468868Y-122321770D01*
X128468867Y-122321769D01*
X128424552Y-122255447D01*
X128358230Y-122211132D01*
X128358229Y-122211131D01*
X128299752Y-122199500D01*
X128299748Y-122199500D01*
X126060252Y-122199500D01*
X126060247Y-122199500D01*
X126001770Y-122211131D01*
X126001769Y-122211132D01*
X125935447Y-122255447D01*
X125891132Y-122321769D01*
X125891131Y-122321770D01*
X125879500Y-122380247D01*
X125879500Y-124619752D01*
X117688181Y-124619752D01*
X117859139Y-124500047D01*
X118020047Y-124339139D01*
X118150568Y-124152734D01*
X118246739Y-123946496D01*
X118305635Y-123726692D01*
X118325468Y-123500000D01*
X118325011Y-123494782D01*
X118317348Y-123407187D01*
X118305635Y-123273308D01*
X118246739Y-123053504D01*
X118150568Y-122847266D01*
X118029432Y-122674264D01*
X118020045Y-122660858D01*
X117859141Y-122499954D01*
X117672734Y-122369432D01*
X117672732Y-122369431D01*
X117466497Y-122273261D01*
X117466488Y-122273258D01*
X117246697Y-122214366D01*
X117246693Y-122214365D01*
X117246692Y-122214365D01*
X117246691Y-122214364D01*
X117246686Y-122214364D01*
X117020002Y-122194532D01*
X117019998Y-122194532D01*
X116793313Y-122214364D01*
X116793302Y-122214366D01*
X116573511Y-122273258D01*
X116573502Y-122273261D01*
X116367267Y-122369431D01*
X116367265Y-122369432D01*
X116180858Y-122499954D01*
X116019954Y-122660858D01*
X115889432Y-122847265D01*
X115889431Y-122847267D01*
X115793262Y-123053500D01*
X115793260Y-123053504D01*
X115793261Y-123053504D01*
X115785465Y-123082596D01*
X115749101Y-123142255D01*
X115686254Y-123172783D01*
X115665692Y-123174500D01*
X114986189Y-123174500D01*
X114919150Y-123154815D01*
X114898508Y-123138181D01*
X114767784Y-123007457D01*
X114347119Y-122586793D01*
X114343474Y-122582814D01*
X114317456Y-122551807D01*
X114317455Y-122551806D01*
X114296458Y-122539683D01*
X114282392Y-122531561D01*
X114277831Y-122528655D01*
X114262735Y-122518085D01*
X114244684Y-122505446D01*
X114244681Y-122505445D01*
X114239861Y-122503197D01*
X114223055Y-122496235D01*
X114218043Y-122494411D01*
X114178190Y-122487383D01*
X114172910Y-122486212D01*
X114133808Y-122475735D01*
X114098892Y-122478790D01*
X114093481Y-122479264D01*
X114088078Y-122479500D01*
X113276950Y-122479500D01*
X113209911Y-122459815D01*
X113164156Y-122407011D01*
X113156744Y-122385940D01*
X113156394Y-122384556D01*
X113139063Y-122316119D01*
X113039173Y-122088393D01*
X113008056Y-122040765D01*
X112903166Y-121880217D01*
X112862806Y-121836375D01*
X112734744Y-121697262D01*
X112538509Y-121544526D01*
X112538507Y-121544525D01*
X112538506Y-121544524D01*
X112319811Y-121426172D01*
X112319802Y-121426169D01*
X112084616Y-121345429D01*
X111839335Y-121304500D01*
X111590665Y-121304500D01*
X111345383Y-121345429D01*
X111110197Y-121426169D01*
X111110188Y-121426172D01*
X110891493Y-121544524D01*
X110695257Y-121697261D01*
X110526833Y-121880217D01*
X110390826Y-122088393D01*
X110290936Y-122316118D01*
X110229892Y-122557175D01*
X110229890Y-122557187D01*
X110209357Y-122804994D01*
X110209357Y-122805005D01*
X107286285Y-122805005D01*
X107278847Y-122686784D01*
X107294283Y-122618643D01*
X107344109Y-122569663D01*
X107402602Y-122555000D01*
X108435000Y-122555000D01*
X108435000Y-121457172D01*
X108434999Y-121457155D01*
X108428598Y-121397627D01*
X108428596Y-121397620D01*
X108378354Y-121262913D01*
X108378350Y-121262906D01*
X108292190Y-121147812D01*
X108292187Y-121147809D01*
X108177093Y-121061649D01*
X108177086Y-121061645D01*
X108042379Y-121011403D01*
X108042372Y-121011401D01*
X107982844Y-121005000D01*
X106885000Y-121005000D01*
X106885000Y-122038246D01*
X106865315Y-122105285D01*
X106812511Y-122151040D01*
X106743353Y-122160984D01*
X106730165Y-122158351D01*
X106717115Y-122155000D01*
X106717114Y-122155000D01*
X106594106Y-122155000D01*
X106594094Y-122155000D01*
X106524541Y-122163787D01*
X106455563Y-122152660D01*
X106403551Y-122106006D01*
X106385000Y-122040765D01*
X106385000Y-121005000D01*
X105287155Y-121005000D01*
X105227627Y-121011401D01*
X105227620Y-121011403D01*
X105092913Y-121061645D01*
X105092906Y-121061649D01*
X104977812Y-121147809D01*
X104977809Y-121147812D01*
X104891649Y-121262906D01*
X104891645Y-121262913D01*
X104841403Y-121397620D01*
X104841401Y-121397627D01*
X104835000Y-121457155D01*
X104835000Y-122555000D01*
X105871079Y-122555000D01*
X105938118Y-122574685D01*
X105983873Y-122627489D01*
X105993817Y-122696647D01*
X105992883Y-122702234D01*
X105981127Y-122763862D01*
X105990532Y-122913353D01*
X105991153Y-122923214D01*
X105975717Y-122991357D01*
X105925891Y-123040337D01*
X105867398Y-123055000D01*
X104835000Y-123055000D01*
X104835000Y-124152844D01*
X100293925Y-124152844D01*
X100293894Y-124152734D01*
X100227231Y-123912634D01*
X100227229Y-123912628D01*
X100227228Y-123912627D01*
X100227227Y-123912621D01*
X100090743Y-123570070D01*
X99980335Y-123361818D01*
X99918026Y-123244291D01*
X99918024Y-123244288D01*
X99918022Y-123244284D01*
X99711090Y-122939083D01*
X99472373Y-122658044D01*
X99204670Y-122404462D01*
X99198800Y-122400000D01*
X99098954Y-122324099D01*
X98911119Y-122181310D01*
X98595162Y-121991205D01*
X98595161Y-121991204D01*
X98595157Y-121991202D01*
X98595153Y-121991200D01*
X98260513Y-121836379D01*
X98260508Y-121836377D01*
X98260503Y-121836375D01*
X98090172Y-121778983D01*
X97911065Y-121718635D01*
X97550946Y-121639367D01*
X97184371Y-121599500D01*
X97184370Y-121599500D01*
X96815630Y-121599500D01*
X96815628Y-121599500D01*
X96449053Y-121639367D01*
X96088934Y-121718635D01*
X95847457Y-121799999D01*
X95739497Y-121836375D01*
X95739494Y-121836376D01*
X95739486Y-121836379D01*
X95404846Y-121991200D01*
X95404842Y-121991202D01*
X95214037Y-122106006D01*
X95088881Y-122181310D01*
X95045398Y-122214365D01*
X94795330Y-122404461D01*
X94795330Y-122404462D01*
X94527626Y-122658044D01*
X94288912Y-122939079D01*
X94226633Y-123030934D01*
X94172719Y-123075375D01*
X94103336Y-123083612D01*
X94040514Y-123053031D01*
X94004199Y-122993341D01*
X94000000Y-122961346D01*
X94000000Y-117750000D01*
X115333968Y-117750000D01*
X115334274Y-117754079D01*
X115334275Y-117754086D01*
X115390967Y-118002475D01*
X115390973Y-118002494D01*
X115484058Y-118239671D01*
X115484057Y-118239671D01*
X115611455Y-118460328D01*
X115770320Y-118659540D01*
X115957097Y-118832842D01*
X116167616Y-118976371D01*
X116167624Y-118976376D01*
X116397176Y-119086921D01*
X116397174Y-119086921D01*
X116640652Y-119162024D01*
X116640660Y-119162026D01*
X116769999Y-119181520D01*
X116769999Y-118213658D01*
X116789684Y-118146619D01*
X116842488Y-118100864D01*
X116910183Y-118090719D01*
X116980677Y-118100000D01*
X116980684Y-118100000D01*
X117059316Y-118100000D01*
X117059323Y-118100000D01*
X117129815Y-118090719D01*
X117198849Y-118101484D01*
X117251105Y-118147864D01*
X117270000Y-118213658D01*
X117270000Y-119181519D01*
X117399339Y-119162026D01*
X117399347Y-119162024D01*
X117642824Y-119086921D01*
X117872376Y-118976376D01*
X117872377Y-118976375D01*
X118082905Y-118832840D01*
X118269679Y-118659540D01*
X118428544Y-118460328D01*
X118555941Y-118239671D01*
X118649026Y-118002494D01*
X118649032Y-118002475D01*
X118705724Y-117754086D01*
X118705725Y-117754079D01*
X118706032Y-117750000D01*
X117733658Y-117750000D01*
X117666619Y-117730315D01*
X117620864Y-117677511D01*
X117610719Y-117609816D01*
X117625177Y-117500000D01*
X117610719Y-117390183D01*
X117621484Y-117321151D01*
X117667864Y-117268895D01*
X117733658Y-117250000D01*
X118706031Y-117250000D01*
X118705725Y-117245920D01*
X118705724Y-117245913D01*
X118649032Y-116997524D01*
X118649026Y-116997505D01*
X118555941Y-116760328D01*
X118555942Y-116760328D01*
X118428544Y-116539671D01*
X118269679Y-116340459D01*
X118082905Y-116167159D01*
X117872377Y-116023624D01*
X117872376Y-116023623D01*
X117642823Y-115913078D01*
X117642825Y-115913078D01*
X117399354Y-115837977D01*
X117399348Y-115837976D01*
X117270000Y-115818479D01*
X117270000Y-116786341D01*
X117250315Y-116853380D01*
X117197511Y-116899135D01*
X117129815Y-116909280D01*
X117059333Y-116900001D01*
X117059328Y-116900000D01*
X117059323Y-116900000D01*
X116980677Y-116900000D01*
X116980671Y-116900000D01*
X116980666Y-116900001D01*
X116910184Y-116909280D01*
X116841148Y-116898514D01*
X116788893Y-116852134D01*
X116769999Y-116786341D01*
X116769999Y-115818479D01*
X116640651Y-115837976D01*
X116640645Y-115837977D01*
X116397175Y-115913078D01*
X116167624Y-116023623D01*
X116167616Y-116023628D01*
X115957097Y-116167157D01*
X115770320Y-116340459D01*
X115611455Y-116539671D01*
X115484058Y-116760328D01*
X115390973Y-116997505D01*
X115390967Y-116997524D01*
X115334275Y-117245913D01*
X115334274Y-117245920D01*
X115333968Y-117250000D01*
X116306342Y-117250000D01*
X116373381Y-117269685D01*
X116419136Y-117322489D01*
X116429280Y-117390183D01*
X116414823Y-117500000D01*
X116429280Y-117609816D01*
X116418516Y-117678849D01*
X116372136Y-117731105D01*
X116306342Y-117750000D01*
X115333968Y-117750000D01*
X94000000Y-117750000D01*
X94000000Y-111080000D01*
X95354778Y-111080000D01*
X95372265Y-111346806D01*
X95373644Y-111367837D01*
X95373646Y-111367849D01*
X95429917Y-111650745D01*
X95429921Y-111650760D01*
X95522642Y-111923905D01*
X95650219Y-112182606D01*
X95650223Y-112182613D01*
X95810478Y-112422452D01*
X96000672Y-112639327D01*
X96217547Y-112829521D01*
X96457386Y-112989776D01*
X96457389Y-112989778D01*
X96716098Y-113117359D01*
X96989247Y-113210081D01*
X97272161Y-113266356D01*
X97560000Y-113285222D01*
X97847839Y-113266356D01*
X98130753Y-113210081D01*
X98403902Y-113117359D01*
X98662611Y-112989778D01*
X98902454Y-112829520D01*
X99119327Y-112639327D01*
X99309520Y-112422454D01*
X99469778Y-112182611D01*
X99597359Y-111923902D01*
X99690081Y-111650753D01*
X99746356Y-111367839D01*
X99765222Y-111080000D01*
X99746356Y-110792161D01*
X99690081Y-110509247D01*
X99597359Y-110236098D01*
X99495138Y-110028814D01*
X99469780Y-109977393D01*
X99469776Y-109977386D01*
X99309521Y-109737547D01*
X99119327Y-109520672D01*
X98902452Y-109330478D01*
X98662613Y-109170223D01*
X98662606Y-109170219D01*
X98403905Y-109042642D01*
X98130760Y-108949921D01*
X98130754Y-108949919D01*
X98130753Y-108949919D01*
X98130751Y-108949918D01*
X98130745Y-108949917D01*
X97847849Y-108893646D01*
X97847839Y-108893644D01*
X97560000Y-108874778D01*
X97272161Y-108893644D01*
X97272155Y-108893645D01*
X97272150Y-108893646D01*
X96989254Y-108949917D01*
X96989239Y-108949921D01*
X96716094Y-109042642D01*
X96457393Y-109170219D01*
X96457386Y-109170223D01*
X96217547Y-109330478D01*
X96000672Y-109520672D01*
X95810478Y-109737547D01*
X95650223Y-109977386D01*
X95650219Y-109977393D01*
X95522642Y-110236094D01*
X95429921Y-110509239D01*
X95429917Y-110509254D01*
X95380685Y-110756762D01*
X95373644Y-110792161D01*
X95368722Y-110867259D01*
X95355279Y-111072363D01*
X95354778Y-111080000D01*
X94000000Y-111080000D01*
X94000000Y-106439363D01*
X101639500Y-106439363D01*
X101654953Y-106556753D01*
X101654956Y-106556762D01*
X101679455Y-106615909D01*
X101715464Y-106702841D01*
X101811718Y-106828282D01*
X101937159Y-106924536D01*
X102083238Y-106985044D01*
X102146686Y-106993397D01*
X102210581Y-107021662D01*
X102249053Y-107079986D01*
X102254500Y-107116335D01*
X102254500Y-108883078D01*
X102254264Y-108888485D01*
X102250735Y-108928808D01*
X102261212Y-108967910D01*
X102262383Y-108973190D01*
X102269411Y-109013043D01*
X102271235Y-109018055D01*
X102278197Y-109034861D01*
X102280445Y-109039681D01*
X102280446Y-109039684D01*
X102289408Y-109052483D01*
X102303655Y-109072831D01*
X102306561Y-109077392D01*
X102326806Y-109112455D01*
X102357815Y-109138475D01*
X102361805Y-109142131D01*
X102637863Y-109418189D01*
X102641518Y-109422178D01*
X102667541Y-109453190D01*
X102667543Y-109453191D01*
X102667545Y-109453194D01*
X102667547Y-109453195D01*
X102667548Y-109453196D01*
X102702599Y-109473433D01*
X102707162Y-109476339D01*
X102740316Y-109499554D01*
X102740319Y-109499554D01*
X102745176Y-109501820D01*
X102761933Y-109508760D01*
X102766950Y-109510586D01*
X102766952Y-109510586D01*
X102766955Y-109510588D01*
X102806818Y-109517616D01*
X102812076Y-109518782D01*
X102851193Y-109529264D01*
X102891518Y-109525735D01*
X102896922Y-109525500D01*
X117263078Y-109525500D01*
X117268481Y-109525735D01*
X117308807Y-109529264D01*
X117347940Y-109518777D01*
X117353162Y-109517619D01*
X117393045Y-109510588D01*
X117393050Y-109510584D01*
X117398099Y-109508747D01*
X117414824Y-109501819D01*
X117419681Y-109499554D01*
X117419684Y-109499554D01*
X117452841Y-109476335D01*
X117457390Y-109473438D01*
X117492455Y-109453194D01*
X117492459Y-109453190D01*
X117518476Y-109422182D01*
X117522122Y-109418202D01*
X118398210Y-108542115D01*
X118402172Y-108538484D01*
X118433194Y-108512455D01*
X118453444Y-108477379D01*
X118456328Y-108472852D01*
X118479554Y-108439684D01*
X118479554Y-108439681D01*
X118481819Y-108434824D01*
X118488747Y-108418099D01*
X118490587Y-108413046D01*
X118490588Y-108413045D01*
X118497621Y-108373150D01*
X118498777Y-108367937D01*
X118509263Y-108328807D01*
X118508771Y-108323189D01*
X118522535Y-108254692D01*
X118566326Y-108207387D01*
X118684772Y-108132964D01*
X118812964Y-108004772D01*
X118909416Y-107851268D01*
X118969293Y-107680151D01*
X118969927Y-107674526D01*
X118989591Y-107500003D01*
X118989591Y-107499996D01*
X118969294Y-107319854D01*
X118969293Y-107319852D01*
X118969293Y-107319849D01*
X118909416Y-107148732D01*
X118812964Y-106995228D01*
X118684772Y-106867036D01*
X118606365Y-106817770D01*
X118531267Y-106770583D01*
X118531262Y-106770581D01*
X118519718Y-106766542D01*
X118462941Y-106725821D01*
X118437193Y-106660868D01*
X118450649Y-106592307D01*
X118499035Y-106541903D01*
X118560671Y-106525500D01*
X119360829Y-106525500D01*
X119427868Y-106545185D01*
X119473623Y-106597989D01*
X119483567Y-106667147D01*
X119454542Y-106730703D01*
X119434580Y-106748314D01*
X119431448Y-106751446D01*
X119387132Y-106817769D01*
X119387131Y-106817770D01*
X119375500Y-106876247D01*
X119375500Y-108123752D01*
X119387131Y-108182229D01*
X119387132Y-108182230D01*
X119431447Y-108248552D01*
X119497769Y-108292867D01*
X119497770Y-108292868D01*
X119556247Y-108304499D01*
X119556250Y-108304500D01*
X119556252Y-108304500D01*
X120803750Y-108304500D01*
X120803751Y-108304499D01*
X120818568Y-108301552D01*
X120862229Y-108292868D01*
X120862229Y-108292867D01*
X120862231Y-108292867D01*
X120928552Y-108248552D01*
X120972867Y-108182231D01*
X120972867Y-108182229D01*
X120972868Y-108182229D01*
X120983481Y-108128869D01*
X120984500Y-108123748D01*
X120984500Y-107949500D01*
X121004185Y-107882461D01*
X121056989Y-107836706D01*
X121108500Y-107825500D01*
X121513812Y-107825500D01*
X121580851Y-107845185D01*
X121601493Y-107861819D01*
X121657863Y-107918189D01*
X121661518Y-107922178D01*
X121687541Y-107953190D01*
X121687543Y-107953191D01*
X121687545Y-107953194D01*
X121687547Y-107953195D01*
X121687548Y-107953196D01*
X121722599Y-107973433D01*
X121727162Y-107976339D01*
X121760316Y-107999554D01*
X121760319Y-107999554D01*
X121765176Y-108001820D01*
X121781933Y-108008760D01*
X121786953Y-108010587D01*
X121786955Y-108010588D01*
X121822806Y-108016909D01*
X121826808Y-108017615D01*
X121832080Y-108018783D01*
X121871193Y-108029264D01*
X121911522Y-108025735D01*
X121916924Y-108025500D01*
X125731701Y-108025500D01*
X125798740Y-108045185D01*
X125830077Y-108074014D01*
X125868332Y-108123870D01*
X125871718Y-108128282D01*
X125997159Y-108224536D01*
X126143238Y-108285044D01*
X126221619Y-108295362D01*
X126299999Y-108305682D01*
X126300000Y-108305682D01*
X126300001Y-108305682D01*
X126352253Y-108298802D01*
X126456762Y-108285044D01*
X126602841Y-108224536D01*
X126655013Y-108184502D01*
X126720182Y-108159308D01*
X126788627Y-108173346D01*
X126838617Y-108222160D01*
X126854500Y-108282878D01*
X126854500Y-115975500D01*
X126834815Y-116042539D01*
X126782011Y-116088294D01*
X126730500Y-116099500D01*
X125960247Y-116099500D01*
X125901770Y-116111131D01*
X125901769Y-116111132D01*
X125835447Y-116155447D01*
X125791132Y-116221769D01*
X125791131Y-116221770D01*
X125779500Y-116280247D01*
X125779500Y-117050500D01*
X125759815Y-117117539D01*
X125707011Y-117163294D01*
X125655500Y-117174500D01*
X123686188Y-117174500D01*
X123619149Y-117154815D01*
X123598507Y-117138181D01*
X123361819Y-116901493D01*
X123328334Y-116840170D01*
X123325500Y-116813812D01*
X123325500Y-114574500D01*
X123345185Y-114507461D01*
X123397989Y-114461706D01*
X123449500Y-114450500D01*
X124269750Y-114450500D01*
X124269751Y-114450499D01*
X124284568Y-114447552D01*
X124328229Y-114438868D01*
X124328229Y-114438867D01*
X124328231Y-114438867D01*
X124394552Y-114394552D01*
X124438867Y-114328231D01*
X124438867Y-114328229D01*
X124438868Y-114328229D01*
X124450499Y-114269752D01*
X124450500Y-114269750D01*
X124450500Y-111730249D01*
X124450499Y-111730247D01*
X124438868Y-111671770D01*
X124438867Y-111671769D01*
X124394552Y-111605447D01*
X124328230Y-111561132D01*
X124328229Y-111561131D01*
X124269752Y-111549500D01*
X124269748Y-111549500D01*
X121730252Y-111549500D01*
X121730247Y-111549500D01*
X121671770Y-111561131D01*
X121671769Y-111561132D01*
X121605447Y-111605447D01*
X121561132Y-111671769D01*
X121561131Y-111671770D01*
X121549500Y-111730247D01*
X121549500Y-114269752D01*
X121561131Y-114328229D01*
X121561132Y-114328230D01*
X121605447Y-114394552D01*
X121671769Y-114438867D01*
X121671770Y-114438868D01*
X121730247Y-114450499D01*
X121730250Y-114450500D01*
X121730252Y-114450500D01*
X122550500Y-114450500D01*
X122617539Y-114470185D01*
X122663294Y-114522989D01*
X122674500Y-114574500D01*
X122674500Y-116983078D01*
X122674264Y-116988485D01*
X122670735Y-117028808D01*
X122681212Y-117067910D01*
X122682383Y-117073190D01*
X122689411Y-117113043D01*
X122691235Y-117118055D01*
X122698197Y-117134861D01*
X122700445Y-117139681D01*
X122700446Y-117139684D01*
X122711041Y-117154815D01*
X122723655Y-117172831D01*
X122726561Y-117177392D01*
X122746806Y-117212455D01*
X122777815Y-117238475D01*
X122781805Y-117242131D01*
X123257863Y-117718189D01*
X123261518Y-117722178D01*
X123287541Y-117753190D01*
X123287543Y-117753191D01*
X123287545Y-117753194D01*
X123287547Y-117753195D01*
X123287548Y-117753196D01*
X123322599Y-117773433D01*
X123327162Y-117776339D01*
X123360316Y-117799554D01*
X123360319Y-117799554D01*
X123365176Y-117801820D01*
X123381933Y-117808760D01*
X123386953Y-117810587D01*
X123386955Y-117810588D01*
X123422806Y-117816909D01*
X123426808Y-117817615D01*
X123432080Y-117818783D01*
X123471193Y-117829264D01*
X123511522Y-117825735D01*
X123516924Y-117825500D01*
X125655500Y-117825500D01*
X125722539Y-117845185D01*
X125768294Y-117897989D01*
X125779500Y-117949500D01*
X125779500Y-118719752D01*
X125791131Y-118778229D01*
X125791132Y-118778230D01*
X125835447Y-118844552D01*
X125901769Y-118888867D01*
X125901770Y-118888868D01*
X125960247Y-118900499D01*
X125960250Y-118900500D01*
X125960252Y-118900500D01*
X128399750Y-118900500D01*
X128399751Y-118900499D01*
X128414568Y-118897552D01*
X128458229Y-118888868D01*
X128458229Y-118888867D01*
X128458231Y-118888867D01*
X128524552Y-118844552D01*
X128568867Y-118778231D01*
X128568867Y-118778229D01*
X128568868Y-118778229D01*
X128580499Y-118719752D01*
X128580500Y-118719750D01*
X128580500Y-117949500D01*
X128600185Y-117882461D01*
X128652989Y-117836706D01*
X128704500Y-117825500D01*
X129493812Y-117825500D01*
X129560851Y-117845185D01*
X129581493Y-117861819D01*
X129607493Y-117887819D01*
X129640978Y-117949142D01*
X129635994Y-118018834D01*
X129594122Y-118074767D01*
X129528658Y-118099184D01*
X129519813Y-118099500D01*
X129420742Y-118099500D01*
X129390301Y-118102354D01*
X129390300Y-118102354D01*
X129262118Y-118147206D01*
X129152850Y-118227850D01*
X129072206Y-118337118D01*
X129027353Y-118465302D01*
X129024500Y-118495731D01*
X129024500Y-119529258D01*
X129027354Y-119559698D01*
X129027354Y-119559699D01*
X129072206Y-119687881D01*
X129072207Y-119687882D01*
X129152850Y-119797150D01*
X129262118Y-119877793D01*
X129390302Y-119922646D01*
X129390301Y-119922646D01*
X129394271Y-119923018D01*
X129420735Y-119925500D01*
X130779264Y-119925499D01*
X130809698Y-119922646D01*
X130937882Y-119877793D01*
X131047150Y-119797150D01*
X131127793Y-119687882D01*
X131172646Y-119559698D01*
X131175500Y-119529265D01*
X131175499Y-118495736D01*
X131172646Y-118465302D01*
X131127793Y-118337118D01*
X131047150Y-118227850D01*
X130956750Y-118161132D01*
X130937881Y-118147206D01*
X130809695Y-118102353D01*
X130809698Y-118102353D01*
X130779269Y-118099500D01*
X130779265Y-118099500D01*
X130549500Y-118099500D01*
X130482461Y-118079815D01*
X130436706Y-118027011D01*
X130425500Y-117975500D01*
X130425500Y-117936920D01*
X130425736Y-117931513D01*
X130427271Y-117913976D01*
X130429264Y-117891193D01*
X130418782Y-117852076D01*
X130417616Y-117846818D01*
X130410588Y-117806955D01*
X130410586Y-117806952D01*
X130410586Y-117806950D01*
X130408760Y-117801933D01*
X130401820Y-117785176D01*
X130399554Y-117780319D01*
X130399554Y-117780316D01*
X130394734Y-117773433D01*
X130380560Y-117753190D01*
X130376339Y-117747162D01*
X130373433Y-117742599D01*
X130353196Y-117707548D01*
X130353195Y-117707547D01*
X130353194Y-117707545D01*
X130322177Y-117681518D01*
X130318193Y-117677867D01*
X130122287Y-117481961D01*
X129922119Y-117281793D01*
X129918474Y-117277814D01*
X129892456Y-117246807D01*
X129892455Y-117246806D01*
X129878026Y-117238475D01*
X129857392Y-117226561D01*
X129852831Y-117223655D01*
X129836835Y-117212455D01*
X129819684Y-117200446D01*
X129819681Y-117200445D01*
X129814861Y-117198197D01*
X129798055Y-117191235D01*
X129793043Y-117189411D01*
X129753190Y-117182383D01*
X129747910Y-117181212D01*
X129708808Y-117170735D01*
X129673892Y-117173790D01*
X129668481Y-117174264D01*
X129663078Y-117174500D01*
X128704500Y-117174500D01*
X128637461Y-117154815D01*
X128591706Y-117102011D01*
X128580500Y-117050500D01*
X128580500Y-116280249D01*
X128580499Y-116280247D01*
X128568868Y-116221770D01*
X128568867Y-116221769D01*
X128524552Y-116155447D01*
X128458230Y-116111132D01*
X128458229Y-116111131D01*
X128399752Y-116099500D01*
X128399748Y-116099500D01*
X127629500Y-116099500D01*
X127562461Y-116079815D01*
X127516706Y-116027011D01*
X127505500Y-115975500D01*
X127505500Y-108328656D01*
X127525185Y-108261617D01*
X127577989Y-108215862D01*
X127647147Y-108205918D01*
X127691499Y-108221268D01*
X127697155Y-108224533D01*
X127697159Y-108224536D01*
X127843238Y-108285044D01*
X127921619Y-108295362D01*
X127999999Y-108305682D01*
X128000000Y-108305682D01*
X128000001Y-108305682D01*
X128052254Y-108298802D01*
X128156762Y-108285044D01*
X128302841Y-108224536D01*
X128428282Y-108128282D01*
X128469923Y-108074013D01*
X128526351Y-108032811D01*
X128568299Y-108025500D01*
X130713812Y-108025500D01*
X130780851Y-108045185D01*
X130801493Y-108061819D01*
X130938180Y-108198506D01*
X130971665Y-108259829D01*
X130974499Y-108286187D01*
X130974499Y-116983081D01*
X130974263Y-116988487D01*
X130970735Y-117028808D01*
X130981212Y-117067909D01*
X130982383Y-117073189D01*
X130989411Y-117113043D01*
X130991235Y-117118055D01*
X130998197Y-117134861D01*
X131000445Y-117139681D01*
X131000446Y-117139684D01*
X131011041Y-117154815D01*
X131023655Y-117172831D01*
X131026561Y-117177392D01*
X131046806Y-117212455D01*
X131077815Y-117238475D01*
X131081805Y-117242131D01*
X133518180Y-119678506D01*
X133551665Y-119739829D01*
X133554499Y-119766187D01*
X133554499Y-121165205D01*
X133534814Y-121232244D01*
X133488953Y-121274563D01*
X133321463Y-121364088D01*
X133321460Y-121364090D01*
X133169116Y-121489116D01*
X133044090Y-121641460D01*
X133044086Y-121641467D01*
X132951188Y-121815266D01*
X132893975Y-122003870D01*
X132874659Y-122200000D01*
X132893975Y-122396129D01*
X132896503Y-122404461D01*
X132950332Y-122581913D01*
X132951188Y-122584733D01*
X133044086Y-122758532D01*
X133044090Y-122758539D01*
X133169116Y-122910883D01*
X133321460Y-123035909D01*
X133321467Y-123035913D01*
X133495266Y-123128811D01*
X133495269Y-123128811D01*
X133495273Y-123128814D01*
X133683868Y-123186024D01*
X133880000Y-123205341D01*
X134076132Y-123186024D01*
X134264727Y-123128814D01*
X134267811Y-123127166D01*
X134405622Y-123053504D01*
X134438538Y-123035910D01*
X134590883Y-122910883D01*
X134715910Y-122758538D01*
X134767040Y-122662881D01*
X134808811Y-122584733D01*
X134808811Y-122584732D01*
X134808814Y-122584727D01*
X134866024Y-122396132D01*
X134885341Y-122200000D01*
X134866024Y-122003868D01*
X134808814Y-121815273D01*
X134808811Y-121815269D01*
X134808811Y-121815266D01*
X134715913Y-121641467D01*
X134715909Y-121641460D01*
X134590883Y-121489116D01*
X134438539Y-121364090D01*
X134438532Y-121364085D01*
X134271047Y-121274563D01*
X134221202Y-121225601D01*
X134205500Y-121165205D01*
X134205500Y-119596920D01*
X134205736Y-119591513D01*
X134206586Y-119581805D01*
X134209264Y-119551193D01*
X134198782Y-119512076D01*
X134197616Y-119506818D01*
X134190588Y-119466955D01*
X134190586Y-119466952D01*
X134190586Y-119466950D01*
X134188760Y-119461933D01*
X134181820Y-119445176D01*
X134179554Y-119440319D01*
X134179554Y-119440316D01*
X134156339Y-119407162D01*
X134153433Y-119402599D01*
X134133196Y-119367548D01*
X134133195Y-119367547D01*
X134133194Y-119367545D01*
X134102177Y-119341518D01*
X134098193Y-119337867D01*
X131661819Y-116901493D01*
X131628334Y-116840170D01*
X131625500Y-116813812D01*
X131625500Y-115346141D01*
X131645185Y-115279102D01*
X131697989Y-115233347D01*
X131767147Y-115223403D01*
X131830703Y-115252428D01*
X131866021Y-115303729D01*
X131871235Y-115318055D01*
X131878197Y-115334861D01*
X131880445Y-115339681D01*
X131880446Y-115339684D01*
X131888818Y-115351640D01*
X131903655Y-115372831D01*
X131906561Y-115377392D01*
X131926806Y-115412455D01*
X131957815Y-115438475D01*
X131961805Y-115442131D01*
X132437863Y-115918189D01*
X132441518Y-115922178D01*
X132467541Y-115953190D01*
X132467543Y-115953191D01*
X132467545Y-115953194D01*
X132467547Y-115953195D01*
X132467548Y-115953196D01*
X132502599Y-115973433D01*
X132507160Y-115976338D01*
X132540316Y-115999554D01*
X132540319Y-115999554D01*
X132545176Y-116001820D01*
X132561933Y-116008760D01*
X132566953Y-116010587D01*
X132566955Y-116010588D01*
X132602806Y-116016909D01*
X132606808Y-116017615D01*
X132612080Y-116018783D01*
X132651193Y-116029264D01*
X132691522Y-116025735D01*
X132696924Y-116025500D01*
X132855205Y-116025500D01*
X132922244Y-116045185D01*
X132964563Y-116091047D01*
X133054085Y-116258532D01*
X133054090Y-116258539D01*
X133179116Y-116410883D01*
X133331460Y-116535909D01*
X133331467Y-116535913D01*
X133498953Y-116625436D01*
X133548797Y-116674398D01*
X133564500Y-116734794D01*
X133564500Y-118193078D01*
X133564264Y-118198485D01*
X133560735Y-118238808D01*
X133571212Y-118277910D01*
X133572383Y-118283190D01*
X133579411Y-118323043D01*
X133581235Y-118328055D01*
X133588197Y-118344861D01*
X133590445Y-118349681D01*
X133590446Y-118349684D01*
X133598461Y-118361131D01*
X133613655Y-118382831D01*
X133616561Y-118387392D01*
X133636806Y-118422455D01*
X133667815Y-118448475D01*
X133671805Y-118452131D01*
X134337868Y-119118195D01*
X134341523Y-119122184D01*
X134367541Y-119153190D01*
X134367543Y-119153191D01*
X134367545Y-119153194D01*
X134402605Y-119173435D01*
X134407160Y-119176338D01*
X134438693Y-119198418D01*
X134440316Y-119199554D01*
X134440319Y-119199554D01*
X134445176Y-119201820D01*
X134461933Y-119208760D01*
X134466953Y-119210587D01*
X134466955Y-119210588D01*
X134506830Y-119217618D01*
X134512087Y-119218784D01*
X134551193Y-119229263D01*
X134591510Y-119225735D01*
X134596912Y-119225500D01*
X135465205Y-119225500D01*
X135532244Y-119245185D01*
X135574563Y-119291047D01*
X135664085Y-119458532D01*
X135664090Y-119458539D01*
X135789116Y-119610883D01*
X135941460Y-119735909D01*
X135941467Y-119735913D01*
X136115266Y-119828811D01*
X136115269Y-119828811D01*
X136115273Y-119828814D01*
X136303868Y-119886024D01*
X136500000Y-119905341D01*
X136696132Y-119886024D01*
X136884727Y-119828814D01*
X137058538Y-119735910D01*
X137210883Y-119610883D01*
X137335910Y-119458538D01*
X137335910Y-119458536D01*
X137335914Y-119458532D01*
X137425437Y-119291047D01*
X137474399Y-119241202D01*
X137534795Y-119225500D01*
X138813812Y-119225500D01*
X138880851Y-119245185D01*
X138901493Y-119261819D01*
X140357863Y-120718189D01*
X140361518Y-120722178D01*
X140387541Y-120753190D01*
X140387543Y-120753191D01*
X140387545Y-120753194D01*
X140387547Y-120753195D01*
X140387548Y-120753196D01*
X140422599Y-120773433D01*
X140427162Y-120776339D01*
X140460316Y-120799554D01*
X140460319Y-120799554D01*
X140465176Y-120801820D01*
X140481933Y-120808760D01*
X140486953Y-120810587D01*
X140486955Y-120810588D01*
X140522806Y-120816909D01*
X140526808Y-120817615D01*
X140532080Y-120818783D01*
X140571193Y-120829264D01*
X140611522Y-120825735D01*
X140616924Y-120825500D01*
X142683078Y-120825500D01*
X142688481Y-120825735D01*
X142728807Y-120829264D01*
X142767940Y-120818777D01*
X142773162Y-120817619D01*
X142813045Y-120810588D01*
X142813050Y-120810584D01*
X142818099Y-120808747D01*
X142834824Y-120801819D01*
X142839681Y-120799554D01*
X142839684Y-120799554D01*
X142872841Y-120776335D01*
X142877390Y-120773438D01*
X142912455Y-120753194D01*
X142912459Y-120753190D01*
X142932358Y-120729474D01*
X142938481Y-120722176D01*
X142942122Y-120718202D01*
X143218204Y-120442120D01*
X143222166Y-120438489D01*
X143253194Y-120412455D01*
X143273438Y-120377390D01*
X143276335Y-120372841D01*
X143299554Y-120339684D01*
X143299554Y-120339681D01*
X143301819Y-120334824D01*
X143308747Y-120318099D01*
X143310584Y-120313050D01*
X143310588Y-120313045D01*
X143317619Y-120273162D01*
X143318777Y-120267940D01*
X143329264Y-120228807D01*
X143325735Y-120188481D01*
X143325500Y-120183078D01*
X143325500Y-117786187D01*
X143345185Y-117719148D01*
X143361819Y-117698506D01*
X144758507Y-116301819D01*
X144819830Y-116268334D01*
X144846188Y-116265500D01*
X147145205Y-116265500D01*
X147212244Y-116285185D01*
X147254563Y-116331047D01*
X147344085Y-116498532D01*
X147344090Y-116498539D01*
X147469116Y-116650883D01*
X147621460Y-116775909D01*
X147621467Y-116775913D01*
X147795266Y-116868811D01*
X147795269Y-116868811D01*
X147795273Y-116868814D01*
X147983868Y-116926024D01*
X148180000Y-116945341D01*
X148376132Y-116926024D01*
X148564727Y-116868814D01*
X148738538Y-116775910D01*
X148890883Y-116650883D01*
X149015910Y-116498538D01*
X149108814Y-116324727D01*
X149166024Y-116136132D01*
X149185341Y-115940000D01*
X149166024Y-115743868D01*
X149108814Y-115555273D01*
X149108811Y-115555269D01*
X149108811Y-115555266D01*
X149015913Y-115381467D01*
X149015909Y-115381460D01*
X148890883Y-115229116D01*
X148738539Y-115104090D01*
X148738532Y-115104086D01*
X148564733Y-115011188D01*
X148564727Y-115011186D01*
X148376132Y-114953976D01*
X148376129Y-114953975D01*
X148180000Y-114934659D01*
X147983870Y-114953975D01*
X147795266Y-115011188D01*
X147621467Y-115104086D01*
X147621460Y-115104090D01*
X147469116Y-115229116D01*
X147344090Y-115381460D01*
X147344085Y-115381467D01*
X147254563Y-115548953D01*
X147205601Y-115598798D01*
X147145205Y-115614500D01*
X144676923Y-115614500D01*
X144671519Y-115614264D01*
X144665618Y-115613747D01*
X144631192Y-115610735D01*
X144592090Y-115621213D01*
X144586809Y-115622384D01*
X144546955Y-115629412D01*
X144541962Y-115631229D01*
X144525117Y-115638206D01*
X144520313Y-115640446D01*
X144487166Y-115663656D01*
X144482606Y-115666562D01*
X144447548Y-115686804D01*
X144447540Y-115686810D01*
X144421523Y-115717815D01*
X144417869Y-115721804D01*
X142781803Y-117357870D01*
X142777814Y-117361525D01*
X142746805Y-117387545D01*
X142726562Y-117422606D01*
X142723656Y-117427166D01*
X142700446Y-117460313D01*
X142698206Y-117465117D01*
X142691229Y-117481961D01*
X142689410Y-117486959D01*
X142682383Y-117526811D01*
X142681212Y-117532091D01*
X142670735Y-117571191D01*
X142674264Y-117611513D01*
X142674500Y-117616920D01*
X142674500Y-118489251D01*
X142654815Y-118556290D01*
X142602011Y-118602045D01*
X142532853Y-118611989D01*
X142469297Y-118582964D01*
X142431840Y-118525248D01*
X142428813Y-118515270D01*
X142335913Y-118341467D01*
X142335909Y-118341460D01*
X142210883Y-118189116D01*
X142058539Y-118064090D01*
X142058532Y-118064085D01*
X141901047Y-117979908D01*
X141851202Y-117930946D01*
X141835500Y-117870550D01*
X141835500Y-116734794D01*
X141855185Y-116667755D01*
X141901047Y-116625436D01*
X141960335Y-116593745D01*
X142068538Y-116535910D01*
X142220883Y-116410883D01*
X142345910Y-116258538D01*
X142345910Y-116258536D01*
X142345914Y-116258532D01*
X142435437Y-116091047D01*
X142484399Y-116041202D01*
X142544795Y-116025500D01*
X142983078Y-116025500D01*
X142988481Y-116025735D01*
X143028807Y-116029264D01*
X143067940Y-116018777D01*
X143073162Y-116017619D01*
X143113045Y-116010588D01*
X143113050Y-116010584D01*
X143118099Y-116008747D01*
X143134824Y-116001819D01*
X143139681Y-115999554D01*
X143139684Y-115999554D01*
X143172841Y-115976335D01*
X143177390Y-115973438D01*
X143212455Y-115953194D01*
X143212459Y-115953190D01*
X143235050Y-115926265D01*
X143238481Y-115922176D01*
X143242122Y-115918202D01*
X145398507Y-113761819D01*
X145459831Y-113728334D01*
X145486189Y-113725500D01*
X147145205Y-113725500D01*
X147212244Y-113745185D01*
X147254563Y-113791047D01*
X147344085Y-113958532D01*
X147344090Y-113958539D01*
X147469116Y-114110883D01*
X147621460Y-114235909D01*
X147621467Y-114235913D01*
X147795266Y-114328811D01*
X147795269Y-114328811D01*
X147795273Y-114328814D01*
X147983868Y-114386024D01*
X148180000Y-114405341D01*
X148376132Y-114386024D01*
X148564727Y-114328814D01*
X148565822Y-114328229D01*
X148675232Y-114269748D01*
X148738538Y-114235910D01*
X148890883Y-114110883D01*
X149015910Y-113958538D01*
X149108814Y-113784727D01*
X149166024Y-113596132D01*
X149185341Y-113400000D01*
X149166024Y-113203868D01*
X149108814Y-113015273D01*
X149108811Y-113015269D01*
X149108811Y-113015266D01*
X149015913Y-112841467D01*
X149015909Y-112841460D01*
X148890883Y-112689116D01*
X148837557Y-112645353D01*
X148798223Y-112587608D01*
X148796352Y-112517763D01*
X148832539Y-112457995D01*
X148895295Y-112427279D01*
X148916222Y-112425500D01*
X149583078Y-112425500D01*
X149588481Y-112425735D01*
X149628807Y-112429264D01*
X149667940Y-112418777D01*
X149673162Y-112417619D01*
X149713045Y-112410588D01*
X149713050Y-112410584D01*
X149718099Y-112408747D01*
X149734824Y-112401819D01*
X149739681Y-112399554D01*
X149739684Y-112399554D01*
X149772841Y-112376335D01*
X149777390Y-112373438D01*
X149812455Y-112353194D01*
X149838481Y-112322176D01*
X149842111Y-112318213D01*
X149955491Y-112204833D01*
X150016812Y-112171351D01*
X150086504Y-112176335D01*
X150142437Y-112218207D01*
X150166854Y-112283671D01*
X150157731Y-112339969D01*
X150114957Y-112443234D01*
X150114955Y-112443239D01*
X150094318Y-112599998D01*
X150094318Y-112600001D01*
X150114955Y-112756760D01*
X150114956Y-112756762D01*
X150126539Y-112784727D01*
X150175464Y-112902841D01*
X150271718Y-113028282D01*
X150325987Y-113069924D01*
X150367189Y-113126349D01*
X150374500Y-113168298D01*
X150374500Y-118431699D01*
X150354815Y-118498738D01*
X150325988Y-118530074D01*
X150271720Y-118571715D01*
X150175463Y-118697160D01*
X150114956Y-118843237D01*
X150114955Y-118843239D01*
X150094318Y-118999998D01*
X150094318Y-119000001D01*
X150114955Y-119156760D01*
X150114957Y-119156765D01*
X150175549Y-119303048D01*
X150183018Y-119372517D01*
X150151743Y-119434996D01*
X150091654Y-119470648D01*
X150060988Y-119474500D01*
X147074500Y-119474500D01*
X147007461Y-119454815D01*
X146961706Y-119402011D01*
X146950500Y-119350500D01*
X146950500Y-118530249D01*
X146950499Y-118530247D01*
X146938868Y-118471770D01*
X146938867Y-118471769D01*
X146894552Y-118405447D01*
X146828230Y-118361132D01*
X146828229Y-118361131D01*
X146769752Y-118349500D01*
X146769748Y-118349500D01*
X144230252Y-118349500D01*
X144230247Y-118349500D01*
X144171770Y-118361131D01*
X144171769Y-118361132D01*
X144105447Y-118405447D01*
X144061132Y-118471769D01*
X144061131Y-118471770D01*
X144049500Y-118530247D01*
X144049500Y-121069752D01*
X144061131Y-121128229D01*
X144061132Y-121128230D01*
X144105447Y-121194552D01*
X144171769Y-121238867D01*
X144171770Y-121238868D01*
X144230247Y-121250499D01*
X144230250Y-121250500D01*
X144230252Y-121250500D01*
X146769750Y-121250500D01*
X146769751Y-121250499D01*
X146784568Y-121247552D01*
X146828229Y-121238868D01*
X146828229Y-121238867D01*
X146828231Y-121238867D01*
X146894552Y-121194552D01*
X146938867Y-121128231D01*
X146938867Y-121128229D01*
X146938868Y-121128229D01*
X146948987Y-121077353D01*
X146950500Y-121069748D01*
X146950500Y-120249499D01*
X146970185Y-120182461D01*
X147022989Y-120136706D01*
X147074500Y-120125500D01*
X150277236Y-120125500D01*
X150344275Y-120145185D01*
X150390030Y-120197989D01*
X150399974Y-120267147D01*
X150370949Y-120330703D01*
X150324688Y-120364061D01*
X150297161Y-120375462D01*
X150171718Y-120471718D01*
X150075463Y-120597160D01*
X150014956Y-120743237D01*
X150014955Y-120743239D01*
X149994318Y-120899998D01*
X149994318Y-120900001D01*
X150003246Y-120967818D01*
X149992480Y-121036853D01*
X149967988Y-121071684D01*
X149201493Y-121838181D01*
X149140170Y-121871666D01*
X149113812Y-121874500D01*
X142534795Y-121874500D01*
X142467756Y-121854815D01*
X142425437Y-121808953D01*
X142335914Y-121641467D01*
X142335909Y-121641460D01*
X142210883Y-121489116D01*
X142058539Y-121364090D01*
X142058532Y-121364086D01*
X141884733Y-121271188D01*
X141884727Y-121271186D01*
X141734454Y-121225601D01*
X141696129Y-121213975D01*
X141500000Y-121194659D01*
X141303870Y-121213975D01*
X141115266Y-121271188D01*
X140941467Y-121364086D01*
X140941460Y-121364090D01*
X140789116Y-121489116D01*
X140664090Y-121641460D01*
X140664086Y-121641467D01*
X140571188Y-121815266D01*
X140513975Y-122003870D01*
X140494659Y-122200000D01*
X140513975Y-122396129D01*
X140516503Y-122404461D01*
X140570332Y-122581913D01*
X140571188Y-122584733D01*
X140664086Y-122758532D01*
X140664090Y-122758539D01*
X140789116Y-122910883D01*
X140941460Y-123035909D01*
X140941467Y-123035913D01*
X141115266Y-123128811D01*
X141115269Y-123128811D01*
X141115273Y-123128814D01*
X141303868Y-123186024D01*
X141500000Y-123205341D01*
X141696132Y-123186024D01*
X141884727Y-123128814D01*
X141887811Y-123127166D01*
X142025622Y-123053504D01*
X142058538Y-123035910D01*
X142210883Y-122910883D01*
X142335910Y-122758538D01*
X142335910Y-122758536D01*
X142335914Y-122758532D01*
X142425437Y-122591047D01*
X142474399Y-122541202D01*
X142534795Y-122525500D01*
X149283078Y-122525500D01*
X149288481Y-122525735D01*
X149328807Y-122529264D01*
X149367940Y-122518777D01*
X149373162Y-122517619D01*
X149413045Y-122510588D01*
X149413050Y-122510584D01*
X149418099Y-122508747D01*
X149434824Y-122501819D01*
X149439681Y-122499554D01*
X149439684Y-122499554D01*
X149472841Y-122476335D01*
X149477390Y-122473438D01*
X149512455Y-122453194D01*
X149538481Y-122422176D01*
X149542122Y-122418202D01*
X150428315Y-121532009D01*
X150489636Y-121498526D01*
X150532180Y-121496753D01*
X150599999Y-121505682D01*
X150600000Y-121505682D01*
X150600001Y-121505682D01*
X150652253Y-121498802D01*
X150756762Y-121485044D01*
X150902841Y-121424536D01*
X151028282Y-121328282D01*
X151124536Y-121202841D01*
X151185044Y-121056762D01*
X151201965Y-120928231D01*
X151205682Y-120900001D01*
X151205682Y-120899998D01*
X151186355Y-120753194D01*
X151185044Y-120743238D01*
X151124536Y-120597159D01*
X151028282Y-120471718D01*
X150902841Y-120375464D01*
X150902840Y-120375463D01*
X150902838Y-120375462D01*
X150875312Y-120364061D01*
X150820908Y-120320221D01*
X150798843Y-120253926D01*
X150816122Y-120186227D01*
X150867259Y-120138616D01*
X150922764Y-120125500D01*
X153197260Y-120125500D01*
X153264299Y-120145185D01*
X153310054Y-120197989D01*
X153319998Y-120267147D01*
X153309256Y-120299418D01*
X153309746Y-120299601D01*
X153256403Y-120442620D01*
X153256401Y-120442627D01*
X153250000Y-120502155D01*
X153250000Y-121550000D01*
X154286342Y-121550000D01*
X154353381Y-121569685D01*
X154399136Y-121622489D01*
X154409280Y-121690183D01*
X154394823Y-121800000D01*
X154409280Y-121909816D01*
X154398516Y-121978849D01*
X154352136Y-122031105D01*
X154286342Y-122050000D01*
X153250000Y-122050000D01*
X153250000Y-123097844D01*
X153256401Y-123157372D01*
X153256403Y-123157379D01*
X153306645Y-123292086D01*
X153306649Y-123292093D01*
X153392809Y-123407187D01*
X153392812Y-123407190D01*
X153507906Y-123493350D01*
X153507913Y-123493354D01*
X153642620Y-123543596D01*
X153642627Y-123543598D01*
X153702155Y-123549999D01*
X153702172Y-123550000D01*
X154750000Y-123550000D01*
X154750000Y-122513658D01*
X154769685Y-122446619D01*
X154822489Y-122400864D01*
X154890184Y-122390719D01*
X154960677Y-122400000D01*
X154960684Y-122400000D01*
X155039316Y-122400000D01*
X155039323Y-122400000D01*
X155109815Y-122390719D01*
X155178849Y-122401484D01*
X155231105Y-122447864D01*
X155250000Y-122513658D01*
X155250000Y-123550000D01*
X156297828Y-123550000D01*
X156297844Y-123549999D01*
X156357372Y-123543598D01*
X156357379Y-123543596D01*
X156492086Y-123493354D01*
X156492093Y-123493350D01*
X156607187Y-123407190D01*
X156607190Y-123407187D01*
X156693350Y-123292093D01*
X156693354Y-123292086D01*
X156743596Y-123157379D01*
X156743598Y-123157372D01*
X156749999Y-123097844D01*
X156750000Y-123097827D01*
X156750000Y-122050000D01*
X155713658Y-122050000D01*
X155646619Y-122030315D01*
X155600864Y-121977511D01*
X155590719Y-121909816D01*
X155605177Y-121800000D01*
X155590719Y-121690183D01*
X155601484Y-121621151D01*
X155647864Y-121568895D01*
X155713658Y-121550000D01*
X156750000Y-121550000D01*
X156750000Y-120502172D01*
X156749999Y-120502155D01*
X156743598Y-120442627D01*
X156743596Y-120442620D01*
X156690254Y-120299601D01*
X156691757Y-120299040D01*
X156679056Y-120240659D01*
X156703470Y-120175194D01*
X156759401Y-120133320D01*
X156802740Y-120125500D01*
X159013812Y-120125500D01*
X159080851Y-120145185D01*
X159101493Y-120161819D01*
X159838181Y-120898507D01*
X159871666Y-120959830D01*
X159874500Y-120986188D01*
X159874500Y-125383078D01*
X159874264Y-125388485D01*
X159870735Y-125428808D01*
X159881212Y-125467910D01*
X159882383Y-125473190D01*
X159889411Y-125513043D01*
X159891235Y-125518055D01*
X159898197Y-125534861D01*
X159900445Y-125539681D01*
X159900446Y-125539684D01*
X159914452Y-125559687D01*
X159923655Y-125572831D01*
X159926561Y-125577392D01*
X159946806Y-125612455D01*
X159977815Y-125638475D01*
X159981805Y-125642131D01*
X160857868Y-126518195D01*
X160861523Y-126522184D01*
X160887541Y-126553190D01*
X160887543Y-126553191D01*
X160887545Y-126553194D01*
X160922599Y-126573432D01*
X160927159Y-126576337D01*
X160960316Y-126599554D01*
X160960319Y-126599554D01*
X160965176Y-126601820D01*
X160981933Y-126608760D01*
X160986953Y-126610587D01*
X160986955Y-126610588D01*
X161026830Y-126617618D01*
X161032087Y-126618784D01*
X161071193Y-126629263D01*
X161111510Y-126625735D01*
X161116912Y-126625500D01*
X164583078Y-126625500D01*
X164588481Y-126625735D01*
X164628807Y-126629264D01*
X164667940Y-126618777D01*
X164673162Y-126617619D01*
X164713045Y-126610588D01*
X164713050Y-126610584D01*
X164718099Y-126608747D01*
X164734824Y-126601819D01*
X164739681Y-126599554D01*
X164739684Y-126599554D01*
X164772841Y-126576335D01*
X164777390Y-126573438D01*
X164812455Y-126553194D01*
X164812459Y-126553190D01*
X164823537Y-126539986D01*
X164838481Y-126522176D01*
X164842122Y-126518202D01*
X166660325Y-124700000D01*
X169194659Y-124700000D01*
X169213975Y-124896129D01*
X169213976Y-124896132D01*
X169248695Y-125010586D01*
X169271188Y-125084733D01*
X169364086Y-125258532D01*
X169364090Y-125258539D01*
X169489116Y-125410883D01*
X169641460Y-125535909D01*
X169641467Y-125535913D01*
X169815266Y-125628811D01*
X169815269Y-125628811D01*
X169815273Y-125628814D01*
X170003868Y-125686024D01*
X170200000Y-125705341D01*
X170396132Y-125686024D01*
X170584727Y-125628814D01*
X170758538Y-125535910D01*
X170910883Y-125410883D01*
X171035910Y-125258538D01*
X171035910Y-125258536D01*
X171035914Y-125258532D01*
X171125437Y-125091047D01*
X171174399Y-125041202D01*
X171234795Y-125025500D01*
X172483078Y-125025500D01*
X172488481Y-125025735D01*
X172528807Y-125029264D01*
X172567940Y-125018777D01*
X172573162Y-125017619D01*
X172613045Y-125010588D01*
X172613050Y-125010584D01*
X172618099Y-125008747D01*
X172634824Y-125001819D01*
X172639681Y-124999554D01*
X172639684Y-124999554D01*
X172672841Y-124976335D01*
X172677390Y-124973438D01*
X172712455Y-124953194D01*
X172738481Y-124922176D01*
X172742122Y-124918202D01*
X172918204Y-124742120D01*
X172922166Y-124738489D01*
X172953194Y-124712455D01*
X172973438Y-124677390D01*
X172976335Y-124672841D01*
X172999554Y-124639684D01*
X172999554Y-124639681D01*
X173001819Y-124634824D01*
X173008747Y-124618099D01*
X173010584Y-124613050D01*
X173010588Y-124613045D01*
X173017619Y-124573162D01*
X173018777Y-124567940D01*
X173029264Y-124528807D01*
X173025735Y-124488478D01*
X173025500Y-124483075D01*
X173025500Y-123486188D01*
X173045185Y-123419149D01*
X173061820Y-123398506D01*
X173098509Y-123361818D01*
X173159833Y-123328333D01*
X173186189Y-123325500D01*
X174855917Y-123325500D01*
X174922956Y-123345185D01*
X174966917Y-123394229D01*
X175060325Y-123581819D01*
X175183237Y-123744581D01*
X175333958Y-123881980D01*
X175333960Y-123881982D01*
X175428007Y-123940213D01*
X175507363Y-123989348D01*
X175697544Y-124063024D01*
X175898024Y-124100500D01*
X175898026Y-124100500D01*
X176101974Y-124100500D01*
X176101976Y-124100500D01*
X176302456Y-124063024D01*
X176492637Y-123989348D01*
X176666041Y-123881981D01*
X176816764Y-123744579D01*
X176917046Y-123611783D01*
X176973155Y-123570148D01*
X177042867Y-123565457D01*
X177104049Y-123599199D01*
X177137276Y-123660662D01*
X177140000Y-123686511D01*
X177140000Y-123947844D01*
X177146401Y-124007372D01*
X177146403Y-124007379D01*
X177196645Y-124142086D01*
X177196649Y-124142093D01*
X177282809Y-124257187D01*
X177282812Y-124257190D01*
X177397906Y-124343350D01*
X177397913Y-124343354D01*
X177532620Y-124393596D01*
X177532627Y-124393598D01*
X177592155Y-124399999D01*
X177592172Y-124400000D01*
X178290000Y-124400000D01*
X178290000Y-123561821D01*
X178309685Y-123494782D01*
X178362489Y-123449027D01*
X178431647Y-123439083D01*
X178450547Y-123443329D01*
X178472173Y-123450000D01*
X178573723Y-123450000D01*
X178573724Y-123450000D01*
X178647519Y-123438877D01*
X178716742Y-123448350D01*
X178769857Y-123493744D01*
X178789997Y-123560648D01*
X178790000Y-123561492D01*
X178790000Y-124400000D01*
X179487828Y-124400000D01*
X179487844Y-124399999D01*
X179547372Y-124393598D01*
X179547379Y-124393596D01*
X179682086Y-124343354D01*
X179682093Y-124343350D01*
X179797187Y-124257190D01*
X179797190Y-124257187D01*
X179883350Y-124142093D01*
X179883354Y-124142086D01*
X179933596Y-124007379D01*
X179933598Y-124007372D01*
X179939999Y-123947844D01*
X179940000Y-123947827D01*
X179940000Y-123250000D01*
X179100003Y-123250000D01*
X179032964Y-123230315D01*
X178987209Y-123177511D01*
X178977265Y-123108353D01*
X178979112Y-123098408D01*
X178993376Y-123035909D01*
X178993810Y-123034008D01*
X178993097Y-123024497D01*
X178982979Y-122889468D01*
X178985079Y-122889310D01*
X178988595Y-122831861D01*
X179029890Y-122775501D01*
X179095101Y-122750413D01*
X179105216Y-122750000D01*
X179940000Y-122750000D01*
X179940000Y-122052172D01*
X179939999Y-122052155D01*
X179933598Y-121992627D01*
X179933596Y-121992620D01*
X179883354Y-121857913D01*
X179883350Y-121857906D01*
X179797190Y-121742812D01*
X179797187Y-121742809D01*
X179682093Y-121656649D01*
X179682086Y-121656645D01*
X179547379Y-121606403D01*
X179547372Y-121606401D01*
X179487844Y-121600000D01*
X178790000Y-121600000D01*
X178790000Y-122438178D01*
X178770315Y-122505217D01*
X178717511Y-122550972D01*
X178648353Y-122560916D01*
X178629454Y-122556670D01*
X178607829Y-122550000D01*
X178607827Y-122550000D01*
X178506276Y-122550000D01*
X178506268Y-122550000D01*
X178432481Y-122561122D01*
X178363256Y-122551649D01*
X178310143Y-122506254D01*
X178290003Y-122439350D01*
X178290000Y-122438507D01*
X178290000Y-121600000D01*
X177592155Y-121600000D01*
X177532627Y-121606401D01*
X177532620Y-121606403D01*
X177397913Y-121656645D01*
X177397906Y-121656649D01*
X177282812Y-121742809D01*
X177282809Y-121742812D01*
X177196649Y-121857906D01*
X177196645Y-121857913D01*
X177146403Y-121992620D01*
X177146401Y-121992627D01*
X177140000Y-122052155D01*
X177140000Y-122313488D01*
X177120315Y-122380527D01*
X177067511Y-122426282D01*
X176998353Y-122436226D01*
X176934797Y-122407201D01*
X176917046Y-122388215D01*
X176816784Y-122255448D01*
X176816764Y-122255421D01*
X176666041Y-122118019D01*
X176666039Y-122118017D01*
X176492642Y-122010655D01*
X176492635Y-122010651D01*
X176397546Y-121973814D01*
X176302456Y-121936976D01*
X176101976Y-121899500D01*
X175898024Y-121899500D01*
X175697544Y-121936976D01*
X175697541Y-121936976D01*
X175697541Y-121936977D01*
X175507364Y-122010651D01*
X175507357Y-122010655D01*
X175333960Y-122118017D01*
X175333958Y-122118019D01*
X175183237Y-122255418D01*
X175060325Y-122418180D01*
X174966917Y-122605771D01*
X174919414Y-122657009D01*
X174855917Y-122674500D01*
X173016922Y-122674500D01*
X173011518Y-122674264D01*
X173006107Y-122673790D01*
X172971192Y-122670735D01*
X172971191Y-122670735D01*
X172932091Y-122681212D01*
X172926811Y-122682383D01*
X172886959Y-122689410D01*
X172881961Y-122691229D01*
X172865117Y-122698206D01*
X172860313Y-122700446D01*
X172827166Y-122723656D01*
X172822606Y-122726562D01*
X172787548Y-122746804D01*
X172787540Y-122746810D01*
X172761523Y-122777815D01*
X172757869Y-122781804D01*
X172481803Y-123057870D01*
X172477814Y-123061525D01*
X172446805Y-123087545D01*
X172426562Y-123122606D01*
X172423656Y-123127166D01*
X172400446Y-123160313D01*
X172398206Y-123165117D01*
X172391229Y-123181961D01*
X172389412Y-123186955D01*
X172382384Y-123226807D01*
X172381213Y-123232088D01*
X172370735Y-123271192D01*
X172374264Y-123311513D01*
X172374500Y-123316920D01*
X172374500Y-124250500D01*
X172354815Y-124317539D01*
X172302011Y-124363294D01*
X172250500Y-124374500D01*
X171234795Y-124374500D01*
X171167756Y-124354815D01*
X171125437Y-124308953D01*
X171035914Y-124141467D01*
X171035909Y-124141460D01*
X170910883Y-123989116D01*
X170758539Y-123864090D01*
X170758532Y-123864086D01*
X170584733Y-123771188D01*
X170584727Y-123771186D01*
X170423190Y-123722184D01*
X170396129Y-123713975D01*
X170200000Y-123694659D01*
X170003870Y-123713975D01*
X169815266Y-123771188D01*
X169641467Y-123864086D01*
X169641460Y-123864090D01*
X169489116Y-123989116D01*
X169364090Y-124141460D01*
X169364086Y-124141467D01*
X169271188Y-124315266D01*
X169213975Y-124503870D01*
X169194659Y-124700000D01*
X166660325Y-124700000D01*
X168098506Y-123261819D01*
X168159830Y-123228334D01*
X168186188Y-123225500D01*
X171383078Y-123225500D01*
X171388481Y-123225735D01*
X171428807Y-123229264D01*
X171467940Y-123218777D01*
X171473162Y-123217619D01*
X171513045Y-123210588D01*
X171513050Y-123210584D01*
X171518099Y-123208747D01*
X171534824Y-123201819D01*
X171539681Y-123199554D01*
X171539684Y-123199554D01*
X171572841Y-123176335D01*
X171577390Y-123173438D01*
X171612455Y-123153194D01*
X171638481Y-123122176D01*
X171642122Y-123118202D01*
X172118204Y-122642120D01*
X172122166Y-122638489D01*
X172153194Y-122612455D01*
X172173438Y-122577390D01*
X172176335Y-122572841D01*
X172199554Y-122539684D01*
X172199554Y-122539681D01*
X172201819Y-122534824D01*
X172208747Y-122518099D01*
X172210584Y-122513050D01*
X172210588Y-122513045D01*
X172217619Y-122473162D01*
X172218777Y-122467940D01*
X172229264Y-122428807D01*
X172225735Y-122388478D01*
X172225500Y-122383075D01*
X172225500Y-120869752D01*
X181749500Y-120869752D01*
X181761131Y-120928229D01*
X181761132Y-120928230D01*
X181805447Y-120994552D01*
X181871769Y-121038867D01*
X181871770Y-121038868D01*
X181930247Y-121050499D01*
X181930250Y-121050500D01*
X181930252Y-121050500D01*
X184469750Y-121050500D01*
X184469751Y-121050499D01*
X184484568Y-121047552D01*
X184528229Y-121038868D01*
X184528229Y-121038867D01*
X184528231Y-121038867D01*
X184594552Y-120994552D01*
X184638867Y-120928231D01*
X184638867Y-120928229D01*
X184638868Y-120928229D01*
X184650499Y-120869752D01*
X184650500Y-120869750D01*
X184650500Y-118330249D01*
X184650499Y-118330247D01*
X184638868Y-118271770D01*
X184638867Y-118271769D01*
X184594552Y-118205447D01*
X184528230Y-118161132D01*
X184528229Y-118161131D01*
X184469752Y-118149500D01*
X184469748Y-118149500D01*
X181930252Y-118149500D01*
X181930247Y-118149500D01*
X181871770Y-118161131D01*
X181871769Y-118161132D01*
X181805447Y-118205447D01*
X181761132Y-118271769D01*
X181761131Y-118271770D01*
X181749500Y-118330247D01*
X181749500Y-120869752D01*
X172225500Y-120869752D01*
X172225500Y-111080000D01*
X175674778Y-111080000D01*
X175692265Y-111346806D01*
X175693644Y-111367837D01*
X175693646Y-111367849D01*
X175749917Y-111650745D01*
X175749921Y-111650760D01*
X175842642Y-111923905D01*
X175970219Y-112182606D01*
X175970223Y-112182613D01*
X176130478Y-112422452D01*
X176320672Y-112639327D01*
X176537547Y-112829521D01*
X176777386Y-112989776D01*
X176777389Y-112989778D01*
X177036098Y-113117359D01*
X177309247Y-113210081D01*
X177592161Y-113266356D01*
X177880000Y-113285222D01*
X178167839Y-113266356D01*
X178450753Y-113210081D01*
X178723902Y-113117359D01*
X178982611Y-112989778D01*
X179222454Y-112829520D01*
X179439327Y-112639327D01*
X179629520Y-112422454D01*
X179789778Y-112182611D01*
X179917359Y-111923902D01*
X180010081Y-111650753D01*
X180066356Y-111367839D01*
X180085222Y-111080000D01*
X180066356Y-110792161D01*
X180010081Y-110509247D01*
X179917359Y-110236098D01*
X179815138Y-110028814D01*
X179789780Y-109977393D01*
X179789776Y-109977386D01*
X179629521Y-109737547D01*
X179439327Y-109520672D01*
X179222452Y-109330478D01*
X178982613Y-109170223D01*
X178982606Y-109170219D01*
X178723905Y-109042642D01*
X178450760Y-108949921D01*
X178450754Y-108949919D01*
X178450753Y-108949919D01*
X178450751Y-108949918D01*
X178450745Y-108949917D01*
X178167849Y-108893646D01*
X178167839Y-108893644D01*
X177880000Y-108874778D01*
X177592161Y-108893644D01*
X177592155Y-108893645D01*
X177592150Y-108893646D01*
X177309254Y-108949917D01*
X177309239Y-108949921D01*
X177036094Y-109042642D01*
X176777393Y-109170219D01*
X176777386Y-109170223D01*
X176537547Y-109330478D01*
X176320672Y-109520672D01*
X176130478Y-109737547D01*
X175970223Y-109977386D01*
X175970219Y-109977393D01*
X175842642Y-110236094D01*
X175749921Y-110509239D01*
X175749917Y-110509254D01*
X175700685Y-110756762D01*
X175693644Y-110792161D01*
X175688722Y-110867259D01*
X175675279Y-111072363D01*
X175674778Y-111080000D01*
X172225500Y-111080000D01*
X172225500Y-110086187D01*
X172245185Y-110019148D01*
X172261819Y-109998506D01*
X175898507Y-106361819D01*
X175959830Y-106328334D01*
X175986188Y-106325500D01*
X181835900Y-106325500D01*
X181902939Y-106345185D01*
X181948694Y-106397989D01*
X181958132Y-106435447D01*
X181958971Y-106435337D01*
X181974953Y-106556753D01*
X181974956Y-106556762D01*
X181999455Y-106615909D01*
X182035464Y-106702841D01*
X182131718Y-106828282D01*
X182257159Y-106924536D01*
X182403238Y-106985044D01*
X182520639Y-107000500D01*
X183399360Y-107000499D01*
X183399363Y-107000499D01*
X183516753Y-106985046D01*
X183516757Y-106985044D01*
X183516762Y-106985044D01*
X183662841Y-106924536D01*
X183788282Y-106828282D01*
X183884536Y-106702841D01*
X183945044Y-106556762D01*
X183960500Y-106439361D01*
X183960499Y-106000000D01*
X184494659Y-106000000D01*
X184513975Y-106196129D01*
X184513976Y-106196132D01*
X184548695Y-106310586D01*
X184571188Y-106384733D01*
X184664086Y-106558532D01*
X184664090Y-106558539D01*
X184789116Y-106710883D01*
X184941460Y-106835909D01*
X184941467Y-106835913D01*
X185115266Y-106928811D01*
X185115269Y-106928811D01*
X185115273Y-106928814D01*
X185303868Y-106986024D01*
X185500000Y-107005341D01*
X185696132Y-106986024D01*
X185884727Y-106928814D01*
X185918826Y-106910588D01*
X186026204Y-106853193D01*
X186058538Y-106835910D01*
X186210883Y-106710883D01*
X186335910Y-106558538D01*
X186399610Y-106439363D01*
X186428811Y-106384733D01*
X186428811Y-106384732D01*
X186428814Y-106384727D01*
X186486024Y-106196132D01*
X186505341Y-106000000D01*
X186486024Y-105803868D01*
X186428814Y-105615273D01*
X186428811Y-105615269D01*
X186428811Y-105615266D01*
X186335913Y-105441467D01*
X186335909Y-105441460D01*
X186210883Y-105289116D01*
X186058539Y-105164090D01*
X186058532Y-105164086D01*
X185884733Y-105071188D01*
X185884727Y-105071186D01*
X185699363Y-105014956D01*
X185696129Y-105013975D01*
X185500000Y-104994659D01*
X185303870Y-105013975D01*
X185115266Y-105071188D01*
X184941467Y-105164086D01*
X184941460Y-105164090D01*
X184789116Y-105289116D01*
X184664090Y-105441460D01*
X184664086Y-105441467D01*
X184571188Y-105615266D01*
X184513975Y-105803870D01*
X184494659Y-106000000D01*
X183960499Y-106000000D01*
X183960499Y-105560640D01*
X183960499Y-105560638D01*
X183960499Y-105560636D01*
X183945046Y-105443246D01*
X183945044Y-105443239D01*
X183945044Y-105443238D01*
X183884536Y-105297159D01*
X183788282Y-105171718D01*
X183662841Y-105075464D01*
X183516762Y-105014956D01*
X183516760Y-105014955D01*
X183399361Y-104999500D01*
X182520636Y-104999500D01*
X182403246Y-105014953D01*
X182403237Y-105014956D01*
X182257160Y-105075463D01*
X182131718Y-105171718D01*
X182035463Y-105297160D01*
X181974956Y-105443237D01*
X181974955Y-105443239D01*
X181958970Y-105564663D01*
X181957494Y-105564468D01*
X181935588Y-105624242D01*
X181879895Y-105666432D01*
X181835898Y-105674500D01*
X175816922Y-105674500D01*
X175811518Y-105674264D01*
X175806107Y-105673790D01*
X175771192Y-105670735D01*
X175771191Y-105670735D01*
X175732091Y-105681212D01*
X175726811Y-105682383D01*
X175686959Y-105689410D01*
X175681961Y-105691229D01*
X175665117Y-105698206D01*
X175660313Y-105700446D01*
X175627166Y-105723656D01*
X175622606Y-105726562D01*
X175587548Y-105746804D01*
X175587540Y-105746810D01*
X175561523Y-105777815D01*
X175557869Y-105781804D01*
X171681803Y-109657870D01*
X171677814Y-109661525D01*
X171646805Y-109687545D01*
X171626562Y-109722606D01*
X171623656Y-109727166D01*
X171600446Y-109760313D01*
X171598206Y-109765117D01*
X171591229Y-109781961D01*
X171589410Y-109786959D01*
X171582383Y-109826811D01*
X171581212Y-109832091D01*
X171570735Y-109871191D01*
X171574264Y-109911513D01*
X171574500Y-109916920D01*
X171574500Y-114205239D01*
X171554815Y-114272278D01*
X171502011Y-114318033D01*
X171432853Y-114327977D01*
X171369297Y-114298952D01*
X171338118Y-114257644D01*
X171240134Y-114047517D01*
X171109657Y-113861179D01*
X170948820Y-113700342D01*
X170762482Y-113569865D01*
X170556328Y-113473734D01*
X170360000Y-113421127D01*
X170360000Y-114189424D01*
X170340315Y-114256463D01*
X170287511Y-114302218D01*
X170218353Y-114312162D01*
X170216602Y-114311897D01*
X170141486Y-114300000D01*
X170141481Y-114300000D01*
X170078519Y-114300000D01*
X170078514Y-114300000D01*
X170003398Y-114311897D01*
X169934104Y-114302942D01*
X169880652Y-114257946D01*
X169860013Y-114191194D01*
X169860000Y-114189424D01*
X169860000Y-113421127D01*
X169663671Y-113473734D01*
X169457517Y-113569865D01*
X169271179Y-113700342D01*
X169110342Y-113861179D01*
X168979865Y-114047517D01*
X168883734Y-114253673D01*
X168883730Y-114253682D01*
X168831127Y-114449999D01*
X168831128Y-114450000D01*
X169599424Y-114450000D01*
X169666463Y-114469685D01*
X169712218Y-114522489D01*
X169722162Y-114591647D01*
X169721897Y-114593397D01*
X169705014Y-114699996D01*
X169705014Y-114700003D01*
X169721897Y-114806603D01*
X169712942Y-114875896D01*
X169667946Y-114929348D01*
X169601194Y-114949987D01*
X169599424Y-114950000D01*
X168831128Y-114950000D01*
X168883730Y-115146317D01*
X168883734Y-115146326D01*
X168979865Y-115352482D01*
X169110342Y-115538820D01*
X169271179Y-115699657D01*
X169457517Y-115830134D01*
X169663673Y-115926265D01*
X169663682Y-115926269D01*
X169859999Y-115978872D01*
X169860000Y-115978871D01*
X169860000Y-115210575D01*
X169879685Y-115143536D01*
X169932489Y-115097781D01*
X170001647Y-115087837D01*
X170003331Y-115088091D01*
X170035699Y-115093218D01*
X170078515Y-115100000D01*
X170078519Y-115100000D01*
X170141485Y-115100000D01*
X170184300Y-115093218D01*
X170216602Y-115088102D01*
X170285894Y-115097056D01*
X170339347Y-115142052D01*
X170359987Y-115208803D01*
X170360000Y-115210575D01*
X170360000Y-115978872D01*
X170556317Y-115926269D01*
X170556326Y-115926265D01*
X170762482Y-115830134D01*
X170948820Y-115699657D01*
X171109657Y-115538820D01*
X171240134Y-115352482D01*
X171338118Y-115142355D01*
X171384290Y-115089916D01*
X171451484Y-115070764D01*
X171518365Y-115090980D01*
X171563699Y-115144145D01*
X171574500Y-115194760D01*
X171574500Y-122213811D01*
X171554815Y-122280850D01*
X171538181Y-122301492D01*
X171301493Y-122538181D01*
X171240170Y-122571666D01*
X171213812Y-122574500D01*
X168016913Y-122574500D01*
X168011511Y-122574264D01*
X168004126Y-122573618D01*
X167971192Y-122570736D01*
X167971191Y-122570736D01*
X167932099Y-122581211D01*
X167926819Y-122582382D01*
X167886954Y-122589412D01*
X167881962Y-122591229D01*
X167865117Y-122598206D01*
X167860313Y-122600446D01*
X167827166Y-122623656D01*
X167822606Y-122626562D01*
X167787548Y-122646804D01*
X167787540Y-122646810D01*
X167761523Y-122677815D01*
X167757868Y-122681804D01*
X166122135Y-124317539D01*
X164501493Y-125938181D01*
X164440170Y-125971666D01*
X164413812Y-125974500D01*
X161286189Y-125974500D01*
X161219150Y-125954815D01*
X161198508Y-125938181D01*
X160561819Y-125301492D01*
X160528334Y-125240169D01*
X160525500Y-125213811D01*
X160525500Y-120816920D01*
X160525736Y-120811513D01*
X160526783Y-120799554D01*
X160529264Y-120771193D01*
X160518782Y-120732076D01*
X160517616Y-120726818D01*
X160510588Y-120686955D01*
X160510586Y-120686952D01*
X160510586Y-120686950D01*
X160508760Y-120681933D01*
X160501820Y-120665176D01*
X160499554Y-120660319D01*
X160499554Y-120660316D01*
X160476339Y-120627162D01*
X160473433Y-120622599D01*
X160453196Y-120587548D01*
X160453195Y-120587547D01*
X160453194Y-120587545D01*
X160422177Y-120561518D01*
X160418193Y-120557867D01*
X159941176Y-120080850D01*
X159442119Y-119581793D01*
X159438474Y-119577814D01*
X159412456Y-119546807D01*
X159412455Y-119546806D01*
X159401058Y-119540226D01*
X159377392Y-119526561D01*
X159372831Y-119523655D01*
X159348767Y-119506806D01*
X159339684Y-119500446D01*
X159339681Y-119500445D01*
X159334861Y-119498197D01*
X159318055Y-119491235D01*
X159313043Y-119489411D01*
X159273190Y-119482383D01*
X159267910Y-119481212D01*
X159228808Y-119470735D01*
X159193892Y-119473790D01*
X159188481Y-119474264D01*
X159183078Y-119474500D01*
X151339012Y-119474500D01*
X151271973Y-119454815D01*
X151226218Y-119402011D01*
X151216274Y-119332853D01*
X151224451Y-119303048D01*
X151260377Y-119216314D01*
X151285044Y-119156762D01*
X151305682Y-119000000D01*
X151300655Y-118961819D01*
X151285044Y-118843239D01*
X151285044Y-118843238D01*
X151224536Y-118697159D01*
X151128282Y-118571718D01*
X151128280Y-118571716D01*
X151128279Y-118571715D01*
X151074012Y-118530074D01*
X151032810Y-118473646D01*
X151025500Y-118431699D01*
X151025500Y-115940000D01*
X154794659Y-115940000D01*
X154813975Y-116136129D01*
X154871188Y-116324733D01*
X154964086Y-116498532D01*
X154964090Y-116498539D01*
X155089116Y-116650883D01*
X155241460Y-116775909D01*
X155241467Y-116775913D01*
X155408953Y-116865436D01*
X155458797Y-116914398D01*
X155474500Y-116974794D01*
X155474500Y-117583078D01*
X155474264Y-117588485D01*
X155470735Y-117628808D01*
X155481212Y-117667910D01*
X155482383Y-117673190D01*
X155489411Y-117713043D01*
X155491235Y-117718055D01*
X155498197Y-117734861D01*
X155500445Y-117739681D01*
X155500446Y-117739684D01*
X155510530Y-117754086D01*
X155523655Y-117772831D01*
X155526561Y-117777392D01*
X155546806Y-117812455D01*
X155577815Y-117838475D01*
X155581805Y-117842131D01*
X156557863Y-118818189D01*
X156561518Y-118822178D01*
X156587541Y-118853190D01*
X156587543Y-118853191D01*
X156587545Y-118853194D01*
X156587547Y-118853195D01*
X156587548Y-118853196D01*
X156622599Y-118873433D01*
X156627162Y-118876339D01*
X156660316Y-118899554D01*
X156660319Y-118899554D01*
X156665176Y-118901820D01*
X156681933Y-118908760D01*
X156686953Y-118910587D01*
X156686955Y-118910588D01*
X156722806Y-118916909D01*
X156726808Y-118917615D01*
X156732080Y-118918783D01*
X156771193Y-118929264D01*
X156811522Y-118925735D01*
X156816924Y-118925500D01*
X159703812Y-118925500D01*
X159770851Y-118945185D01*
X159791493Y-118961819D01*
X161528126Y-120698453D01*
X161561611Y-120759776D01*
X161559106Y-120822129D01*
X161503975Y-121003869D01*
X161484659Y-121200000D01*
X161503975Y-121396129D01*
X161512592Y-121424536D01*
X161556383Y-121568895D01*
X161561188Y-121584733D01*
X161654086Y-121758532D01*
X161654090Y-121758539D01*
X161779116Y-121910883D01*
X161931460Y-122035909D01*
X161931467Y-122035913D01*
X162105266Y-122128811D01*
X162105269Y-122128811D01*
X162105273Y-122128814D01*
X162293868Y-122186024D01*
X162490000Y-122205341D01*
X162686132Y-122186024D01*
X162874727Y-122128814D01*
X162923791Y-122102589D01*
X163039455Y-122040765D01*
X163048538Y-122035910D01*
X163200883Y-121910883D01*
X163325910Y-121758538D01*
X163388486Y-121641467D01*
X163418811Y-121584733D01*
X163418811Y-121584732D01*
X163418814Y-121584727D01*
X163476024Y-121396132D01*
X163495341Y-121200000D01*
X163476024Y-121003868D01*
X163418814Y-120815273D01*
X163418811Y-120815269D01*
X163418811Y-120815266D01*
X163325913Y-120641467D01*
X163325909Y-120641460D01*
X163200883Y-120489116D01*
X163048539Y-120364090D01*
X163048532Y-120364086D01*
X162874733Y-120271188D01*
X162874727Y-120271186D01*
X162686132Y-120213976D01*
X162686129Y-120213975D01*
X162490000Y-120194659D01*
X162293869Y-120213975D01*
X162112129Y-120269106D01*
X162042262Y-120269729D01*
X161988453Y-120238126D01*
X161547476Y-119797149D01*
X160132119Y-118381793D01*
X160128474Y-118377814D01*
X160102456Y-118346807D01*
X160102455Y-118346806D01*
X160091058Y-118340226D01*
X160067392Y-118326561D01*
X160062831Y-118323655D01*
X160041556Y-118308759D01*
X160029684Y-118300446D01*
X160029681Y-118300445D01*
X160024861Y-118298197D01*
X160008055Y-118291235D01*
X160003043Y-118289411D01*
X159963190Y-118282383D01*
X159957910Y-118281212D01*
X159918808Y-118270735D01*
X159883892Y-118273790D01*
X159878481Y-118274264D01*
X159873078Y-118274500D01*
X156986188Y-118274500D01*
X156919149Y-118254815D01*
X156898507Y-118238181D01*
X156161819Y-117501493D01*
X156128334Y-117440170D01*
X156125500Y-117413812D01*
X156125500Y-116974794D01*
X156145185Y-116907755D01*
X156191047Y-116865436D01*
X156358532Y-116775913D01*
X156358538Y-116775910D01*
X156510883Y-116650883D01*
X156635910Y-116498538D01*
X156728814Y-116324727D01*
X156786024Y-116136132D01*
X156805341Y-115940000D01*
X156786024Y-115743868D01*
X156728814Y-115555273D01*
X156728811Y-115555269D01*
X156728811Y-115555266D01*
X156635913Y-115381467D01*
X156635909Y-115381460D01*
X156510883Y-115229116D01*
X156358539Y-115104090D01*
X156358532Y-115104086D01*
X156184733Y-115011188D01*
X156184727Y-115011186D01*
X155996132Y-114953976D01*
X155996129Y-114953975D01*
X155800000Y-114934659D01*
X155603870Y-114953975D01*
X155415266Y-115011188D01*
X155241467Y-115104086D01*
X155241460Y-115104090D01*
X155089116Y-115229116D01*
X154964090Y-115381460D01*
X154964086Y-115381467D01*
X154871188Y-115555266D01*
X154813975Y-115743870D01*
X154794659Y-115940000D01*
X151025500Y-115940000D01*
X151025500Y-113400000D01*
X154794659Y-113400000D01*
X154813975Y-113596129D01*
X154813976Y-113596132D01*
X154867078Y-113771186D01*
X154871188Y-113784733D01*
X154964086Y-113958532D01*
X154964090Y-113958539D01*
X155089116Y-114110883D01*
X155241460Y-114235909D01*
X155241467Y-114235913D01*
X155415266Y-114328811D01*
X155415269Y-114328811D01*
X155415273Y-114328814D01*
X155603868Y-114386024D01*
X155800000Y-114405341D01*
X155996132Y-114386024D01*
X156184727Y-114328814D01*
X156185822Y-114328229D01*
X156295232Y-114269748D01*
X156358538Y-114235910D01*
X156510883Y-114110883D01*
X156635910Y-113958538D01*
X156728814Y-113784727D01*
X156786024Y-113596132D01*
X156805341Y-113400000D01*
X157794659Y-113400000D01*
X157813975Y-113596129D01*
X157813976Y-113596132D01*
X157867078Y-113771186D01*
X157871188Y-113784733D01*
X157964086Y-113958532D01*
X157964090Y-113958539D01*
X158089116Y-114110883D01*
X158241460Y-114235909D01*
X158241467Y-114235913D01*
X158415266Y-114328811D01*
X158415269Y-114328811D01*
X158415273Y-114328814D01*
X158603868Y-114386024D01*
X158800000Y-114405341D01*
X158996132Y-114386024D01*
X159184727Y-114328814D01*
X159185822Y-114328229D01*
X159295232Y-114269748D01*
X159358538Y-114235910D01*
X159510883Y-114110883D01*
X159635910Y-113958538D01*
X159728814Y-113784727D01*
X159786024Y-113596132D01*
X159805341Y-113400000D01*
X159786024Y-113203868D01*
X159728814Y-113015273D01*
X159728811Y-113015269D01*
X159728811Y-113015266D01*
X159635913Y-112841467D01*
X159635909Y-112841460D01*
X159510883Y-112689116D01*
X159358539Y-112564090D01*
X159358532Y-112564086D01*
X159184733Y-112471188D01*
X159184727Y-112471186D01*
X159047136Y-112429448D01*
X158996129Y-112413975D01*
X158800000Y-112394659D01*
X158603870Y-112413975D01*
X158415266Y-112471188D01*
X158241467Y-112564086D01*
X158241460Y-112564090D01*
X158089116Y-112689116D01*
X157964090Y-112841460D01*
X157964086Y-112841467D01*
X157871188Y-113015266D01*
X157813975Y-113203870D01*
X157794659Y-113400000D01*
X156805341Y-113400000D01*
X156786024Y-113203868D01*
X156728814Y-113015273D01*
X156728811Y-113015269D01*
X156728811Y-113015266D01*
X156635913Y-112841467D01*
X156635909Y-112841460D01*
X156510883Y-112689116D01*
X156358539Y-112564090D01*
X156358532Y-112564086D01*
X156184733Y-112471188D01*
X156184727Y-112471186D01*
X156047136Y-112429448D01*
X155996129Y-112413975D01*
X155800000Y-112394659D01*
X155603870Y-112413975D01*
X155415266Y-112471188D01*
X155241467Y-112564086D01*
X155241460Y-112564090D01*
X155089116Y-112689116D01*
X154964090Y-112841460D01*
X154964086Y-112841467D01*
X154871188Y-113015266D01*
X154813975Y-113203870D01*
X154794659Y-113400000D01*
X151025500Y-113400000D01*
X151025500Y-113168298D01*
X151045185Y-113101259D01*
X151074010Y-113069925D01*
X151128282Y-113028282D01*
X151224536Y-112902841D01*
X151285044Y-112756762D01*
X151302762Y-112622182D01*
X151305682Y-112600001D01*
X151305682Y-112599998D01*
X151285044Y-112443239D01*
X151285044Y-112443238D01*
X151224536Y-112297159D01*
X151128282Y-112171718D01*
X151128280Y-112171717D01*
X151128280Y-112171716D01*
X151097210Y-112147876D01*
X151056007Y-112091448D01*
X151051852Y-112021702D01*
X151086064Y-111960782D01*
X151147781Y-111928029D01*
X151172696Y-111925500D01*
X151383078Y-111925500D01*
X151388481Y-111925735D01*
X151428807Y-111929264D01*
X151467940Y-111918777D01*
X151473162Y-111917619D01*
X151513045Y-111910588D01*
X151513050Y-111910584D01*
X151518099Y-111908747D01*
X151534824Y-111901819D01*
X151539681Y-111899554D01*
X151539684Y-111899554D01*
X151572841Y-111876335D01*
X151577390Y-111873438D01*
X151612455Y-111853194D01*
X151638481Y-111822176D01*
X151642121Y-111818203D01*
X152018210Y-111442115D01*
X152022172Y-111438484D01*
X152053194Y-111412455D01*
X152073444Y-111377378D01*
X152076333Y-111372845D01*
X152099553Y-111339684D01*
X152099555Y-111339676D01*
X152101816Y-111334828D01*
X152108754Y-111318079D01*
X152110583Y-111313052D01*
X152110588Y-111313045D01*
X152117622Y-111273147D01*
X152118779Y-111267929D01*
X152129263Y-111228807D01*
X152125735Y-111188489D01*
X152125500Y-111183086D01*
X152125500Y-110860000D01*
X154794659Y-110860000D01*
X154813975Y-111056129D01*
X154817970Y-111069297D01*
X154871157Y-111244633D01*
X154871188Y-111244733D01*
X154964086Y-111418532D01*
X154964090Y-111418539D01*
X155089116Y-111570883D01*
X155241460Y-111695909D01*
X155241467Y-111695913D01*
X155415266Y-111788811D01*
X155415269Y-111788811D01*
X155415273Y-111788814D01*
X155603868Y-111846024D01*
X155800000Y-111865341D01*
X155996132Y-111846024D01*
X156184727Y-111788814D01*
X156187695Y-111787228D01*
X156296141Y-111729262D01*
X156358538Y-111695910D01*
X156510883Y-111570883D01*
X156635910Y-111418538D01*
X156635910Y-111418536D01*
X156635914Y-111418532D01*
X156725437Y-111251047D01*
X156774399Y-111201202D01*
X156834795Y-111185500D01*
X158573812Y-111185500D01*
X158640851Y-111205185D01*
X158661492Y-111221818D01*
X158867834Y-111428161D01*
X159057868Y-111618195D01*
X159061523Y-111622184D01*
X159087541Y-111653190D01*
X159087543Y-111653191D01*
X159087545Y-111653194D01*
X159122605Y-111673435D01*
X159127159Y-111676337D01*
X159160316Y-111699554D01*
X159160319Y-111699554D01*
X159165176Y-111701820D01*
X159181933Y-111708760D01*
X159186953Y-111710587D01*
X159186955Y-111710588D01*
X159226830Y-111717618D01*
X159232087Y-111718784D01*
X159271193Y-111729263D01*
X159311510Y-111725735D01*
X159316912Y-111725500D01*
X161465205Y-111725500D01*
X161532244Y-111745185D01*
X161574563Y-111791047D01*
X161664085Y-111958532D01*
X161664090Y-111958539D01*
X161789116Y-112110883D01*
X161941460Y-112235909D01*
X161941463Y-112235911D01*
X161984554Y-112258943D01*
X162098954Y-112320091D01*
X162148797Y-112369051D01*
X162164500Y-112429448D01*
X162164500Y-113665205D01*
X162144815Y-113732244D01*
X162098953Y-113774563D01*
X161931467Y-113864085D01*
X161931460Y-113864090D01*
X161779116Y-113989116D01*
X161654090Y-114141460D01*
X161654086Y-114141467D01*
X161561188Y-114315266D01*
X161503975Y-114503870D01*
X161484659Y-114700000D01*
X161503975Y-114896129D01*
X161510626Y-114918055D01*
X161556950Y-115070764D01*
X161561188Y-115084733D01*
X161654086Y-115258532D01*
X161654090Y-115258539D01*
X161779116Y-115410883D01*
X161931460Y-115535909D01*
X161931467Y-115535913D01*
X162098953Y-115625436D01*
X162148797Y-115674398D01*
X162164500Y-115734794D01*
X162164500Y-116965205D01*
X162144815Y-117032244D01*
X162098953Y-117074563D01*
X161931467Y-117164085D01*
X161931460Y-117164090D01*
X161779116Y-117289116D01*
X161654090Y-117441460D01*
X161654086Y-117441467D01*
X161561188Y-117615266D01*
X161503975Y-117803870D01*
X161484659Y-118000000D01*
X161503975Y-118196129D01*
X161503976Y-118196132D01*
X161554028Y-118361132D01*
X161561188Y-118384733D01*
X161654086Y-118558532D01*
X161654090Y-118558539D01*
X161779116Y-118710883D01*
X161931460Y-118835909D01*
X161931467Y-118835913D01*
X162105266Y-118928811D01*
X162105269Y-118928811D01*
X162105273Y-118928814D01*
X162293868Y-118986024D01*
X162490000Y-119005341D01*
X162686132Y-118986024D01*
X162874727Y-118928814D01*
X162908826Y-118910588D01*
X163048532Y-118835913D01*
X163048538Y-118835910D01*
X163200883Y-118710883D01*
X163325910Y-118558538D01*
X163400256Y-118419447D01*
X163418811Y-118384733D01*
X163418811Y-118384732D01*
X163418814Y-118384727D01*
X163476024Y-118196132D01*
X163495341Y-118000000D01*
X163476024Y-117803868D01*
X163418814Y-117615273D01*
X163418811Y-117615269D01*
X163418811Y-117615266D01*
X163325913Y-117441467D01*
X163325909Y-117441460D01*
X163200883Y-117289116D01*
X163048539Y-117164090D01*
X163048532Y-117164085D01*
X162881047Y-117074563D01*
X162831202Y-117025601D01*
X162815500Y-116965205D01*
X162815500Y-115734794D01*
X162835185Y-115667755D01*
X162881047Y-115625436D01*
X163012312Y-115555273D01*
X163048538Y-115535910D01*
X163200883Y-115410883D01*
X163325910Y-115258538D01*
X163388487Y-115141464D01*
X163418811Y-115084733D01*
X163418811Y-115084732D01*
X163418814Y-115084727D01*
X163476024Y-114896132D01*
X163495341Y-114700000D01*
X163476024Y-114503868D01*
X163418814Y-114315273D01*
X163418811Y-114315269D01*
X163418811Y-114315266D01*
X163325913Y-114141467D01*
X163325909Y-114141460D01*
X163200883Y-113989116D01*
X163048539Y-113864090D01*
X163048532Y-113864085D01*
X162881047Y-113774563D01*
X162831202Y-113725601D01*
X162815500Y-113665205D01*
X162815500Y-112440139D01*
X162835185Y-112373100D01*
X162881047Y-112330781D01*
X162943949Y-112297159D01*
X163058538Y-112235910D01*
X163210883Y-112110883D01*
X163335910Y-111958538D01*
X163398486Y-111841467D01*
X163428811Y-111784733D01*
X163428811Y-111784732D01*
X163428814Y-111784727D01*
X163486024Y-111596132D01*
X163505341Y-111400000D01*
X163486024Y-111203868D01*
X163428814Y-111015273D01*
X163428811Y-111015269D01*
X163428811Y-111015266D01*
X163335913Y-110841467D01*
X163335909Y-110841460D01*
X163210883Y-110689116D01*
X163058539Y-110564090D01*
X163058532Y-110564086D01*
X162884733Y-110471188D01*
X162884727Y-110471186D01*
X162696132Y-110413976D01*
X162696129Y-110413975D01*
X162500000Y-110394659D01*
X162303870Y-110413975D01*
X162115266Y-110471188D01*
X161941467Y-110564086D01*
X161941460Y-110564090D01*
X161789116Y-110689116D01*
X161664090Y-110841460D01*
X161664085Y-110841467D01*
X161574563Y-111008953D01*
X161525601Y-111058798D01*
X161465205Y-111074500D01*
X159486189Y-111074500D01*
X159419150Y-111054815D01*
X159398508Y-111038181D01*
X159305279Y-110944952D01*
X159002119Y-110641793D01*
X158998474Y-110637814D01*
X158972456Y-110606807D01*
X158972455Y-110606806D01*
X158960667Y-110600000D01*
X158937392Y-110586561D01*
X158932831Y-110583655D01*
X158904888Y-110564090D01*
X158899684Y-110560446D01*
X158899681Y-110560445D01*
X158894861Y-110558197D01*
X158878055Y-110551235D01*
X158873043Y-110549411D01*
X158833190Y-110542383D01*
X158827910Y-110541212D01*
X158788808Y-110530735D01*
X158753892Y-110533790D01*
X158748481Y-110534264D01*
X158743078Y-110534500D01*
X156834795Y-110534500D01*
X156767756Y-110514815D01*
X156725437Y-110468953D01*
X156635914Y-110301467D01*
X156635909Y-110301460D01*
X156510883Y-110149116D01*
X156358539Y-110024090D01*
X156358532Y-110024086D01*
X156184733Y-109931188D01*
X156184727Y-109931186D01*
X155996132Y-109873976D01*
X155996129Y-109873975D01*
X155800000Y-109854659D01*
X155603870Y-109873975D01*
X155415266Y-109931188D01*
X155241467Y-110024086D01*
X155241460Y-110024090D01*
X155089116Y-110149116D01*
X154964090Y-110301460D01*
X154964086Y-110301467D01*
X154871188Y-110475266D01*
X154813975Y-110663870D01*
X154794659Y-110860000D01*
X152125500Y-110860000D01*
X152125500Y-108069999D01*
X154521127Y-108069999D01*
X154521128Y-108070000D01*
X155289424Y-108070000D01*
X155356463Y-108089685D01*
X155402218Y-108142489D01*
X155412162Y-108211647D01*
X155411897Y-108213397D01*
X155395014Y-108319996D01*
X155395014Y-108320003D01*
X155411897Y-108426603D01*
X155402942Y-108495896D01*
X155357946Y-108549348D01*
X155291194Y-108569987D01*
X155289424Y-108570000D01*
X154521128Y-108570000D01*
X154573730Y-108766317D01*
X154573734Y-108766326D01*
X154669865Y-108972482D01*
X154800342Y-109158820D01*
X154961179Y-109319657D01*
X155147517Y-109450134D01*
X155353673Y-109546265D01*
X155353682Y-109546269D01*
X155549999Y-109598872D01*
X155550000Y-109598871D01*
X155550000Y-108830575D01*
X155569685Y-108763536D01*
X155622489Y-108717781D01*
X155691647Y-108707837D01*
X155693331Y-108708091D01*
X155725699Y-108713218D01*
X155768515Y-108720000D01*
X155768519Y-108720000D01*
X155831485Y-108720000D01*
X155874300Y-108713218D01*
X155906602Y-108708102D01*
X155975894Y-108717056D01*
X156029347Y-108762052D01*
X156049987Y-108828803D01*
X156050000Y-108830575D01*
X156050000Y-109598872D01*
X156246317Y-109546269D01*
X156246326Y-109546265D01*
X156452482Y-109450134D01*
X156638820Y-109319657D01*
X156799657Y-109158820D01*
X156930134Y-108972482D01*
X157026265Y-108766326D01*
X157026269Y-108766317D01*
X157078872Y-108570000D01*
X156310576Y-108570000D01*
X156243537Y-108550315D01*
X156197782Y-108497511D01*
X156187838Y-108428353D01*
X156188103Y-108426603D01*
X156204986Y-108320003D01*
X156204986Y-108319996D01*
X156188103Y-108213397D01*
X156197058Y-108144104D01*
X156242054Y-108090652D01*
X156308806Y-108070013D01*
X156310576Y-108070000D01*
X157078872Y-108070000D01*
X157078872Y-108069999D01*
X157026269Y-107873682D01*
X157026265Y-107873673D01*
X156930134Y-107667517D01*
X156799657Y-107481179D01*
X156638820Y-107320342D01*
X156452482Y-107189865D01*
X156246328Y-107093734D01*
X156050000Y-107041127D01*
X156050000Y-107809424D01*
X156030315Y-107876463D01*
X155977511Y-107922218D01*
X155908353Y-107932162D01*
X155906602Y-107931897D01*
X155831486Y-107920000D01*
X155831481Y-107920000D01*
X155768519Y-107920000D01*
X155768514Y-107920000D01*
X155693398Y-107931897D01*
X155624104Y-107922942D01*
X155570652Y-107877946D01*
X155550013Y-107811194D01*
X155550000Y-107809424D01*
X155550000Y-107041127D01*
X155353671Y-107093734D01*
X155147517Y-107189865D01*
X154961179Y-107320342D01*
X154800342Y-107481179D01*
X154669865Y-107667517D01*
X154573734Y-107873673D01*
X154573730Y-107873682D01*
X154521127Y-108069999D01*
X152125500Y-108069999D01*
X152125500Y-104386187D01*
X152145185Y-104319148D01*
X152161819Y-104298506D01*
X152858507Y-103601819D01*
X152919830Y-103568334D01*
X152946188Y-103565500D01*
X154765205Y-103565500D01*
X154832244Y-103585185D01*
X154874563Y-103631047D01*
X154964085Y-103798532D01*
X154964090Y-103798539D01*
X155089116Y-103950883D01*
X155241460Y-104075909D01*
X155241467Y-104075913D01*
X155415266Y-104168811D01*
X155415269Y-104168811D01*
X155415273Y-104168814D01*
X155603868Y-104226024D01*
X155800000Y-104245341D01*
X155996132Y-104226024D01*
X156184727Y-104168814D01*
X156199515Y-104160910D01*
X156286878Y-104114213D01*
X156358538Y-104075910D01*
X156510883Y-103950883D01*
X156635910Y-103798538D01*
X156699638Y-103679311D01*
X156728811Y-103624733D01*
X156728811Y-103624732D01*
X156728814Y-103624727D01*
X156786024Y-103436132D01*
X156805341Y-103240000D01*
X156786024Y-103043868D01*
X156728814Y-102855273D01*
X156728811Y-102855269D01*
X156728811Y-102855266D01*
X156635913Y-102681467D01*
X156635909Y-102681460D01*
X156510883Y-102529116D01*
X156358539Y-102404090D01*
X156358532Y-102404085D01*
X156191047Y-102314563D01*
X156141202Y-102265601D01*
X156125500Y-102205205D01*
X156125500Y-101734794D01*
X156145185Y-101667755D01*
X156191047Y-101625436D01*
X156317222Y-101557994D01*
X156358538Y-101535910D01*
X156510883Y-101410883D01*
X156635910Y-101258538D01*
X156698486Y-101141467D01*
X156728811Y-101084733D01*
X156728811Y-101084732D01*
X156728814Y-101084727D01*
X156786024Y-100896132D01*
X156805341Y-100700000D01*
X156786024Y-100503868D01*
X156728814Y-100315273D01*
X156728811Y-100315269D01*
X156728811Y-100315266D01*
X156635913Y-100141467D01*
X156635909Y-100141460D01*
X156510883Y-99989116D01*
X156358539Y-99864090D01*
X156358532Y-99864086D01*
X156184733Y-99771188D01*
X156184727Y-99771186D01*
X155996132Y-99713976D01*
X155996129Y-99713975D01*
X155800000Y-99694659D01*
X155603870Y-99713975D01*
X155415266Y-99771188D01*
X155241467Y-99864086D01*
X155241460Y-99864090D01*
X155089116Y-99989116D01*
X154964090Y-100141460D01*
X154964086Y-100141467D01*
X154871188Y-100315266D01*
X154813975Y-100503870D01*
X154794659Y-100700000D01*
X154813975Y-100896129D01*
X154813976Y-100896132D01*
X154861213Y-101051852D01*
X154871188Y-101084733D01*
X154964086Y-101258532D01*
X154964090Y-101258539D01*
X155089116Y-101410883D01*
X155241460Y-101535909D01*
X155241467Y-101535913D01*
X155408953Y-101625436D01*
X155458797Y-101674398D01*
X155474500Y-101734794D01*
X155474500Y-102205205D01*
X155454815Y-102272244D01*
X155408953Y-102314563D01*
X155241467Y-102404085D01*
X155241460Y-102404090D01*
X155089116Y-102529116D01*
X154964090Y-102681460D01*
X154964085Y-102681467D01*
X154874563Y-102848953D01*
X154825601Y-102898798D01*
X154765205Y-102914500D01*
X152776922Y-102914500D01*
X152771518Y-102914264D01*
X152766107Y-102913790D01*
X152731192Y-102910735D01*
X152731191Y-102910735D01*
X152692091Y-102921212D01*
X152686811Y-102922383D01*
X152646959Y-102929410D01*
X152641961Y-102931229D01*
X152625117Y-102938206D01*
X152620313Y-102940446D01*
X152587166Y-102963656D01*
X152582606Y-102966562D01*
X152547548Y-102986804D01*
X152547540Y-102986810D01*
X152521523Y-103017815D01*
X152517869Y-103021804D01*
X151581803Y-103957870D01*
X151577814Y-103961525D01*
X151546805Y-103987545D01*
X151526562Y-104022606D01*
X151523656Y-104027166D01*
X151500446Y-104060313D01*
X151498206Y-104065117D01*
X151491229Y-104081961D01*
X151489410Y-104086959D01*
X151482383Y-104126811D01*
X151481212Y-104132091D01*
X151470735Y-104171191D01*
X151474264Y-104211513D01*
X151474500Y-104216920D01*
X151474500Y-110277235D01*
X151454815Y-110344274D01*
X151402011Y-110390029D01*
X151332853Y-110399973D01*
X151269297Y-110370948D01*
X151235939Y-110324688D01*
X151226318Y-110301462D01*
X151224536Y-110297159D01*
X151128282Y-110171718D01*
X151128280Y-110171716D01*
X151128279Y-110171715D01*
X151074012Y-110130074D01*
X151032810Y-110073646D01*
X151025500Y-110031699D01*
X151025500Y-109716912D01*
X151025736Y-109711506D01*
X151029263Y-109671191D01*
X151018785Y-109632090D01*
X151017618Y-109626830D01*
X151010588Y-109586955D01*
X151010587Y-109586953D01*
X151008760Y-109581933D01*
X151001820Y-109565176D01*
X150999554Y-109560319D01*
X150999554Y-109560316D01*
X150976339Y-109527162D01*
X150973433Y-109522599D01*
X150953196Y-109487548D01*
X150953195Y-109487547D01*
X150953194Y-109487545D01*
X150922177Y-109461518D01*
X150918193Y-109457867D01*
X150673369Y-109213043D01*
X150461816Y-109001489D01*
X150428333Y-108940169D01*
X150425499Y-108913820D01*
X150425499Y-105059183D01*
X150428797Y-105034144D01*
X150429264Y-105028806D01*
X150425736Y-104988481D01*
X150425500Y-104983075D01*
X150425500Y-98680432D01*
X150445185Y-98613393D01*
X150497989Y-98567638D01*
X150567147Y-98557694D01*
X150596950Y-98565871D01*
X150643238Y-98585044D01*
X150721619Y-98595363D01*
X150799999Y-98605682D01*
X150800000Y-98605682D01*
X150800001Y-98605682D01*
X150854507Y-98598506D01*
X150956762Y-98585044D01*
X151102841Y-98524536D01*
X151228282Y-98428282D01*
X151269923Y-98374013D01*
X151326351Y-98332811D01*
X151368299Y-98325500D01*
X157813812Y-98325500D01*
X157880851Y-98345185D01*
X157901493Y-98361819D01*
X158138181Y-98598506D01*
X158171666Y-98659829D01*
X158174500Y-98686187D01*
X158174500Y-99027303D01*
X158154815Y-99094342D01*
X158102011Y-99140097D01*
X158032853Y-99150041D01*
X157969297Y-99121016D01*
X157952125Y-99102791D01*
X157945642Y-99094342D01*
X157928282Y-99071718D01*
X157802841Y-98975464D01*
X157656762Y-98914956D01*
X157656760Y-98914955D01*
X157500001Y-98894318D01*
X157499999Y-98894318D01*
X157343239Y-98914955D01*
X157343237Y-98914956D01*
X157197160Y-98975463D01*
X157071718Y-99071718D01*
X156975463Y-99197160D01*
X156914956Y-99343237D01*
X156914955Y-99343239D01*
X156894318Y-99499998D01*
X156894318Y-99500001D01*
X156914955Y-99656760D01*
X156914956Y-99656762D01*
X156975464Y-99802841D01*
X157071718Y-99928282D01*
X157125987Y-99969924D01*
X157167189Y-100026349D01*
X157174500Y-100068298D01*
X157174500Y-105330500D01*
X157154815Y-105397539D01*
X157102011Y-105443294D01*
X157050500Y-105454500D01*
X156834795Y-105454500D01*
X156767756Y-105434815D01*
X156725437Y-105388953D01*
X156635914Y-105221467D01*
X156635909Y-105221460D01*
X156510883Y-105069116D01*
X156358539Y-104944090D01*
X156358532Y-104944086D01*
X156184733Y-104851188D01*
X156184727Y-104851186D01*
X155996132Y-104793976D01*
X155996129Y-104793975D01*
X155800000Y-104774659D01*
X155603870Y-104793975D01*
X155415266Y-104851188D01*
X155241467Y-104944086D01*
X155241460Y-104944090D01*
X155089116Y-105069116D01*
X154964090Y-105221460D01*
X154964086Y-105221467D01*
X154871188Y-105395266D01*
X154813975Y-105583870D01*
X154794659Y-105780000D01*
X154813975Y-105976129D01*
X154815116Y-105979889D01*
X154854762Y-106110586D01*
X154871188Y-106164733D01*
X154964086Y-106338532D01*
X154964090Y-106338539D01*
X155089116Y-106490883D01*
X155241460Y-106615909D01*
X155241467Y-106615913D01*
X155415266Y-106708811D01*
X155415269Y-106708811D01*
X155415273Y-106708814D01*
X155603868Y-106766024D01*
X155800000Y-106785341D01*
X155996132Y-106766024D01*
X156184727Y-106708814D01*
X156195906Y-106702839D01*
X156321115Y-106635913D01*
X156358538Y-106615910D01*
X156510883Y-106490883D01*
X156635910Y-106338538D01*
X156635910Y-106338536D01*
X156635914Y-106338532D01*
X156725437Y-106171047D01*
X156774399Y-106121202D01*
X156834795Y-106105500D01*
X157442606Y-106105500D01*
X157471525Y-106105500D01*
X157893812Y-106105500D01*
X157960851Y-106125185D01*
X157981493Y-106141819D01*
X158657863Y-106818189D01*
X158661518Y-106822178D01*
X158687541Y-106853190D01*
X158687542Y-106853191D01*
X158687545Y-106853194D01*
X158722607Y-106873437D01*
X158727156Y-106876335D01*
X158733814Y-106880997D01*
X158777440Y-106935573D01*
X158784634Y-107005071D01*
X158753113Y-107067427D01*
X158692883Y-107102841D01*
X158673499Y-107106101D01*
X158573400Y-107114858D01*
X158573389Y-107114860D01*
X158353682Y-107173730D01*
X158353673Y-107173734D01*
X158147513Y-107269868D01*
X158074526Y-107320973D01*
X158616133Y-107862580D01*
X158649618Y-107923903D01*
X158644634Y-107993595D01*
X158602762Y-108049528D01*
X158584748Y-108060745D01*
X158561956Y-108072358D01*
X158561949Y-108072363D01*
X158472363Y-108161949D01*
X158472358Y-108161956D01*
X158460745Y-108184748D01*
X158412770Y-108235544D01*
X158344949Y-108252338D01*
X158278814Y-108229800D01*
X158262580Y-108216133D01*
X157720973Y-107674526D01*
X157669868Y-107747513D01*
X157573734Y-107953673D01*
X157573730Y-107953682D01*
X157514860Y-108173389D01*
X157514858Y-108173400D01*
X157495034Y-108399997D01*
X157495034Y-108400002D01*
X157514858Y-108626599D01*
X157514860Y-108626610D01*
X157573730Y-108846317D01*
X157573734Y-108846326D01*
X157669865Y-109052481D01*
X157669866Y-109052483D01*
X157720973Y-109125471D01*
X157720973Y-109125472D01*
X158262580Y-108583865D01*
X158323903Y-108550380D01*
X158393594Y-108555364D01*
X158449528Y-108597235D01*
X158460742Y-108615246D01*
X158463768Y-108621184D01*
X158472358Y-108638044D01*
X158472363Y-108638050D01*
X158561949Y-108727636D01*
X158561951Y-108727637D01*
X158561955Y-108727641D01*
X158584747Y-108739254D01*
X158635542Y-108787228D01*
X158652337Y-108855049D01*
X158629799Y-108921184D01*
X158616132Y-108937419D01*
X158074526Y-109479025D01*
X158074526Y-109479026D01*
X158147512Y-109530131D01*
X158147516Y-109530133D01*
X158353673Y-109626265D01*
X158353682Y-109626269D01*
X158573389Y-109685139D01*
X158573400Y-109685141D01*
X158799998Y-109704966D01*
X158800002Y-109704966D01*
X159026599Y-109685141D01*
X159026610Y-109685139D01*
X159246317Y-109626269D01*
X159246331Y-109626264D01*
X159452478Y-109530136D01*
X159525472Y-109479025D01*
X158983866Y-108937419D01*
X158950381Y-108876096D01*
X158955365Y-108806404D01*
X158997237Y-108750471D01*
X159015245Y-108739258D01*
X159038045Y-108727641D01*
X159127641Y-108638045D01*
X159139254Y-108615252D01*
X159187225Y-108564458D01*
X159255046Y-108547661D01*
X159321181Y-108570197D01*
X159337419Y-108583866D01*
X159879025Y-109125472D01*
X159930136Y-109052478D01*
X160026264Y-108846331D01*
X160026269Y-108846317D01*
X160085139Y-108626610D01*
X160085141Y-108626599D01*
X160104966Y-108400002D01*
X160104966Y-108399997D01*
X160085141Y-108173400D01*
X160085139Y-108173389D01*
X160026269Y-107953682D01*
X160026265Y-107953673D01*
X159930133Y-107747516D01*
X159930131Y-107747512D01*
X159879026Y-107674526D01*
X159879025Y-107674526D01*
X159337419Y-108216132D01*
X159276096Y-108249617D01*
X159206404Y-108244633D01*
X159150471Y-108202761D01*
X159139256Y-108184751D01*
X159127641Y-108161955D01*
X159127637Y-108161951D01*
X159127636Y-108161949D01*
X159038050Y-108072363D01*
X159038044Y-108072358D01*
X159028109Y-108067296D01*
X159015250Y-108060744D01*
X158964456Y-108012773D01*
X158947660Y-107944952D01*
X158970197Y-107878817D01*
X158983865Y-107862580D01*
X159525472Y-107320973D01*
X159452483Y-107269866D01*
X159452481Y-107269865D01*
X159246326Y-107173734D01*
X159246320Y-107173731D01*
X159229688Y-107169275D01*
X159170028Y-107132910D01*
X159139499Y-107070063D01*
X159147794Y-107000687D01*
X159192279Y-106946809D01*
X159258831Y-106925535D01*
X159261782Y-106925500D01*
X162089252Y-106925500D01*
X162156291Y-106945185D01*
X162202046Y-106997989D01*
X162211990Y-107067147D01*
X162182965Y-107130703D01*
X162125248Y-107168159D01*
X162115273Y-107171186D01*
X162115270Y-107171187D01*
X162115268Y-107171188D01*
X161941467Y-107264086D01*
X161941460Y-107264090D01*
X161789116Y-107389116D01*
X161664090Y-107541460D01*
X161664086Y-107541467D01*
X161571188Y-107715266D01*
X161513975Y-107903870D01*
X161494659Y-108100000D01*
X161513975Y-108296129D01*
X161513976Y-108296132D01*
X161570338Y-108481933D01*
X161571188Y-108484733D01*
X161664086Y-108658532D01*
X161664090Y-108658539D01*
X161789116Y-108810883D01*
X161941460Y-108935909D01*
X161941467Y-108935913D01*
X162115266Y-109028811D01*
X162115269Y-109028811D01*
X162115273Y-109028814D01*
X162303868Y-109086024D01*
X162500000Y-109105341D01*
X162696132Y-109086024D01*
X162884727Y-109028814D01*
X162914233Y-109013043D01*
X163032329Y-108949919D01*
X163058538Y-108935910D01*
X163210883Y-108810883D01*
X163335910Y-108658538D01*
X163335910Y-108658536D01*
X163335914Y-108658532D01*
X163425437Y-108491047D01*
X163474399Y-108441202D01*
X163534795Y-108425500D01*
X164313812Y-108425500D01*
X164380851Y-108445185D01*
X164401493Y-108461819D01*
X164638181Y-108698507D01*
X164671666Y-108759830D01*
X164674500Y-108786188D01*
X164674500Y-117583078D01*
X164674264Y-117588485D01*
X164670735Y-117628808D01*
X164681212Y-117667910D01*
X164682383Y-117673190D01*
X164689411Y-117713043D01*
X164691235Y-117718055D01*
X164698197Y-117734861D01*
X164700445Y-117739681D01*
X164700446Y-117739684D01*
X164710530Y-117754086D01*
X164723655Y-117772831D01*
X164726561Y-117777392D01*
X164746806Y-117812455D01*
X164777815Y-117838475D01*
X164781805Y-117842131D01*
X165157868Y-118218195D01*
X165161523Y-118222184D01*
X165187541Y-118253190D01*
X165187542Y-118253191D01*
X165187545Y-118253194D01*
X165216387Y-118269845D01*
X165222604Y-118273435D01*
X165227154Y-118276333D01*
X165260316Y-118299553D01*
X165260318Y-118299553D01*
X165260319Y-118299554D01*
X165265168Y-118301815D01*
X165281932Y-118308759D01*
X165286951Y-118310585D01*
X165286955Y-118310588D01*
X165286958Y-118310588D01*
X165292908Y-118312754D01*
X165349173Y-118354179D01*
X165374110Y-118419447D01*
X165374500Y-118429277D01*
X165374500Y-123513811D01*
X165354815Y-123580850D01*
X165338181Y-123601492D01*
X164601493Y-124338181D01*
X164540170Y-124371666D01*
X164513812Y-124374500D01*
X163614795Y-124374500D01*
X163547756Y-124354815D01*
X163505437Y-124308953D01*
X163415914Y-124141467D01*
X163415909Y-124141460D01*
X163290883Y-123989116D01*
X163138539Y-123864090D01*
X163138532Y-123864086D01*
X162964733Y-123771188D01*
X162964727Y-123771186D01*
X162803190Y-123722184D01*
X162776129Y-123713975D01*
X162580000Y-123694659D01*
X162383870Y-123713975D01*
X162195266Y-123771188D01*
X162021467Y-123864086D01*
X162021460Y-123864090D01*
X161869116Y-123989116D01*
X161744090Y-124141460D01*
X161744086Y-124141467D01*
X161651188Y-124315266D01*
X161593975Y-124503870D01*
X161574659Y-124700000D01*
X161593975Y-124896129D01*
X161593976Y-124896132D01*
X161628695Y-125010586D01*
X161651188Y-125084733D01*
X161744086Y-125258532D01*
X161744090Y-125258539D01*
X161869116Y-125410883D01*
X162021460Y-125535909D01*
X162021467Y-125535913D01*
X162195266Y-125628811D01*
X162195269Y-125628811D01*
X162195273Y-125628814D01*
X162383868Y-125686024D01*
X162580000Y-125705341D01*
X162776132Y-125686024D01*
X162964727Y-125628814D01*
X163138538Y-125535910D01*
X163290883Y-125410883D01*
X163415910Y-125258538D01*
X163415910Y-125258536D01*
X163415914Y-125258532D01*
X163505437Y-125091047D01*
X163554399Y-125041202D01*
X163614795Y-125025500D01*
X164683078Y-125025500D01*
X164688481Y-125025735D01*
X164728807Y-125029264D01*
X164767940Y-125018777D01*
X164773162Y-125017619D01*
X164813045Y-125010588D01*
X164813050Y-125010584D01*
X164818099Y-125008747D01*
X164834824Y-125001819D01*
X164839681Y-124999554D01*
X164839684Y-124999554D01*
X164872841Y-124976335D01*
X164877390Y-124973438D01*
X164912455Y-124953194D01*
X164938481Y-124922176D01*
X164942122Y-124918202D01*
X165918204Y-123942120D01*
X165922166Y-123938489D01*
X165953194Y-123912455D01*
X165973438Y-123877390D01*
X165976335Y-123872841D01*
X165999554Y-123839684D01*
X165999554Y-123839681D01*
X166001819Y-123834824D01*
X166008747Y-123818099D01*
X166010584Y-123813050D01*
X166010588Y-123813045D01*
X166017619Y-123773162D01*
X166018777Y-123767940D01*
X166029264Y-123728807D01*
X166025735Y-123688478D01*
X166025500Y-123683075D01*
X166025500Y-121200000D01*
X169104659Y-121200000D01*
X169123975Y-121396129D01*
X169132592Y-121424536D01*
X169176383Y-121568895D01*
X169181188Y-121584733D01*
X169274086Y-121758532D01*
X169274090Y-121758539D01*
X169399116Y-121910883D01*
X169551460Y-122035909D01*
X169551467Y-122035913D01*
X169725266Y-122128811D01*
X169725269Y-122128811D01*
X169725273Y-122128814D01*
X169913868Y-122186024D01*
X170110000Y-122205341D01*
X170306132Y-122186024D01*
X170494727Y-122128814D01*
X170543791Y-122102589D01*
X170659455Y-122040765D01*
X170668538Y-122035910D01*
X170820883Y-121910883D01*
X170945910Y-121758538D01*
X171008486Y-121641467D01*
X171038811Y-121584733D01*
X171038811Y-121584732D01*
X171038814Y-121584727D01*
X171096024Y-121396132D01*
X171115341Y-121200000D01*
X171096024Y-121003868D01*
X171038814Y-120815273D01*
X171038811Y-120815269D01*
X171038811Y-120815266D01*
X170945913Y-120641467D01*
X170945909Y-120641460D01*
X170820883Y-120489116D01*
X170668539Y-120364090D01*
X170668532Y-120364086D01*
X170494733Y-120271188D01*
X170494727Y-120271186D01*
X170306132Y-120213976D01*
X170306129Y-120213975D01*
X170110000Y-120194659D01*
X169913870Y-120213975D01*
X169725266Y-120271188D01*
X169551467Y-120364086D01*
X169551460Y-120364090D01*
X169399116Y-120489116D01*
X169274090Y-120641460D01*
X169274086Y-120641467D01*
X169181188Y-120815266D01*
X169123975Y-121003870D01*
X169104659Y-121200000D01*
X166025500Y-121200000D01*
X166025500Y-118449500D01*
X166045185Y-118382461D01*
X166097989Y-118336706D01*
X166149500Y-118325500D01*
X169075205Y-118325500D01*
X169142244Y-118345185D01*
X169184563Y-118391047D01*
X169274085Y-118558532D01*
X169274090Y-118558539D01*
X169399116Y-118710883D01*
X169551460Y-118835909D01*
X169551467Y-118835913D01*
X169725266Y-118928811D01*
X169725269Y-118928811D01*
X169725273Y-118928814D01*
X169913868Y-118986024D01*
X170110000Y-119005341D01*
X170306132Y-118986024D01*
X170494727Y-118928814D01*
X170528826Y-118910588D01*
X170668532Y-118835913D01*
X170668538Y-118835910D01*
X170820883Y-118710883D01*
X170945910Y-118558538D01*
X171020256Y-118419447D01*
X171038811Y-118384733D01*
X171038811Y-118384732D01*
X171038814Y-118384727D01*
X171096024Y-118196132D01*
X171115341Y-118000000D01*
X171096024Y-117803868D01*
X171038814Y-117615273D01*
X171038811Y-117615269D01*
X171038811Y-117615266D01*
X170945913Y-117441467D01*
X170945909Y-117441460D01*
X170820883Y-117289116D01*
X170668539Y-117164090D01*
X170668532Y-117164086D01*
X170494733Y-117071188D01*
X170494727Y-117071186D01*
X170306132Y-117013976D01*
X170306129Y-117013975D01*
X170110000Y-116994659D01*
X169913870Y-117013975D01*
X169725266Y-117071188D01*
X169551467Y-117164086D01*
X169551460Y-117164090D01*
X169399116Y-117289116D01*
X169274090Y-117441460D01*
X169274085Y-117441467D01*
X169184563Y-117608953D01*
X169135601Y-117658798D01*
X169075205Y-117674500D01*
X165586189Y-117674500D01*
X165519150Y-117654815D01*
X165498508Y-117638181D01*
X165361819Y-117501492D01*
X165328334Y-117440169D01*
X165325500Y-117413811D01*
X165325500Y-111400002D01*
X166195034Y-111400002D01*
X166214858Y-111626599D01*
X166214860Y-111626610D01*
X166273730Y-111846317D01*
X166273734Y-111846326D01*
X166369865Y-112052481D01*
X166369866Y-112052483D01*
X166420973Y-112125471D01*
X166420973Y-112125472D01*
X166962580Y-111583865D01*
X167023903Y-111550380D01*
X167093594Y-111555364D01*
X167149528Y-111597235D01*
X167160742Y-111615246D01*
X167166527Y-111626599D01*
X167172358Y-111638044D01*
X167172363Y-111638050D01*
X167261949Y-111727636D01*
X167261951Y-111727637D01*
X167261955Y-111727641D01*
X167284747Y-111739254D01*
X167335542Y-111787228D01*
X167352337Y-111855049D01*
X167329799Y-111921184D01*
X167316132Y-111937419D01*
X166774526Y-112479025D01*
X166774526Y-112479026D01*
X166847512Y-112530131D01*
X166847516Y-112530133D01*
X167053673Y-112626265D01*
X167053682Y-112626269D01*
X167273389Y-112685139D01*
X167273400Y-112685141D01*
X167499998Y-112704966D01*
X167500002Y-112704966D01*
X167726599Y-112685141D01*
X167726610Y-112685139D01*
X167946317Y-112626269D01*
X167946331Y-112626264D01*
X168152478Y-112530136D01*
X168225472Y-112479025D01*
X167683866Y-111937419D01*
X167650381Y-111876096D01*
X167655365Y-111806404D01*
X167697237Y-111750471D01*
X167715245Y-111739258D01*
X167738045Y-111727641D01*
X167827641Y-111638045D01*
X167839254Y-111615252D01*
X167887225Y-111564458D01*
X167955046Y-111547661D01*
X168021181Y-111570197D01*
X168037419Y-111583866D01*
X168579025Y-112125472D01*
X168630136Y-112052478D01*
X168726264Y-111846331D01*
X168726269Y-111846317D01*
X168785139Y-111626610D01*
X168785141Y-111626599D01*
X168804966Y-111400002D01*
X168804966Y-111399997D01*
X168785141Y-111173400D01*
X168785139Y-111173389D01*
X168726269Y-110953682D01*
X168726265Y-110953673D01*
X168630133Y-110747516D01*
X168630131Y-110747512D01*
X168579026Y-110674526D01*
X168579025Y-110674526D01*
X168037419Y-111216132D01*
X167976096Y-111249617D01*
X167906404Y-111244633D01*
X167850471Y-111202761D01*
X167839256Y-111184751D01*
X167827641Y-111161955D01*
X167827637Y-111161951D01*
X167827636Y-111161949D01*
X167738050Y-111072363D01*
X167738044Y-111072358D01*
X167728109Y-111067296D01*
X167715250Y-111060744D01*
X167664456Y-111012773D01*
X167647660Y-110944952D01*
X167670197Y-110878817D01*
X167683865Y-110862580D01*
X168225472Y-110320973D01*
X168152483Y-110269866D01*
X168152481Y-110269865D01*
X167946326Y-110173734D01*
X167946317Y-110173730D01*
X167726610Y-110114860D01*
X167726599Y-110114858D01*
X167500002Y-110095034D01*
X167499998Y-110095034D01*
X167273400Y-110114858D01*
X167273389Y-110114860D01*
X167053682Y-110173730D01*
X167053673Y-110173734D01*
X166847513Y-110269868D01*
X166774526Y-110320973D01*
X167316133Y-110862580D01*
X167349618Y-110923903D01*
X167344634Y-110993595D01*
X167302762Y-111049528D01*
X167284748Y-111060745D01*
X167261956Y-111072358D01*
X167261949Y-111072363D01*
X167172363Y-111161949D01*
X167172358Y-111161956D01*
X167160745Y-111184748D01*
X167112770Y-111235544D01*
X167044949Y-111252338D01*
X166978814Y-111229800D01*
X166962580Y-111216133D01*
X166420973Y-110674526D01*
X166369868Y-110747513D01*
X166273734Y-110953673D01*
X166273730Y-110953682D01*
X166214860Y-111173389D01*
X166214858Y-111173400D01*
X166195034Y-111399997D01*
X166195034Y-111400002D01*
X165325500Y-111400002D01*
X165325500Y-108616920D01*
X165325736Y-108611513D01*
X165329264Y-108571193D01*
X165323687Y-108550380D01*
X165318782Y-108532076D01*
X165317616Y-108526818D01*
X165310588Y-108486955D01*
X165310586Y-108486952D01*
X165310586Y-108486950D01*
X165308760Y-108481933D01*
X165301820Y-108465176D01*
X165299554Y-108460319D01*
X165299554Y-108460316D01*
X165292660Y-108450471D01*
X165276340Y-108427163D01*
X165273433Y-108422599D01*
X165253196Y-108387548D01*
X165253195Y-108387547D01*
X165253194Y-108387545D01*
X165222177Y-108361518D01*
X165218193Y-108357867D01*
X164984074Y-108123748D01*
X164960328Y-108100002D01*
X166195034Y-108100002D01*
X166214858Y-108326599D01*
X166214860Y-108326610D01*
X166273730Y-108546317D01*
X166273734Y-108546326D01*
X166369865Y-108752481D01*
X166369866Y-108752483D01*
X166420973Y-108825471D01*
X166420973Y-108825472D01*
X166962580Y-108283865D01*
X167023903Y-108250380D01*
X167093594Y-108255364D01*
X167149528Y-108297235D01*
X167160742Y-108315246D01*
X167164792Y-108323193D01*
X167172358Y-108338044D01*
X167172363Y-108338050D01*
X167261949Y-108427636D01*
X167261951Y-108427637D01*
X167261955Y-108427641D01*
X167284747Y-108439254D01*
X167335542Y-108487228D01*
X167352337Y-108555049D01*
X167329799Y-108621184D01*
X167316132Y-108637419D01*
X166774526Y-109179025D01*
X166774526Y-109179026D01*
X166847512Y-109230131D01*
X166847516Y-109230133D01*
X167053673Y-109326265D01*
X167053682Y-109326269D01*
X167273389Y-109385139D01*
X167273400Y-109385141D01*
X167499998Y-109404966D01*
X167500002Y-109404966D01*
X167726599Y-109385141D01*
X167726610Y-109385139D01*
X167946317Y-109326269D01*
X167946331Y-109326264D01*
X168152478Y-109230136D01*
X168225472Y-109179025D01*
X167683866Y-108637419D01*
X167650381Y-108576096D01*
X167655365Y-108506404D01*
X167697237Y-108450471D01*
X167715245Y-108439258D01*
X167738045Y-108427641D01*
X167827641Y-108338045D01*
X167839254Y-108315252D01*
X167887225Y-108264458D01*
X167955046Y-108247661D01*
X168021181Y-108270197D01*
X168037419Y-108283866D01*
X168579025Y-108825472D01*
X168630136Y-108752478D01*
X168726264Y-108546331D01*
X168726269Y-108546317D01*
X168785139Y-108326610D01*
X168785141Y-108326599D01*
X168804966Y-108100002D01*
X168804966Y-108099997D01*
X168785141Y-107873400D01*
X168785139Y-107873389D01*
X168726269Y-107653682D01*
X168726265Y-107653673D01*
X168630133Y-107447516D01*
X168630131Y-107447512D01*
X168579026Y-107374526D01*
X168579025Y-107374526D01*
X168037419Y-107916132D01*
X167976096Y-107949617D01*
X167906404Y-107944633D01*
X167850471Y-107902761D01*
X167839256Y-107884751D01*
X167827641Y-107861955D01*
X167827637Y-107861951D01*
X167827636Y-107861949D01*
X167738050Y-107772363D01*
X167738044Y-107772358D01*
X167726481Y-107766467D01*
X167715250Y-107760744D01*
X167664456Y-107712773D01*
X167647660Y-107644952D01*
X167670197Y-107578817D01*
X167683865Y-107562580D01*
X168225472Y-107020973D01*
X168152483Y-106969866D01*
X168152481Y-106969865D01*
X167946326Y-106873734D01*
X167946317Y-106873730D01*
X167726610Y-106814860D01*
X167726599Y-106814858D01*
X167500002Y-106795034D01*
X167499998Y-106795034D01*
X167273400Y-106814858D01*
X167273389Y-106814860D01*
X167053682Y-106873730D01*
X167053673Y-106873734D01*
X166847513Y-106969868D01*
X166774526Y-107020973D01*
X167316133Y-107562580D01*
X167349618Y-107623903D01*
X167344634Y-107693595D01*
X167302762Y-107749528D01*
X167284748Y-107760745D01*
X167261956Y-107772358D01*
X167261949Y-107772363D01*
X167172363Y-107861949D01*
X167172358Y-107861956D01*
X167160745Y-107884748D01*
X167112770Y-107935544D01*
X167044949Y-107952338D01*
X166978814Y-107929800D01*
X166962580Y-107916133D01*
X166420973Y-107374526D01*
X166369868Y-107447513D01*
X166273734Y-107653673D01*
X166273730Y-107653682D01*
X166214860Y-107873389D01*
X166214858Y-107873400D01*
X166195034Y-108099997D01*
X166195034Y-108100002D01*
X164960328Y-108100002D01*
X164742119Y-107881793D01*
X164738474Y-107877814D01*
X164712456Y-107846807D01*
X164712455Y-107846806D01*
X164694962Y-107836706D01*
X164677392Y-107826561D01*
X164672831Y-107823655D01*
X164652506Y-107809424D01*
X164639684Y-107800446D01*
X164639681Y-107800445D01*
X164634861Y-107798197D01*
X164618055Y-107791235D01*
X164613043Y-107789411D01*
X164573190Y-107782383D01*
X164567910Y-107781212D01*
X164528808Y-107770735D01*
X164493892Y-107773790D01*
X164488481Y-107774264D01*
X164483078Y-107774500D01*
X163534795Y-107774500D01*
X163467756Y-107754815D01*
X163425437Y-107708953D01*
X163335914Y-107541467D01*
X163335909Y-107541460D01*
X163210883Y-107389116D01*
X163058539Y-107264090D01*
X163058532Y-107264086D01*
X162884731Y-107171188D01*
X162884730Y-107171187D01*
X162884727Y-107171186D01*
X162874751Y-107168159D01*
X162816314Y-107129864D01*
X162787858Y-107066052D01*
X162798418Y-106996985D01*
X162844642Y-106944591D01*
X162910748Y-106925500D01*
X165483078Y-106925500D01*
X165488481Y-106925735D01*
X165528807Y-106929264D01*
X165567940Y-106918777D01*
X165573162Y-106917619D01*
X165613045Y-106910588D01*
X165613050Y-106910584D01*
X165618099Y-106908747D01*
X165634824Y-106901819D01*
X165639681Y-106899554D01*
X165639684Y-106899554D01*
X165672841Y-106876335D01*
X165677390Y-106873438D01*
X165712455Y-106853194D01*
X165712459Y-106853190D01*
X165726955Y-106835913D01*
X165738481Y-106822176D01*
X165742122Y-106818202D01*
X167298506Y-105261819D01*
X167359830Y-105228334D01*
X167386188Y-105225500D01*
X169085205Y-105225500D01*
X169152244Y-105245185D01*
X169194563Y-105291047D01*
X169284085Y-105458532D01*
X169284090Y-105458539D01*
X169409116Y-105610883D01*
X169561460Y-105735909D01*
X169561467Y-105735913D01*
X169735266Y-105828811D01*
X169735269Y-105828811D01*
X169735273Y-105828814D01*
X169923868Y-105886024D01*
X170120000Y-105905341D01*
X170316132Y-105886024D01*
X170504727Y-105828814D01*
X170678538Y-105735910D01*
X170830883Y-105610883D01*
X170955910Y-105458538D01*
X171024348Y-105330500D01*
X171048811Y-105284733D01*
X171048811Y-105284732D01*
X171048814Y-105284727D01*
X171106024Y-105096132D01*
X171125341Y-104900000D01*
X171106024Y-104703868D01*
X171048814Y-104515273D01*
X171048811Y-104515269D01*
X171048811Y-104515266D01*
X170955913Y-104341467D01*
X170955909Y-104341460D01*
X170830883Y-104189116D01*
X170678539Y-104064090D01*
X170678532Y-104064085D01*
X170501047Y-103969218D01*
X170451202Y-103920256D01*
X170435500Y-103859860D01*
X170435500Y-102734794D01*
X170455185Y-102667755D01*
X170501047Y-102625436D01*
X170595406Y-102575000D01*
X170668538Y-102535910D01*
X170820883Y-102410883D01*
X170945910Y-102258538D01*
X170945910Y-102258536D01*
X170945914Y-102258532D01*
X171035437Y-102091047D01*
X171084399Y-102041202D01*
X171144795Y-102025500D01*
X175883078Y-102025500D01*
X175888481Y-102025735D01*
X175928807Y-102029264D01*
X175967940Y-102018777D01*
X175973162Y-102017619D01*
X176013045Y-102010588D01*
X176013050Y-102010584D01*
X176018099Y-102008747D01*
X176034824Y-102001819D01*
X176039681Y-101999554D01*
X176039684Y-101999554D01*
X176072841Y-101976335D01*
X176077390Y-101973438D01*
X176112455Y-101953194D01*
X176138481Y-101922176D01*
X176142122Y-101918202D01*
X177140324Y-100920000D01*
X185834778Y-100920000D01*
X185853162Y-101200492D01*
X185853644Y-101207837D01*
X185853646Y-101207849D01*
X185909917Y-101490745D01*
X185909921Y-101490760D01*
X186002642Y-101763905D01*
X186130219Y-102022606D01*
X186130223Y-102022613D01*
X186290478Y-102262452D01*
X186480672Y-102479327D01*
X186697547Y-102669521D01*
X186849619Y-102771132D01*
X186937389Y-102829778D01*
X187196098Y-102957359D01*
X187469247Y-103050081D01*
X187752161Y-103106356D01*
X188040000Y-103125222D01*
X188327839Y-103106356D01*
X188610753Y-103050081D01*
X188883902Y-102957359D01*
X189142611Y-102829778D01*
X189382454Y-102669520D01*
X189599327Y-102479327D01*
X189789520Y-102262454D01*
X189949778Y-102022611D01*
X190077359Y-101763902D01*
X190170081Y-101490753D01*
X190226356Y-101207839D01*
X190245222Y-100920000D01*
X190226356Y-100632161D01*
X190170081Y-100349247D01*
X190077359Y-100076098D01*
X189949778Y-99817389D01*
X189927954Y-99784727D01*
X189789521Y-99577547D01*
X189599327Y-99360672D01*
X189382452Y-99170478D01*
X189142613Y-99010223D01*
X189142606Y-99010219D01*
X188883905Y-98882642D01*
X188610760Y-98789921D01*
X188610754Y-98789919D01*
X188610753Y-98789919D01*
X188610751Y-98789918D01*
X188610745Y-98789917D01*
X188327849Y-98733646D01*
X188327839Y-98733644D01*
X188040000Y-98714778D01*
X187752161Y-98733644D01*
X187752155Y-98733645D01*
X187752150Y-98733646D01*
X187469254Y-98789917D01*
X187469239Y-98789921D01*
X187196094Y-98882642D01*
X186937393Y-99010219D01*
X186937386Y-99010223D01*
X186697547Y-99170478D01*
X186480672Y-99360672D01*
X186290478Y-99577547D01*
X186130223Y-99817386D01*
X186130219Y-99817393D01*
X186002642Y-100076094D01*
X185909921Y-100349239D01*
X185909917Y-100349254D01*
X185853646Y-100632150D01*
X185853644Y-100632161D01*
X185834778Y-100920000D01*
X177140324Y-100920000D01*
X179218204Y-98842120D01*
X179222166Y-98838489D01*
X179253194Y-98812455D01*
X179273438Y-98777390D01*
X179276335Y-98772841D01*
X179299554Y-98739684D01*
X179299554Y-98739681D01*
X179301819Y-98734824D01*
X179308747Y-98718099D01*
X179310584Y-98713050D01*
X179310588Y-98713045D01*
X179317619Y-98673162D01*
X179318777Y-98667940D01*
X179329264Y-98628807D01*
X179325735Y-98588481D01*
X179325500Y-98583078D01*
X179325500Y-95574500D01*
X179345185Y-95507461D01*
X179397989Y-95461706D01*
X179449500Y-95450500D01*
X180269750Y-95450500D01*
X180269751Y-95450499D01*
X180284568Y-95447552D01*
X180328229Y-95438868D01*
X180328229Y-95438867D01*
X180328231Y-95438867D01*
X180394552Y-95394552D01*
X180438867Y-95328231D01*
X180438867Y-95328229D01*
X180438868Y-95328229D01*
X180450499Y-95269752D01*
X180450500Y-95269750D01*
X180450500Y-92730249D01*
X180450499Y-92730247D01*
X180438868Y-92671770D01*
X180438867Y-92671769D01*
X180394552Y-92605447D01*
X180328230Y-92561132D01*
X180328229Y-92561131D01*
X180269752Y-92549500D01*
X180269748Y-92549500D01*
X177730252Y-92549500D01*
X177730247Y-92549500D01*
X177671770Y-92561131D01*
X177671769Y-92561132D01*
X177605447Y-92605447D01*
X177561132Y-92671769D01*
X177561131Y-92671770D01*
X177549500Y-92730247D01*
X177549500Y-95269752D01*
X177561131Y-95328229D01*
X177561132Y-95328230D01*
X177605447Y-95394552D01*
X177671769Y-95438867D01*
X177671770Y-95438868D01*
X177730247Y-95450499D01*
X177730250Y-95450500D01*
X177730252Y-95450500D01*
X178550500Y-95450500D01*
X178617539Y-95470185D01*
X178663294Y-95522989D01*
X178674500Y-95574500D01*
X178674500Y-98413812D01*
X178654815Y-98480851D01*
X178638181Y-98501493D01*
X175801493Y-101338181D01*
X175740170Y-101371666D01*
X175713812Y-101374500D01*
X171144795Y-101374500D01*
X171077756Y-101354815D01*
X171035437Y-101308953D01*
X170945914Y-101141467D01*
X170945909Y-101141460D01*
X170820883Y-100989116D01*
X170668539Y-100864090D01*
X170668532Y-100864086D01*
X170494733Y-100771188D01*
X170494727Y-100771186D01*
X170306132Y-100713976D01*
X170306129Y-100713975D01*
X170110000Y-100694659D01*
X169913870Y-100713975D01*
X169725266Y-100771188D01*
X169551467Y-100864086D01*
X169551460Y-100864090D01*
X169399116Y-100989116D01*
X169274090Y-101141460D01*
X169274086Y-101141467D01*
X169181188Y-101315266D01*
X169123975Y-101503870D01*
X169104659Y-101700000D01*
X169123975Y-101896129D01*
X169123976Y-101896132D01*
X169160479Y-102016467D01*
X169181188Y-102084733D01*
X169274086Y-102258532D01*
X169274090Y-102258539D01*
X169399116Y-102410883D01*
X169551460Y-102535909D01*
X169551467Y-102535913D01*
X169718953Y-102625436D01*
X169768797Y-102674398D01*
X169784500Y-102734794D01*
X169784500Y-103870550D01*
X169764815Y-103937589D01*
X169718953Y-103979908D01*
X169561467Y-104064085D01*
X169561460Y-104064090D01*
X169409116Y-104189116D01*
X169284090Y-104341460D01*
X169284085Y-104341467D01*
X169194563Y-104508953D01*
X169145601Y-104558798D01*
X169085205Y-104574500D01*
X167216922Y-104574500D01*
X167211518Y-104574264D01*
X167206107Y-104573790D01*
X167171192Y-104570735D01*
X167171191Y-104570735D01*
X167132091Y-104581212D01*
X167126811Y-104582383D01*
X167086959Y-104589410D01*
X167081961Y-104591229D01*
X167065117Y-104598206D01*
X167060313Y-104600446D01*
X167027166Y-104623656D01*
X167022606Y-104626562D01*
X166987548Y-104646804D01*
X166987540Y-104646810D01*
X166961523Y-104677815D01*
X166957870Y-104681803D01*
X166162992Y-105476682D01*
X165401493Y-106238181D01*
X165340170Y-106271666D01*
X165313812Y-106274500D01*
X159086188Y-106274500D01*
X159019149Y-106254815D01*
X158998507Y-106238181D01*
X158660772Y-105900446D01*
X158322119Y-105561793D01*
X158318474Y-105557814D01*
X158292456Y-105526807D01*
X158292455Y-105526806D01*
X158281058Y-105520226D01*
X158257392Y-105506561D01*
X158252831Y-105503655D01*
X158239687Y-105494452D01*
X158219684Y-105480446D01*
X158219681Y-105480445D01*
X158214861Y-105478197D01*
X158198055Y-105471235D01*
X158193043Y-105469411D01*
X158153190Y-105462383D01*
X158147910Y-105461212D01*
X158108808Y-105450735D01*
X158073892Y-105453790D01*
X158068481Y-105454264D01*
X158063078Y-105454500D01*
X157949500Y-105454500D01*
X157882461Y-105434815D01*
X157836706Y-105382011D01*
X157825500Y-105330500D01*
X157825500Y-100068298D01*
X157845185Y-100001259D01*
X157874010Y-99969925D01*
X157928282Y-99928282D01*
X157952124Y-99897209D01*
X158008552Y-99856007D01*
X158078298Y-99851852D01*
X158139218Y-99886064D01*
X158171971Y-99947781D01*
X158174500Y-99972696D01*
X158174500Y-103383078D01*
X158174264Y-103388485D01*
X158170735Y-103428808D01*
X158181212Y-103467910D01*
X158182383Y-103473190D01*
X158189411Y-103513043D01*
X158191235Y-103518055D01*
X158198197Y-103534861D01*
X158200445Y-103539681D01*
X158200446Y-103539684D01*
X158207248Y-103549398D01*
X158223655Y-103572831D01*
X158226561Y-103577392D01*
X158246806Y-103612455D01*
X158277815Y-103638475D01*
X158281805Y-103642131D01*
X159757868Y-105118195D01*
X159761523Y-105122184D01*
X159787541Y-105153190D01*
X159787543Y-105153191D01*
X159787545Y-105153194D01*
X159822599Y-105173432D01*
X159827159Y-105176337D01*
X159860316Y-105199554D01*
X159860319Y-105199554D01*
X159865176Y-105201820D01*
X159881933Y-105208760D01*
X159886953Y-105210587D01*
X159886955Y-105210588D01*
X159926830Y-105217618D01*
X159932087Y-105218784D01*
X159971193Y-105229263D01*
X160011510Y-105225735D01*
X160016912Y-105225500D01*
X161465205Y-105225500D01*
X161532244Y-105245185D01*
X161574563Y-105291047D01*
X161664085Y-105458532D01*
X161664090Y-105458539D01*
X161789116Y-105610883D01*
X161941460Y-105735909D01*
X161941467Y-105735913D01*
X162115266Y-105828811D01*
X162115269Y-105828811D01*
X162115273Y-105828814D01*
X162303868Y-105886024D01*
X162500000Y-105905341D01*
X162696132Y-105886024D01*
X162884727Y-105828814D01*
X163058538Y-105735910D01*
X163210883Y-105610883D01*
X163335910Y-105458538D01*
X163404348Y-105330500D01*
X163428811Y-105284733D01*
X163428811Y-105284732D01*
X163428814Y-105284727D01*
X163486024Y-105096132D01*
X163505341Y-104900000D01*
X163486024Y-104703868D01*
X163428814Y-104515273D01*
X163428811Y-104515269D01*
X163428811Y-104515266D01*
X163335913Y-104341467D01*
X163335909Y-104341460D01*
X163210883Y-104189116D01*
X163058539Y-104064090D01*
X163058532Y-104064086D01*
X162884733Y-103971188D01*
X162884727Y-103971186D01*
X162696132Y-103913976D01*
X162696129Y-103913975D01*
X162500000Y-103894659D01*
X162303870Y-103913975D01*
X162115266Y-103971188D01*
X161941467Y-104064086D01*
X161941460Y-104064090D01*
X161789116Y-104189116D01*
X161664090Y-104341460D01*
X161664085Y-104341467D01*
X161574563Y-104508953D01*
X161525601Y-104558798D01*
X161465205Y-104574500D01*
X160186189Y-104574500D01*
X160119150Y-104554815D01*
X160098508Y-104538181D01*
X158861818Y-103301491D01*
X158828333Y-103240168D01*
X158825499Y-103213810D01*
X158825499Y-101700000D01*
X161484659Y-101700000D01*
X161503975Y-101896129D01*
X161503976Y-101896132D01*
X161540479Y-102016467D01*
X161561188Y-102084733D01*
X161654086Y-102258532D01*
X161654090Y-102258539D01*
X161779116Y-102410883D01*
X161931460Y-102535909D01*
X161931467Y-102535913D01*
X162105266Y-102628811D01*
X162105269Y-102628811D01*
X162105273Y-102628814D01*
X162293868Y-102686024D01*
X162490000Y-102705341D01*
X162686132Y-102686024D01*
X162874727Y-102628814D01*
X162894774Y-102618099D01*
X162975406Y-102575000D01*
X163048538Y-102535910D01*
X163200883Y-102410883D01*
X163325910Y-102258538D01*
X163418814Y-102084727D01*
X163476024Y-101896132D01*
X163495341Y-101700000D01*
X163476024Y-101503868D01*
X163418814Y-101315273D01*
X163418811Y-101315269D01*
X163418811Y-101315266D01*
X163325913Y-101141467D01*
X163325909Y-101141460D01*
X163200883Y-100989116D01*
X163048539Y-100864090D01*
X163048532Y-100864086D01*
X162874733Y-100771188D01*
X162874727Y-100771186D01*
X162686132Y-100713976D01*
X162686129Y-100713975D01*
X162490000Y-100694659D01*
X162293870Y-100713975D01*
X162105266Y-100771188D01*
X161931467Y-100864086D01*
X161931460Y-100864090D01*
X161779116Y-100989116D01*
X161654090Y-101141460D01*
X161654086Y-101141467D01*
X161561188Y-101315266D01*
X161503975Y-101503870D01*
X161484659Y-101700000D01*
X158825499Y-101700000D01*
X158825499Y-100896129D01*
X158825499Y-98516896D01*
X158825733Y-98511543D01*
X158829264Y-98471193D01*
X158818782Y-98432076D01*
X158817616Y-98426818D01*
X158810588Y-98386955D01*
X158810586Y-98386952D01*
X158810586Y-98386950D01*
X158808760Y-98381933D01*
X158801820Y-98365176D01*
X158799554Y-98360319D01*
X158799554Y-98360316D01*
X158776339Y-98327162D01*
X158773433Y-98322599D01*
X158753196Y-98287548D01*
X158753195Y-98287547D01*
X158753194Y-98287545D01*
X158722177Y-98261518D01*
X158718193Y-98257867D01*
X158502852Y-98042526D01*
X158242119Y-97781793D01*
X158238474Y-97777814D01*
X158212456Y-97746807D01*
X158212455Y-97746806D01*
X158201058Y-97740226D01*
X158177392Y-97726561D01*
X158172831Y-97723655D01*
X158159687Y-97714452D01*
X158139684Y-97700446D01*
X158139681Y-97700445D01*
X158134861Y-97698197D01*
X158118055Y-97691235D01*
X158113043Y-97689411D01*
X158073190Y-97682383D01*
X158067911Y-97681212D01*
X158034017Y-97672132D01*
X157974355Y-97635769D01*
X157943824Y-97572923D01*
X157952117Y-97503547D01*
X157967732Y-97476869D01*
X157968811Y-97475464D01*
X158024536Y-97402841D01*
X158085044Y-97256762D01*
X158101829Y-97129264D01*
X158105682Y-97100001D01*
X158105682Y-97099998D01*
X158085044Y-96943239D01*
X158085044Y-96943238D01*
X158024536Y-96797159D01*
X157928282Y-96671718D01*
X157802841Y-96575464D01*
X157766263Y-96560313D01*
X157656762Y-96514956D01*
X157656760Y-96514955D01*
X157500001Y-96494318D01*
X157499997Y-96494318D01*
X157400564Y-96507408D01*
X157351081Y-96499791D01*
X157350154Y-96503251D01*
X157341394Y-96500903D01*
X157318055Y-96491235D01*
X157313043Y-96489411D01*
X157273190Y-96482383D01*
X157267910Y-96481212D01*
X157228808Y-96470735D01*
X157193892Y-96473790D01*
X157188481Y-96474264D01*
X157183078Y-96474500D01*
X150386188Y-96474500D01*
X150319149Y-96454815D01*
X150298507Y-96438181D01*
X149429744Y-95569418D01*
X148542119Y-94681793D01*
X148538474Y-94677814D01*
X148512456Y-94646807D01*
X148512455Y-94646806D01*
X148501058Y-94640226D01*
X148477392Y-94626561D01*
X148472831Y-94623655D01*
X148459687Y-94614452D01*
X148439684Y-94600446D01*
X148439681Y-94600445D01*
X148434861Y-94598197D01*
X148418055Y-94591235D01*
X148413043Y-94589411D01*
X148373190Y-94582383D01*
X148367910Y-94581212D01*
X148328808Y-94570735D01*
X148293892Y-94573790D01*
X148288481Y-94574264D01*
X148283078Y-94574500D01*
X141886188Y-94574500D01*
X141819149Y-94554815D01*
X141798507Y-94538181D01*
X141292588Y-94032262D01*
X141292585Y-94032260D01*
X140508137Y-93247812D01*
X140260330Y-93000005D01*
X162414357Y-93000005D01*
X162434890Y-93247812D01*
X162434892Y-93247824D01*
X162495936Y-93488881D01*
X162595826Y-93716606D01*
X162731833Y-93924782D01*
X162731836Y-93924785D01*
X162900256Y-94107738D01*
X163096491Y-94260474D01*
X163315190Y-94378828D01*
X163550386Y-94459571D01*
X163795665Y-94500500D01*
X164044335Y-94500500D01*
X164289614Y-94459571D01*
X164524810Y-94378828D01*
X164633973Y-94319752D01*
X167499500Y-94319752D01*
X167511131Y-94378229D01*
X167511132Y-94378230D01*
X167555447Y-94444552D01*
X167621769Y-94488867D01*
X167621770Y-94488868D01*
X167680247Y-94500499D01*
X167680250Y-94500500D01*
X167680252Y-94500500D01*
X170319750Y-94500500D01*
X170319751Y-94500499D01*
X170334568Y-94497552D01*
X170378229Y-94488868D01*
X170378229Y-94488867D01*
X170378231Y-94488867D01*
X170444552Y-94444552D01*
X170488867Y-94378231D01*
X170488867Y-94378229D01*
X170488868Y-94378229D01*
X170500499Y-94319752D01*
X170500500Y-94319750D01*
X170500500Y-91680249D01*
X170500499Y-91680247D01*
X170488868Y-91621770D01*
X170488867Y-91621769D01*
X170444552Y-91555447D01*
X170378230Y-91511132D01*
X170378229Y-91511131D01*
X170319752Y-91499500D01*
X170319748Y-91499500D01*
X167680252Y-91499500D01*
X167680247Y-91499500D01*
X167621770Y-91511131D01*
X167621769Y-91511132D01*
X167555447Y-91555447D01*
X167511132Y-91621769D01*
X167511131Y-91621770D01*
X167499500Y-91680247D01*
X167499500Y-94319752D01*
X164633973Y-94319752D01*
X164743509Y-94260474D01*
X164939744Y-94107738D01*
X165108164Y-93924785D01*
X165244173Y-93716607D01*
X165344063Y-93488881D01*
X165405108Y-93247821D01*
X165425643Y-93000000D01*
X165405401Y-92755716D01*
X165405109Y-92752187D01*
X165405107Y-92752175D01*
X165344063Y-92511118D01*
X165244173Y-92283393D01*
X165108166Y-92075217D01*
X165086557Y-92051744D01*
X164939744Y-91892262D01*
X164743509Y-91739526D01*
X164743507Y-91739525D01*
X164743506Y-91739524D01*
X164524811Y-91621172D01*
X164524802Y-91621169D01*
X164289616Y-91540429D01*
X164044335Y-91499500D01*
X163795665Y-91499500D01*
X163550383Y-91540429D01*
X163315197Y-91621169D01*
X163315188Y-91621172D01*
X163096493Y-91739524D01*
X162900257Y-91892261D01*
X162731833Y-92075217D01*
X162595826Y-92283393D01*
X162495936Y-92511118D01*
X162434892Y-92752175D01*
X162434890Y-92752187D01*
X162414357Y-92999994D01*
X162414357Y-93000005D01*
X140260330Y-93000005D01*
X139442119Y-92181793D01*
X139438474Y-92177814D01*
X139412456Y-92146807D01*
X139412455Y-92146806D01*
X139401058Y-92140226D01*
X139377392Y-92126561D01*
X139372831Y-92123655D01*
X139359687Y-92114452D01*
X139339684Y-92100446D01*
X139339681Y-92100445D01*
X139334861Y-92098197D01*
X139318055Y-92091235D01*
X139313043Y-92089411D01*
X139273190Y-92082383D01*
X139267910Y-92081212D01*
X139228808Y-92070735D01*
X139193892Y-92073790D01*
X139188481Y-92074264D01*
X139183078Y-92074500D01*
X136116922Y-92074500D01*
X136111518Y-92074264D01*
X136106107Y-92073790D01*
X136071192Y-92070735D01*
X136071191Y-92070735D01*
X136032091Y-92081212D01*
X136026811Y-92082383D01*
X135986959Y-92089410D01*
X135981961Y-92091229D01*
X135965117Y-92098206D01*
X135960313Y-92100446D01*
X135927166Y-92123656D01*
X135922606Y-92126562D01*
X135887548Y-92146804D01*
X135887540Y-92146810D01*
X135861523Y-92177815D01*
X135857869Y-92181804D01*
X133201493Y-94838181D01*
X133140170Y-94871666D01*
X133113812Y-94874500D01*
X124916910Y-94874500D01*
X124911506Y-94874264D01*
X124905993Y-94873781D01*
X124871192Y-94870736D01*
X124832105Y-94881210D01*
X124826825Y-94882381D01*
X124786957Y-94889411D01*
X124781983Y-94891221D01*
X124765118Y-94898207D01*
X124760313Y-94900447D01*
X124727162Y-94923659D01*
X124722603Y-94926563D01*
X124687545Y-94946805D01*
X124687544Y-94946806D01*
X124676709Y-94959718D01*
X124618536Y-94998417D01*
X124565539Y-95002946D01*
X124500001Y-94994318D01*
X124499999Y-94994318D01*
X124343239Y-95014955D01*
X124343237Y-95014956D01*
X124197160Y-95075463D01*
X124071718Y-95171718D01*
X123975463Y-95297160D01*
X123914956Y-95443237D01*
X123914955Y-95443239D01*
X123894318Y-95599998D01*
X123894318Y-95600001D01*
X123914955Y-95756760D01*
X123914957Y-95756765D01*
X123975549Y-95903048D01*
X123983018Y-95972517D01*
X123951743Y-96034996D01*
X123891654Y-96070648D01*
X123860988Y-96074500D01*
X121486188Y-96074500D01*
X121419149Y-96054815D01*
X121398507Y-96038181D01*
X120561818Y-95201492D01*
X120528333Y-95140169D01*
X120525499Y-95113811D01*
X120525499Y-93488881D01*
X120525499Y-91777516D01*
X120545184Y-91710481D01*
X120597988Y-91664726D01*
X120609237Y-91660239D01*
X120764492Y-91606940D01*
X120764495Y-91606938D01*
X120764503Y-91606936D01*
X120968626Y-91496470D01*
X121151784Y-91353913D01*
X121308979Y-91183153D01*
X121435924Y-90988849D01*
X121529157Y-90776300D01*
X121586134Y-90551305D01*
X121605300Y-90320000D01*
X121605300Y-90319993D01*
X121586135Y-90088702D01*
X121586133Y-90088691D01*
X121529157Y-89863699D01*
X121435924Y-89651151D01*
X121308983Y-89456852D01*
X121308980Y-89456849D01*
X121308979Y-89456847D01*
X121151784Y-89286087D01*
X121151779Y-89286083D01*
X121151777Y-89286081D01*
X120968634Y-89143535D01*
X120968628Y-89143531D01*
X120764504Y-89033064D01*
X120764495Y-89033061D01*
X120544984Y-88957702D01*
X120373282Y-88929050D01*
X120316049Y-88919500D01*
X120083951Y-88919500D01*
X120038164Y-88927140D01*
X119855015Y-88957702D01*
X119635504Y-89033061D01*
X119635495Y-89033064D01*
X119431371Y-89143531D01*
X119431365Y-89143535D01*
X119248222Y-89286081D01*
X119248219Y-89286084D01*
X119091016Y-89456852D01*
X118964075Y-89651151D01*
X118870842Y-89863699D01*
X118813866Y-90088691D01*
X118813864Y-90088702D01*
X118794700Y-90319993D01*
X118794700Y-90320006D01*
X118813864Y-90551297D01*
X118813866Y-90551308D01*
X118870842Y-90776300D01*
X118964075Y-90988848D01*
X119091016Y-91183147D01*
X119091019Y-91183151D01*
X119091021Y-91183153D01*
X119248216Y-91353913D01*
X119248219Y-91353915D01*
X119248222Y-91353918D01*
X119431365Y-91496464D01*
X119431371Y-91496468D01*
X119431374Y-91496470D01*
X119635497Y-91606936D01*
X119678707Y-91621770D01*
X119790762Y-91660239D01*
X119847777Y-91700624D01*
X119873908Y-91765424D01*
X119874499Y-91777520D01*
X119874499Y-95283081D01*
X119874263Y-95288487D01*
X119870735Y-95328807D01*
X119870735Y-95328808D01*
X119881212Y-95367909D01*
X119882383Y-95373189D01*
X119889411Y-95413043D01*
X119891235Y-95418055D01*
X119898197Y-95434861D01*
X119900445Y-95439681D01*
X119900446Y-95439684D01*
X119909905Y-95453193D01*
X119923655Y-95472831D01*
X119926561Y-95477392D01*
X119946806Y-95512455D01*
X119977815Y-95538475D01*
X119981805Y-95542131D01*
X121057863Y-96618189D01*
X121061518Y-96622178D01*
X121087541Y-96653190D01*
X121087543Y-96653191D01*
X121087545Y-96653194D01*
X121087547Y-96653195D01*
X121087548Y-96653196D01*
X121122599Y-96673433D01*
X121127162Y-96676339D01*
X121160316Y-96699554D01*
X121160319Y-96699554D01*
X121165176Y-96701820D01*
X121181933Y-96708760D01*
X121186950Y-96710586D01*
X121186952Y-96710586D01*
X121186955Y-96710588D01*
X121226818Y-96717616D01*
X121232076Y-96718782D01*
X121271193Y-96729264D01*
X121311518Y-96725735D01*
X121316922Y-96725500D01*
X123832468Y-96725500D01*
X123899507Y-96745185D01*
X123945262Y-96797989D01*
X123955206Y-96867147D01*
X123930844Y-96924986D01*
X123875464Y-96997157D01*
X123814956Y-97143237D01*
X123814955Y-97143239D01*
X123794318Y-97299998D01*
X123794318Y-97300001D01*
X123814955Y-97456760D01*
X123814956Y-97456762D01*
X123873027Y-97596959D01*
X123875464Y-97602841D01*
X123971718Y-97728282D01*
X124025987Y-97769924D01*
X124067189Y-97826349D01*
X124074500Y-97868299D01*
X124074499Y-98113812D01*
X124054814Y-98180851D01*
X124038180Y-98201492D01*
X123514036Y-98725637D01*
X122989974Y-99249699D01*
X122989971Y-99249702D01*
X122540174Y-99699500D01*
X122121493Y-100118181D01*
X122060170Y-100151666D01*
X122033812Y-100154500D01*
X121724500Y-100154500D01*
X121657461Y-100134815D01*
X121611706Y-100082011D01*
X121600500Y-100030500D01*
X121600500Y-99260249D01*
X121600499Y-99260247D01*
X121588868Y-99201770D01*
X121588867Y-99201769D01*
X121544552Y-99135447D01*
X121478230Y-99091132D01*
X121478229Y-99091131D01*
X121419752Y-99079500D01*
X121419748Y-99079500D01*
X118980252Y-99079500D01*
X118980247Y-99079500D01*
X118921770Y-99091131D01*
X118921769Y-99091132D01*
X118855447Y-99135447D01*
X118811132Y-99201769D01*
X118811131Y-99201770D01*
X118799500Y-99260247D01*
X118799500Y-101699752D01*
X118811131Y-101758229D01*
X118811132Y-101758230D01*
X118855447Y-101824552D01*
X118921769Y-101868867D01*
X118921770Y-101868868D01*
X118980247Y-101880499D01*
X118980250Y-101880500D01*
X118980252Y-101880500D01*
X121419750Y-101880500D01*
X121419751Y-101880499D01*
X121434568Y-101877552D01*
X121478229Y-101868868D01*
X121478229Y-101868867D01*
X121478231Y-101868867D01*
X121544552Y-101824552D01*
X121588867Y-101758231D01*
X121588867Y-101758229D01*
X121588868Y-101758229D01*
X121600350Y-101700500D01*
X121600500Y-101699748D01*
X121600500Y-100929500D01*
X121620185Y-100862461D01*
X121672989Y-100816706D01*
X121724500Y-100805500D01*
X122203078Y-100805500D01*
X122208481Y-100805735D01*
X122248807Y-100809264D01*
X122287940Y-100798777D01*
X122293162Y-100797619D01*
X122333045Y-100790588D01*
X122333050Y-100790584D01*
X122338099Y-100788747D01*
X122354824Y-100781819D01*
X122359681Y-100779554D01*
X122359684Y-100779554D01*
X122392841Y-100756335D01*
X122397390Y-100753438D01*
X122432455Y-100733194D01*
X122458481Y-100702176D01*
X122462122Y-100698202D01*
X123450298Y-99710029D01*
X123450299Y-99710026D01*
X123457359Y-99702967D01*
X123457364Y-99702960D01*
X124618210Y-98542115D01*
X124622172Y-98538484D01*
X124653194Y-98512455D01*
X124673444Y-98477379D01*
X124676328Y-98472852D01*
X124699554Y-98439684D01*
X124699554Y-98439681D01*
X124701819Y-98434824D01*
X124708747Y-98418099D01*
X124710587Y-98413046D01*
X124710588Y-98413045D01*
X124717621Y-98373150D01*
X124718777Y-98367937D01*
X124729263Y-98328807D01*
X124725735Y-98288489D01*
X124725500Y-98283086D01*
X124725500Y-97868298D01*
X124745185Y-97801259D01*
X124774010Y-97769925D01*
X124828282Y-97728282D01*
X124852125Y-97697208D01*
X124908549Y-97656008D01*
X124978295Y-97651852D01*
X125039216Y-97686063D01*
X125071970Y-97747779D01*
X125074499Y-97772696D01*
X125074499Y-100227303D01*
X125054814Y-100294342D01*
X125002010Y-100340097D01*
X124932852Y-100350041D01*
X124869296Y-100321016D01*
X124852125Y-100302792D01*
X124828282Y-100271718D01*
X124702841Y-100175464D01*
X124652584Y-100154647D01*
X124556762Y-100114956D01*
X124556760Y-100114955D01*
X124400001Y-100094318D01*
X124399999Y-100094318D01*
X124243239Y-100114955D01*
X124243237Y-100114956D01*
X124097160Y-100175463D01*
X123971718Y-100271718D01*
X123875463Y-100397160D01*
X123814956Y-100543237D01*
X123814955Y-100543239D01*
X123794318Y-100699998D01*
X123794318Y-100700001D01*
X123814955Y-100856760D01*
X123814957Y-100856765D01*
X123865060Y-100977725D01*
X123874499Y-101025177D01*
X123874499Y-102113812D01*
X123854814Y-102180851D01*
X123838180Y-102201493D01*
X121401493Y-104638181D01*
X121340170Y-104671666D01*
X121313812Y-104674500D01*
X120994140Y-104674500D01*
X120927101Y-104654815D01*
X120889146Y-104616472D01*
X120852907Y-104558798D01*
X120812964Y-104495228D01*
X120684772Y-104367036D01*
X120575706Y-104298506D01*
X120531267Y-104270583D01*
X120531264Y-104270582D01*
X120384277Y-104219149D01*
X120360151Y-104210707D01*
X120360150Y-104210706D01*
X120360145Y-104210705D01*
X120180004Y-104190409D01*
X120179996Y-104190409D01*
X119999854Y-104210705D01*
X119828735Y-104270582D01*
X119828732Y-104270583D01*
X119675227Y-104367036D01*
X119547036Y-104495227D01*
X119450583Y-104648732D01*
X119450582Y-104648735D01*
X119390705Y-104819854D01*
X119370409Y-104999996D01*
X119370409Y-105000003D01*
X119390705Y-105180145D01*
X119450582Y-105351264D01*
X119450583Y-105351267D01*
X119526234Y-105471666D01*
X119547036Y-105504772D01*
X119675228Y-105632964D01*
X119683531Y-105638181D01*
X119695189Y-105645506D01*
X119741480Y-105697841D01*
X119752128Y-105766894D01*
X119723753Y-105830743D01*
X119665364Y-105869115D01*
X119629217Y-105874500D01*
X118730783Y-105874500D01*
X118663744Y-105854815D01*
X118617989Y-105802011D01*
X118608045Y-105732853D01*
X118637070Y-105669297D01*
X118664811Y-105645506D01*
X118684772Y-105632964D01*
X118812964Y-105504772D01*
X118909416Y-105351268D01*
X118969293Y-105180151D01*
X118969294Y-105180145D01*
X118989591Y-105000003D01*
X118989591Y-104999996D01*
X118969294Y-104819854D01*
X118969293Y-104819852D01*
X118969293Y-104819849D01*
X118909416Y-104648732D01*
X118812964Y-104495228D01*
X118684772Y-104367036D01*
X118644068Y-104341460D01*
X118563528Y-104290853D01*
X118517237Y-104238518D01*
X118505500Y-104185859D01*
X118505500Y-104016909D01*
X118505736Y-104011502D01*
X118507884Y-103986959D01*
X118509263Y-103971193D01*
X118509262Y-103971192D01*
X118509263Y-103971191D01*
X118498786Y-103932092D01*
X118497617Y-103926824D01*
X118490588Y-103886955D01*
X118490587Y-103886954D01*
X118490587Y-103886951D01*
X118488765Y-103881947D01*
X118481815Y-103865168D01*
X118479554Y-103860319D01*
X118479553Y-103860318D01*
X118479553Y-103860316D01*
X118456333Y-103827154D01*
X118453435Y-103822604D01*
X118439541Y-103798539D01*
X118433194Y-103787545D01*
X118433191Y-103787542D01*
X118433190Y-103787541D01*
X118416189Y-103773276D01*
X118402182Y-103761522D01*
X118398210Y-103757883D01*
X118022119Y-103381793D01*
X118018474Y-103377814D01*
X117992456Y-103346807D01*
X117992455Y-103346806D01*
X117981058Y-103340226D01*
X117957392Y-103326561D01*
X117952831Y-103323655D01*
X117921176Y-103301491D01*
X117919684Y-103300446D01*
X117919681Y-103300445D01*
X117914861Y-103298197D01*
X117898055Y-103291235D01*
X117893043Y-103289411D01*
X117853190Y-103282383D01*
X117847910Y-103281212D01*
X117808808Y-103270735D01*
X117773892Y-103273790D01*
X117768481Y-103274264D01*
X117763078Y-103274500D01*
X114296922Y-103274500D01*
X114291518Y-103274264D01*
X114286107Y-103273790D01*
X114251192Y-103270735D01*
X114251191Y-103270735D01*
X114212091Y-103281212D01*
X114206811Y-103282383D01*
X114166959Y-103289410D01*
X114161961Y-103291229D01*
X114145117Y-103298206D01*
X114140313Y-103300446D01*
X114107166Y-103323656D01*
X114102606Y-103326562D01*
X114067548Y-103346804D01*
X114067540Y-103346810D01*
X114041523Y-103377815D01*
X114037869Y-103381804D01*
X113561803Y-103857870D01*
X113557814Y-103861525D01*
X113526805Y-103887545D01*
X113506562Y-103922606D01*
X113503656Y-103927166D01*
X113480446Y-103960313D01*
X113478206Y-103965117D01*
X113471229Y-103981961D01*
X113469410Y-103986959D01*
X113462383Y-104026811D01*
X113461212Y-104032091D01*
X113450735Y-104071191D01*
X113454264Y-104111513D01*
X113454500Y-104116920D01*
X113454500Y-105013811D01*
X113434815Y-105080850D01*
X113418181Y-105101492D01*
X112881493Y-105638181D01*
X112820170Y-105671666D01*
X112793812Y-105674500D01*
X106214795Y-105674500D01*
X106147756Y-105654815D01*
X106105437Y-105608953D01*
X106015914Y-105441467D01*
X106015909Y-105441460D01*
X105890883Y-105289116D01*
X105738539Y-105164090D01*
X105738532Y-105164086D01*
X105564733Y-105071188D01*
X105564727Y-105071186D01*
X105379363Y-105014956D01*
X105376129Y-105013975D01*
X105180000Y-104994659D01*
X104983870Y-105013975D01*
X104795266Y-105071188D01*
X104621467Y-105164086D01*
X104621460Y-105164090D01*
X104469116Y-105289116D01*
X104344090Y-105441460D01*
X104344086Y-105441467D01*
X104251188Y-105615266D01*
X104193975Y-105803870D01*
X104174659Y-106000000D01*
X104193975Y-106196129D01*
X104193976Y-106196132D01*
X104228695Y-106310586D01*
X104251188Y-106384733D01*
X104344086Y-106558532D01*
X104344090Y-106558539D01*
X104469116Y-106710883D01*
X104621460Y-106835909D01*
X104621467Y-106835913D01*
X104795266Y-106928811D01*
X104795269Y-106928811D01*
X104795273Y-106928814D01*
X104983868Y-106986024D01*
X105180000Y-107005341D01*
X105376132Y-106986024D01*
X105564727Y-106928814D01*
X105598826Y-106910588D01*
X105706204Y-106853193D01*
X105738538Y-106835910D01*
X105890883Y-106710883D01*
X106015910Y-106558538D01*
X106015910Y-106558536D01*
X106015914Y-106558532D01*
X106105437Y-106391047D01*
X106154399Y-106341202D01*
X106214795Y-106325500D01*
X112963078Y-106325500D01*
X112968481Y-106325735D01*
X113008807Y-106329264D01*
X113047940Y-106318777D01*
X113053162Y-106317619D01*
X113093045Y-106310588D01*
X113093050Y-106310584D01*
X113098099Y-106308747D01*
X113114824Y-106301819D01*
X113119681Y-106299554D01*
X113119684Y-106299554D01*
X113152841Y-106276335D01*
X113157390Y-106273438D01*
X113192455Y-106253194D01*
X113218481Y-106222176D01*
X113222122Y-106218202D01*
X113998204Y-105442120D01*
X114002166Y-105438489D01*
X114033194Y-105412455D01*
X114053438Y-105377390D01*
X114056335Y-105372841D01*
X114079554Y-105339684D01*
X114079554Y-105339681D01*
X114081819Y-105334824D01*
X114088747Y-105318099D01*
X114090584Y-105313050D01*
X114090588Y-105313045D01*
X114097619Y-105273162D01*
X114098777Y-105267940D01*
X114109264Y-105228807D01*
X114105735Y-105188478D01*
X114105500Y-105183075D01*
X114105500Y-105000003D01*
X115370409Y-105000003D01*
X115390705Y-105180145D01*
X115450582Y-105351264D01*
X115450583Y-105351267D01*
X115526234Y-105471666D01*
X115547036Y-105504772D01*
X115675228Y-105632964D01*
X115828732Y-105729416D01*
X115999849Y-105789293D01*
X115999852Y-105789293D01*
X115999854Y-105789294D01*
X116179996Y-105809591D01*
X116180000Y-105809591D01*
X116180004Y-105809591D01*
X116360145Y-105789294D01*
X116360146Y-105789293D01*
X116360151Y-105789293D01*
X116531268Y-105729416D01*
X116684772Y-105632964D01*
X116812964Y-105504772D01*
X116909416Y-105351268D01*
X116969293Y-105180151D01*
X116969294Y-105180145D01*
X116989591Y-105000003D01*
X116989591Y-104999996D01*
X116969294Y-104819854D01*
X116969293Y-104819852D01*
X116969293Y-104819849D01*
X116909416Y-104648732D01*
X116812964Y-104495228D01*
X116684772Y-104367036D01*
X116575706Y-104298506D01*
X116531267Y-104270583D01*
X116531264Y-104270582D01*
X116384277Y-104219149D01*
X116360151Y-104210707D01*
X116360150Y-104210706D01*
X116360145Y-104210705D01*
X116180004Y-104190409D01*
X116179996Y-104190409D01*
X115999854Y-104210705D01*
X115828735Y-104270582D01*
X115828732Y-104270583D01*
X115675227Y-104367036D01*
X115547036Y-104495227D01*
X115450583Y-104648732D01*
X115450582Y-104648735D01*
X115390705Y-104819854D01*
X115370409Y-104999996D01*
X115370409Y-105000003D01*
X114105500Y-105000003D01*
X114105500Y-104286188D01*
X114125185Y-104219149D01*
X114141819Y-104198507D01*
X114378507Y-103961819D01*
X114439830Y-103928334D01*
X114466188Y-103925500D01*
X117593812Y-103925500D01*
X117660851Y-103945185D01*
X117681493Y-103961819D01*
X117817979Y-104098305D01*
X117851464Y-104159628D01*
X117846480Y-104229320D01*
X117804608Y-104285253D01*
X117796270Y-104290980D01*
X117675227Y-104367036D01*
X117547036Y-104495227D01*
X117450583Y-104648732D01*
X117450582Y-104648735D01*
X117390705Y-104819854D01*
X117370409Y-104999996D01*
X117370409Y-105000003D01*
X117390705Y-105180145D01*
X117450582Y-105351264D01*
X117450583Y-105351267D01*
X117526234Y-105471666D01*
X117547036Y-105504772D01*
X117675228Y-105632964D01*
X117683531Y-105638181D01*
X117695189Y-105645506D01*
X117741480Y-105697841D01*
X117752128Y-105766894D01*
X117723753Y-105830743D01*
X117665364Y-105869115D01*
X117629217Y-105874500D01*
X117496922Y-105874500D01*
X117491518Y-105874264D01*
X117486107Y-105873790D01*
X117451192Y-105870735D01*
X117451191Y-105870735D01*
X117412091Y-105881212D01*
X117406811Y-105882383D01*
X117366959Y-105889410D01*
X117361961Y-105891229D01*
X117345117Y-105898206D01*
X117340313Y-105900446D01*
X117307166Y-105923656D01*
X117302606Y-105926562D01*
X117267548Y-105946804D01*
X117267540Y-105946810D01*
X117241523Y-105977815D01*
X117237869Y-105981804D01*
X116525484Y-106694188D01*
X116464161Y-106727673D01*
X116396848Y-106723548D01*
X116360147Y-106710705D01*
X116180004Y-106690409D01*
X116179996Y-106690409D01*
X115999854Y-106710705D01*
X115828735Y-106770582D01*
X115828732Y-106770583D01*
X115675227Y-106867036D01*
X115547036Y-106995227D01*
X115450583Y-107148732D01*
X115450582Y-107148735D01*
X115390705Y-107319854D01*
X115370409Y-107499996D01*
X115370409Y-107500003D01*
X115390705Y-107680145D01*
X115450582Y-107851264D01*
X115450583Y-107851267D01*
X115522151Y-107965168D01*
X115547036Y-108004772D01*
X115675228Y-108132964D01*
X115828732Y-108229416D01*
X115999849Y-108289293D01*
X115999852Y-108289293D01*
X115999854Y-108289294D01*
X116179996Y-108309591D01*
X116180000Y-108309591D01*
X116180004Y-108309591D01*
X116360145Y-108289294D01*
X116360146Y-108289293D01*
X116360151Y-108289293D01*
X116531268Y-108229416D01*
X116684772Y-108132964D01*
X116812964Y-108004772D01*
X116909416Y-107851268D01*
X116969293Y-107680151D01*
X116969927Y-107674526D01*
X116989591Y-107500003D01*
X116989591Y-107499996D01*
X116969294Y-107319852D01*
X116969226Y-107319659D01*
X116956451Y-107283149D01*
X116952889Y-107213370D01*
X116985809Y-107154515D01*
X117578506Y-106561819D01*
X117639830Y-106528334D01*
X117666188Y-106525500D01*
X117799329Y-106525500D01*
X117866368Y-106545185D01*
X117912123Y-106597989D01*
X117922067Y-106667147D01*
X117893042Y-106730703D01*
X117840282Y-106766542D01*
X117828737Y-106770581D01*
X117828732Y-106770583D01*
X117675227Y-106867036D01*
X117547036Y-106995227D01*
X117450583Y-107148732D01*
X117450582Y-107148735D01*
X117390705Y-107319854D01*
X117370409Y-107499996D01*
X117370409Y-107500003D01*
X117390705Y-107680145D01*
X117450582Y-107851264D01*
X117450583Y-107851267D01*
X117547036Y-108004772D01*
X117675227Y-108132963D01*
X117680674Y-108137307D01*
X117679536Y-108138733D01*
X117719733Y-108184171D01*
X117730386Y-108253223D01*
X117702014Y-108317074D01*
X117695154Y-108324518D01*
X117181493Y-108838181D01*
X117120170Y-108871666D01*
X117093812Y-108874500D01*
X103066188Y-108874500D01*
X102999149Y-108854815D01*
X102978506Y-108838180D01*
X102941818Y-108801491D01*
X102908333Y-108740167D01*
X102905500Y-108713811D01*
X102905500Y-107124499D01*
X102925185Y-107057460D01*
X102977989Y-107011705D01*
X103029500Y-107000499D01*
X103079363Y-107000499D01*
X103196753Y-106985046D01*
X103196757Y-106985044D01*
X103196762Y-106985044D01*
X103342841Y-106924536D01*
X103468282Y-106828282D01*
X103564536Y-106702841D01*
X103625044Y-106556762D01*
X103640500Y-106439361D01*
X103640499Y-105560640D01*
X103640499Y-105560638D01*
X103640499Y-105560636D01*
X103625046Y-105443246D01*
X103625044Y-105443239D01*
X103625044Y-105443238D01*
X103564536Y-105297159D01*
X103468282Y-105171718D01*
X103342841Y-105075464D01*
X103196762Y-105014956D01*
X103196760Y-105014955D01*
X103079361Y-104999500D01*
X102200636Y-104999500D01*
X102083246Y-105014953D01*
X102083237Y-105014956D01*
X101937160Y-105075463D01*
X101811718Y-105171718D01*
X101715463Y-105297160D01*
X101654956Y-105443237D01*
X101654955Y-105443239D01*
X101639500Y-105560638D01*
X101639500Y-106439363D01*
X94000000Y-106439363D01*
X94000000Y-100920000D01*
X105514778Y-100920000D01*
X105533162Y-101200492D01*
X105533644Y-101207837D01*
X105533646Y-101207849D01*
X105589917Y-101490745D01*
X105589921Y-101490760D01*
X105682642Y-101763905D01*
X105810219Y-102022606D01*
X105810223Y-102022613D01*
X105970478Y-102262452D01*
X106160672Y-102479327D01*
X106377547Y-102669521D01*
X106529619Y-102771132D01*
X106617389Y-102829778D01*
X106876098Y-102957359D01*
X107149247Y-103050081D01*
X107432161Y-103106356D01*
X107720000Y-103125222D01*
X108007839Y-103106356D01*
X108290753Y-103050081D01*
X108563902Y-102957359D01*
X108822611Y-102829778D01*
X109062454Y-102669520D01*
X109279327Y-102479327D01*
X109469520Y-102262454D01*
X109629778Y-102022611D01*
X109757359Y-101763902D01*
X109850081Y-101490753D01*
X109906356Y-101207839D01*
X109925222Y-100920000D01*
X109906356Y-100632161D01*
X109850081Y-100349247D01*
X109757359Y-100076098D01*
X109629778Y-99817389D01*
X109607954Y-99784727D01*
X109469521Y-99577547D01*
X109279327Y-99360672D01*
X109062452Y-99170478D01*
X108822613Y-99010223D01*
X108822606Y-99010219D01*
X108563905Y-98882642D01*
X108290760Y-98789921D01*
X108290754Y-98789919D01*
X108290753Y-98789919D01*
X108290751Y-98789918D01*
X108290745Y-98789917D01*
X108007849Y-98733646D01*
X108007839Y-98733644D01*
X107720000Y-98714778D01*
X107432161Y-98733644D01*
X107432155Y-98733645D01*
X107432150Y-98733646D01*
X107149254Y-98789917D01*
X107149239Y-98789921D01*
X106876094Y-98882642D01*
X106617393Y-99010219D01*
X106617386Y-99010223D01*
X106377547Y-99170478D01*
X106160672Y-99360672D01*
X105970478Y-99577547D01*
X105810223Y-99817386D01*
X105810219Y-99817393D01*
X105682642Y-100076094D01*
X105589921Y-100349239D01*
X105589917Y-100349254D01*
X105533646Y-100632150D01*
X105533644Y-100632161D01*
X105514778Y-100920000D01*
X94000000Y-100920000D01*
X94000000Y-93038653D01*
X94019685Y-92971614D01*
X94072489Y-92925859D01*
X94141647Y-92915915D01*
X94205203Y-92944940D01*
X94226633Y-92969066D01*
X94273814Y-93038653D01*
X94288910Y-93060917D01*
X94527627Y-93341956D01*
X94795330Y-93595538D01*
X95088881Y-93818690D01*
X95404838Y-94008795D01*
X95404840Y-94008796D01*
X95404842Y-94008797D01*
X95404846Y-94008799D01*
X95618699Y-94107738D01*
X95739497Y-94163625D01*
X96088934Y-94281364D01*
X96449052Y-94360632D01*
X96815630Y-94400500D01*
X96815636Y-94400500D01*
X97184364Y-94400500D01*
X97184370Y-94400500D01*
X97550948Y-94360632D01*
X97911066Y-94281364D01*
X98260503Y-94163625D01*
X98595162Y-94008795D01*
X98911119Y-93818690D01*
X99204670Y-93595538D01*
X99472373Y-93341956D01*
X99711090Y-93060917D01*
X99918022Y-92755716D01*
X100090743Y-92429930D01*
X100227227Y-92087379D01*
X100325875Y-91732081D01*
X100385531Y-91368199D01*
X100405494Y-91000000D01*
X100404889Y-90988849D01*
X100393365Y-90776300D01*
X100385531Y-90631801D01*
X100372334Y-90551305D01*
X100325877Y-90267931D01*
X100325876Y-90267930D01*
X100325875Y-90267919D01*
X100227227Y-89912621D01*
X100090743Y-89570070D01*
X99940183Y-89286084D01*
X99918026Y-89244291D01*
X99918024Y-89244288D01*
X99918022Y-89244284D01*
X99711090Y-88939083D01*
X99472373Y-88658044D01*
X99204670Y-88404462D01*
X98965586Y-88222714D01*
X98924130Y-88166474D01*
X98919661Y-88096748D01*
X98953598Y-88035674D01*
X99015167Y-88002642D01*
X99040629Y-88000000D01*
X185959371Y-88000000D01*
X186026410Y-88019685D01*
G37*
%TD.AperFunction*%
%TD*%
M02*
