M48
; DRILL file {KiCad 7.0.7} date Fri Sep 22 00:24:42 2023
; FORMAT={-:-/ absolute / inch / decimal}
; #@! TF.CreationDate,2023-09-22T00:24:42-06:00
; #@! TF.GenerationSoftware,Kicad,Pcbnew,7.0.7
; #@! TF.FileFunction,MixedPlating,1,2
FMAT,2
INCH
; #@! TA.AperFunction,Plated,PTH,ViaDrill
T1C0.0157
; #@! TA.AperFunction,Plated,PTH,ComponentDrill
T2C0.0197
; #@! TA.AperFunction,Plated,PTH,ComponentDrill
T3C0.0276
; #@! TA.AperFunction,Plated,PTH,ComponentDrill
T4C0.0315
; #@! TA.AperFunction,Plated,PTH,ComponentDrill
T5C0.0354
; #@! TA.AperFunction,Plated,PTH,ComponentDrill
T6C0.0433
; #@! TA.AperFunction,Plated,PTH,ComponentDrill
T7C0.0472
; #@! TA.AperFunction,Plated,PTH,ComponentDrill
T8C0.0512
; #@! TA.AperFunction,Plated,PTH,ComponentDrill
T9C0.0787
; #@! TA.AperFunction,Plated,PTH,ComponentDrill
T10C0.1260
%
G90
G05
T1
X4.8976Y-3.8307
X4.8976Y-3.9646
X4.9016Y-3.7638
X4.9724Y-3.9646
X4.9724Y-4.2402
X5.0394Y-4.2402
X5.8386Y-3.8583
X5.9291Y-4.7598
X5.9331Y-4.3543
X5.9331Y-4.4331
X5.9331Y-4.685
X5.937Y-3.8583
X6.2008Y-3.8228
X6.2008Y-3.9173
T2
X3.7244Y-3.5827
X3.7244Y-4.9213
X3.7521Y-3.5159
X3.7521Y-3.6495
X3.7521Y-4.8544
X3.7521Y-4.9881
X3.8189Y-3.4882
X3.8189Y-3.6772
X3.8189Y-4.8268
X3.8189Y-5.0157
X3.8857Y-3.5159
X3.8857Y-3.6495
X3.8857Y-4.8544
X3.8857Y-4.9881
X3.9134Y-3.5827
X3.9134Y-4.9213
X7.3071Y-3.5827
X7.3071Y-4.9213
X7.3348Y-3.5159
X7.3348Y-3.6495
X7.3348Y-4.8544
X7.3348Y-4.9881
X7.4016Y-3.4882
X7.4016Y-3.6772
X7.4016Y-4.8268
X7.4016Y-5.0157
X7.4684Y-3.5159
X7.4684Y-3.6495
X7.4684Y-4.8544
X7.4684Y-4.9881
X7.4961Y-3.5827
X7.4961Y-4.9213
T3
X4.574Y-4.1339
X4.574Y-4.2323
X4.6528Y-4.1339
X4.6528Y-4.2323
X4.7315Y-4.1339
X4.7315Y-4.2323
T4
X5.2709Y-4.0384
X5.2709Y-4.811
X5.2713Y-3.9134
X5.2713Y-4.1654
X5.2713Y-4.2953
X5.2713Y-4.4252
X5.2713Y-4.5551
X5.374Y-4.6811
X5.5709Y-4.0384
X5.5709Y-4.6811
X5.5709Y-4.811
X5.5713Y-3.9134
X5.5713Y-4.1654
X5.5713Y-4.2953
X5.5713Y-4.4252
X5.5713Y-4.5551
X5.7197Y-4.0679
X5.7197Y-4.2648
X5.8339Y-3.9646
X5.8339Y-4.0646
X5.8339Y-4.1646
X5.8339Y-4.2646
X5.8339Y-4.3646
X5.8339Y-4.4646
X5.8339Y-4.5646
X6.1339Y-3.9646
X6.1339Y-4.0646
X6.1339Y-4.1646
X6.1339Y-4.2646
X6.1339Y-4.3646
X6.1339Y-4.4646
X6.1339Y-4.5646
X6.252Y-4.2677
X6.252Y-4.4646
X6.3972Y-4.0039
X6.3972Y-4.5157
X6.3972Y-4.6457
X6.3972Y-4.7717
X6.3976Y-4.1299
X6.3976Y-4.2559
X6.3976Y-4.3858
X6.4008Y-4.9094
X6.5945Y-4.2559
X6.5945Y-4.3858
X6.6972Y-4.0039
X6.6972Y-4.5157
X6.6972Y-4.6457
X6.6972Y-4.7717
X6.6976Y-4.1299
X6.7008Y-4.9094
T5
X4.0409Y-4.1732
X4.1409Y-4.1732
X6.9291Y-4.8425
X7.0291Y-4.8425
X7.2031Y-4.1732
X7.3031Y-4.1732
T6
X4.6071Y-4.8622
X5.0071Y-4.8622
T7
X4.6071Y-4.626
X4.7323Y-3.5559
X4.7323Y-3.9559
X4.8425Y-4.4488
X5.0071Y-4.626
X5.4331Y-3.7402
X5.7283Y-4.7165
X6.1024Y-4.7953
X7.0472Y-3.7008
X7.2126Y-4.7087
T8
X4.1982Y-4.8348
X4.3982Y-4.8348
X6.4535Y-3.6614
X6.6535Y-3.6614
T9
X3.8409Y-4.3732
X4.2409Y-3.9732
X7.0031Y-4.3732
X7.4031Y-3.9732
T10
X3.8189Y-3.5827
X3.8189Y-4.9213
X7.4016Y-3.5827
X7.4016Y-4.9213
T0
M30
