%TF.GenerationSoftware,KiCad,Pcbnew,7.0.7*%
%TF.CreationDate,2023-09-22T00:24:37-06:00*%
%TF.ProjectId,Basic_Diff_Probe,42617369-635f-4446-9966-665f50726f62,1*%
%TF.SameCoordinates,Original*%
%TF.FileFunction,Soldermask,Bot*%
%TF.FilePolarity,Negative*%
%FSLAX46Y46*%
G04 Gerber Fmt 4.6, Leading zero omitted, Abs format (unit mm)*
G04 Created by KiCad (PCBNEW 7.0.7) date 2023-09-22 00:24:37*
%MOMM*%
%LPD*%
G01*
G04 APERTURE LIST*
G04 Aperture macros list*
%AMRoundRect*
0 Rectangle with rounded corners*
0 $1 Rounding radius*
0 $2 $3 $4 $5 $6 $7 $8 $9 X,Y pos of 4 corners*
0 Add a 4 corners polygon primitive as box body*
4,1,4,$2,$3,$4,$5,$6,$7,$8,$9,$2,$3,0*
0 Add four circle primitives for the rounded corners*
1,1,$1+$1,$2,$3*
1,1,$1+$1,$4,$5*
1,1,$1+$1,$6,$7*
1,1,$1+$1,$8,$9*
0 Add four rect primitives between the rounded corners*
20,1,$1+$1,$2,$3,$4,$5,0*
20,1,$1+$1,$4,$5,$6,$7,0*
20,1,$1+$1,$6,$7,$8,$9,0*
20,1,$1+$1,$8,$9,$2,$3,0*%
G04 Aperture macros list end*
%ADD10R,2.500000X2.500000*%
%ADD11C,1.600000*%
%ADD12O,1.600000X1.600000*%
%ADD13R,2.200000X2.200000*%
%ADD14O,2.200000X2.200000*%
%ADD15R,1.800000X1.800000*%
%ADD16C,1.800000*%
%ADD17C,0.800000*%
%ADD18C,6.400000*%
%ADD19R,2.400000X2.400000*%
%ADD20O,2.400000X2.400000*%
%ADD21R,1.600000X1.600000*%
%ADD22R,2.600000X2.600000*%
%ADD23C,2.600000*%
%ADD24C,4.000000*%
%ADD25RoundRect,0.400000X0.400000X0.400000X-0.400000X0.400000X-0.400000X-0.400000X0.400000X-0.400000X0*%
%ADD26RoundRect,0.102000X0.604000X0.604000X-0.604000X0.604000X-0.604000X-0.604000X0.604000X-0.604000X0*%
%ADD27C,1.412000*%
G04 APERTURE END LIST*
D10*
%TO.C,TP4*%
X145500000Y-119800000D03*
%TD*%
%TO.C,TP2*%
X183200000Y-119600000D03*
%TD*%
D11*
%TO.C,R12*%
X133880000Y-122200000D03*
D12*
X141500000Y-122200000D03*
%TD*%
D11*
%TO.C,R10*%
X170110000Y-118000000D03*
D12*
X162490000Y-118000000D03*
%TD*%
D13*
%TO.C,D4*%
X127180000Y-123500000D03*
D14*
X117020000Y-123500000D03*
%TD*%
D15*
%TO.C,D1*%
X178540000Y-123000000D03*
D16*
X176000000Y-123000000D03*
%TD*%
D11*
%TO.C,R2*%
X162490000Y-121200000D03*
D12*
X170110000Y-121200000D03*
%TD*%
D11*
%TO.C,C5*%
X141500000Y-118900000D03*
X136500000Y-118900000D03*
%TD*%
%TO.C,R13*%
X170120000Y-104900000D03*
D12*
X162500000Y-104900000D03*
%TD*%
D11*
%TO.C,R6*%
X133880000Y-102575000D03*
D12*
X141500000Y-102575000D03*
%TD*%
D17*
%TO.C,H1*%
X94600000Y-91000000D03*
X95302944Y-89302944D03*
X95302944Y-92697056D03*
X97000000Y-88600000D03*
D18*
X97000000Y-91000000D03*
D17*
X97000000Y-93400000D03*
X98697056Y-89302944D03*
X98697056Y-92697056D03*
X99400000Y-91000000D03*
%TD*%
D11*
%TO.C,R11*%
X162490000Y-114700000D03*
D12*
X170110000Y-114700000D03*
%TD*%
D19*
%TO.C,D3*%
X120200000Y-100480000D03*
D20*
X120200000Y-90320000D03*
%TD*%
D10*
%TO.C,TP1*%
X138000000Y-95000000D03*
%TD*%
D21*
%TO.C,U2*%
X148180000Y-100700000D03*
D12*
X148180000Y-103240000D03*
X148180000Y-105780000D03*
X148180000Y-108320000D03*
X148180000Y-110860000D03*
X148180000Y-113400000D03*
X148180000Y-115940000D03*
X155800000Y-115940000D03*
X155800000Y-113400000D03*
X155800000Y-110860000D03*
X155800000Y-108320000D03*
X155800000Y-105780000D03*
X155800000Y-103240000D03*
X155800000Y-100700000D03*
%TD*%
D11*
%TO.C,C3*%
X162500000Y-111400000D03*
X167500000Y-111400000D03*
%TD*%
D17*
%TO.C,H3*%
X94600000Y-125000000D03*
X95302944Y-123302944D03*
X95302944Y-126697056D03*
X97000000Y-122600000D03*
D18*
X97000000Y-125000000D03*
D17*
X97000000Y-127400000D03*
X98697056Y-123302944D03*
X98697056Y-126697056D03*
X99400000Y-125000000D03*
%TD*%
D11*
%TO.C,R4*%
X141510000Y-115700000D03*
D12*
X133890000Y-115700000D03*
%TD*%
D11*
%TO.C,R8*%
X133890000Y-109100000D03*
D12*
X141510000Y-109100000D03*
%TD*%
D11*
%TO.C,C1*%
X162500000Y-108100000D03*
X167500000Y-108100000D03*
%TD*%
D17*
%TO.C,H2*%
X185600000Y-125000000D03*
X186302944Y-123302944D03*
X186302944Y-126697056D03*
X188000000Y-122600000D03*
D18*
X188000000Y-125000000D03*
D17*
X188000000Y-127400000D03*
X189697056Y-123302944D03*
X189697056Y-126697056D03*
X190400000Y-125000000D03*
%TD*%
D22*
%TO.C,J4*%
X169000000Y-93000000D03*
D23*
X163920000Y-93000000D03*
%TD*%
D11*
%TO.C,R16*%
X162490000Y-101700000D03*
D12*
X170110000Y-101700000D03*
%TD*%
D24*
%TO.C,J3*%
X97560000Y-111080000D03*
X107720000Y-100920000D03*
D25*
X102640000Y-106000000D03*
D11*
X105180000Y-106000000D03*
%TD*%
D19*
%TO.C,D2*%
X127180000Y-117500000D03*
D20*
X117020000Y-117500000D03*
%TD*%
D22*
%TO.C,J1*%
X106635000Y-122805000D03*
D23*
X111715000Y-122805000D03*
%TD*%
D10*
%TO.C,TP6*%
X155000000Y-121800000D03*
%TD*%
D11*
%TO.C,R5*%
X141510000Y-105800000D03*
D12*
X133890000Y-105800000D03*
%TD*%
D10*
%TO.C,TP5*%
X123000000Y-113000000D03*
%TD*%
D11*
%TO.C,C2*%
X158800000Y-113400000D03*
X158800000Y-108400000D03*
%TD*%
D17*
%TO.C,H4*%
X185600000Y-91000000D03*
X186302944Y-89302944D03*
X186302944Y-92697056D03*
X188000000Y-88600000D03*
D18*
X188000000Y-91000000D03*
D17*
X188000000Y-93400000D03*
X189697056Y-89302944D03*
X189697056Y-92697056D03*
X190400000Y-91000000D03*
%TD*%
D11*
%TO.C,R9*%
X133890000Y-99400000D03*
D12*
X141510000Y-99400000D03*
%TD*%
D24*
%TO.C,J2*%
X177880000Y-111080000D03*
X188040000Y-100920000D03*
D25*
X182960000Y-106000000D03*
D11*
X185500000Y-106000000D03*
%TD*%
%TO.C,R7*%
X141510000Y-112400000D03*
D12*
X133890000Y-112400000D03*
%TD*%
D11*
%TO.C,R1*%
X162580000Y-124700000D03*
D12*
X170200000Y-124700000D03*
%TD*%
D11*
%TO.C,C4*%
X145280000Y-103325000D03*
X145280000Y-108325000D03*
%TD*%
D10*
%TO.C,TP3*%
X179000000Y-94000000D03*
%TD*%
D26*
%TO.C,SW1*%
X120180000Y-107500000D03*
D27*
X118180000Y-107500000D03*
X116180000Y-107500000D03*
X120180000Y-105000000D03*
X118180000Y-105000000D03*
X116180000Y-105000000D03*
%TD*%
M02*
