%TF.GenerationSoftware,KiCad,Pcbnew,7.0.7*%
%TF.CreationDate,2023-09-22T00:24:37-06:00*%
%TF.ProjectId,Basic_Diff_Probe,42617369-635f-4446-9966-665f50726f62,1*%
%TF.SameCoordinates,Original*%
%TF.FileFunction,Legend,Top*%
%TF.FilePolarity,Positive*%
%FSLAX46Y46*%
G04 Gerber Fmt 4.6, Leading zero omitted, Abs format (unit mm)*
G04 Created by KiCad (PCBNEW 7.0.7) date 2023-09-22 00:24:37*
%MOMM*%
%LPD*%
G01*
G04 APERTURE LIST*
%ADD10C,0.150000*%
%ADD11C,0.120000*%
%ADD12C,0.127000*%
%ADD13C,0.200000*%
G04 APERTURE END LIST*
D10*
X103336779Y-88869819D02*
X103336779Y-87869819D01*
X103336779Y-87869819D02*
X103670112Y-88584104D01*
X103670112Y-88584104D02*
X104003445Y-87869819D01*
X104003445Y-87869819D02*
X104003445Y-88869819D01*
X104479636Y-88869819D02*
X104479636Y-87869819D01*
X104479636Y-87869819D02*
X105051064Y-88869819D01*
X105051064Y-88869819D02*
X105051064Y-87869819D01*
X135670112Y-88346009D02*
X135812969Y-88393628D01*
X135812969Y-88393628D02*
X135860588Y-88441247D01*
X135860588Y-88441247D02*
X135908207Y-88536485D01*
X135908207Y-88536485D02*
X135908207Y-88679342D01*
X135908207Y-88679342D02*
X135860588Y-88774580D01*
X135860588Y-88774580D02*
X135812969Y-88822200D01*
X135812969Y-88822200D02*
X135717731Y-88869819D01*
X135717731Y-88869819D02*
X135336779Y-88869819D01*
X135336779Y-88869819D02*
X135336779Y-87869819D01*
X135336779Y-87869819D02*
X135670112Y-87869819D01*
X135670112Y-87869819D02*
X135765350Y-87917438D01*
X135765350Y-87917438D02*
X135812969Y-87965057D01*
X135812969Y-87965057D02*
X135860588Y-88060295D01*
X135860588Y-88060295D02*
X135860588Y-88155533D01*
X135860588Y-88155533D02*
X135812969Y-88250771D01*
X135812969Y-88250771D02*
X135765350Y-88298390D01*
X135765350Y-88298390D02*
X135670112Y-88346009D01*
X135670112Y-88346009D02*
X135336779Y-88346009D01*
X136765350Y-88869819D02*
X136765350Y-88346009D01*
X136765350Y-88346009D02*
X136717731Y-88250771D01*
X136717731Y-88250771D02*
X136622493Y-88203152D01*
X136622493Y-88203152D02*
X136432017Y-88203152D01*
X136432017Y-88203152D02*
X136336779Y-88250771D01*
X136765350Y-88822200D02*
X136670112Y-88869819D01*
X136670112Y-88869819D02*
X136432017Y-88869819D01*
X136432017Y-88869819D02*
X136336779Y-88822200D01*
X136336779Y-88822200D02*
X136289160Y-88726961D01*
X136289160Y-88726961D02*
X136289160Y-88631723D01*
X136289160Y-88631723D02*
X136336779Y-88536485D01*
X136336779Y-88536485D02*
X136432017Y-88488866D01*
X136432017Y-88488866D02*
X136670112Y-88488866D01*
X136670112Y-88488866D02*
X136765350Y-88441247D01*
X137193922Y-88822200D02*
X137289160Y-88869819D01*
X137289160Y-88869819D02*
X137479636Y-88869819D01*
X137479636Y-88869819D02*
X137574874Y-88822200D01*
X137574874Y-88822200D02*
X137622493Y-88726961D01*
X137622493Y-88726961D02*
X137622493Y-88679342D01*
X137622493Y-88679342D02*
X137574874Y-88584104D01*
X137574874Y-88584104D02*
X137479636Y-88536485D01*
X137479636Y-88536485D02*
X137336779Y-88536485D01*
X137336779Y-88536485D02*
X137241541Y-88488866D01*
X137241541Y-88488866D02*
X137193922Y-88393628D01*
X137193922Y-88393628D02*
X137193922Y-88346009D01*
X137193922Y-88346009D02*
X137241541Y-88250771D01*
X137241541Y-88250771D02*
X137336779Y-88203152D01*
X137336779Y-88203152D02*
X137479636Y-88203152D01*
X137479636Y-88203152D02*
X137574874Y-88250771D01*
X138051065Y-88869819D02*
X138051065Y-88203152D01*
X138051065Y-87869819D02*
X138003446Y-87917438D01*
X138003446Y-87917438D02*
X138051065Y-87965057D01*
X138051065Y-87965057D02*
X138098684Y-87917438D01*
X138098684Y-87917438D02*
X138051065Y-87869819D01*
X138051065Y-87869819D02*
X138051065Y-87965057D01*
X138955826Y-88822200D02*
X138860588Y-88869819D01*
X138860588Y-88869819D02*
X138670112Y-88869819D01*
X138670112Y-88869819D02*
X138574874Y-88822200D01*
X138574874Y-88822200D02*
X138527255Y-88774580D01*
X138527255Y-88774580D02*
X138479636Y-88679342D01*
X138479636Y-88679342D02*
X138479636Y-88393628D01*
X138479636Y-88393628D02*
X138527255Y-88298390D01*
X138527255Y-88298390D02*
X138574874Y-88250771D01*
X138574874Y-88250771D02*
X138670112Y-88203152D01*
X138670112Y-88203152D02*
X138860588Y-88203152D01*
X138860588Y-88203152D02*
X138955826Y-88250771D01*
X140146303Y-88869819D02*
X140146303Y-87869819D01*
X140146303Y-87869819D02*
X140384398Y-87869819D01*
X140384398Y-87869819D02*
X140527255Y-87917438D01*
X140527255Y-87917438D02*
X140622493Y-88012676D01*
X140622493Y-88012676D02*
X140670112Y-88107914D01*
X140670112Y-88107914D02*
X140717731Y-88298390D01*
X140717731Y-88298390D02*
X140717731Y-88441247D01*
X140717731Y-88441247D02*
X140670112Y-88631723D01*
X140670112Y-88631723D02*
X140622493Y-88726961D01*
X140622493Y-88726961D02*
X140527255Y-88822200D01*
X140527255Y-88822200D02*
X140384398Y-88869819D01*
X140384398Y-88869819D02*
X140146303Y-88869819D01*
X141146303Y-88869819D02*
X141146303Y-88203152D01*
X141146303Y-87869819D02*
X141098684Y-87917438D01*
X141098684Y-87917438D02*
X141146303Y-87965057D01*
X141146303Y-87965057D02*
X141193922Y-87917438D01*
X141193922Y-87917438D02*
X141146303Y-87869819D01*
X141146303Y-87869819D02*
X141146303Y-87965057D01*
X141479636Y-88203152D02*
X141860588Y-88203152D01*
X141622493Y-88869819D02*
X141622493Y-88012676D01*
X141622493Y-88012676D02*
X141670112Y-87917438D01*
X141670112Y-87917438D02*
X141765350Y-87869819D01*
X141765350Y-87869819D02*
X141860588Y-87869819D01*
X142051065Y-88203152D02*
X142432017Y-88203152D01*
X142193922Y-88869819D02*
X142193922Y-88012676D01*
X142193922Y-88012676D02*
X142241541Y-87917438D01*
X142241541Y-87917438D02*
X142336779Y-87869819D01*
X142336779Y-87869819D02*
X142432017Y-87869819D01*
X143527256Y-88869819D02*
X143527256Y-87869819D01*
X143527256Y-87869819D02*
X143908208Y-87869819D01*
X143908208Y-87869819D02*
X144003446Y-87917438D01*
X144003446Y-87917438D02*
X144051065Y-87965057D01*
X144051065Y-87965057D02*
X144098684Y-88060295D01*
X144098684Y-88060295D02*
X144098684Y-88203152D01*
X144098684Y-88203152D02*
X144051065Y-88298390D01*
X144051065Y-88298390D02*
X144003446Y-88346009D01*
X144003446Y-88346009D02*
X143908208Y-88393628D01*
X143908208Y-88393628D02*
X143527256Y-88393628D01*
X144527256Y-88869819D02*
X144527256Y-88203152D01*
X144527256Y-88393628D02*
X144574875Y-88298390D01*
X144574875Y-88298390D02*
X144622494Y-88250771D01*
X144622494Y-88250771D02*
X144717732Y-88203152D01*
X144717732Y-88203152D02*
X144812970Y-88203152D01*
X145289161Y-88869819D02*
X145193923Y-88822200D01*
X145193923Y-88822200D02*
X145146304Y-88774580D01*
X145146304Y-88774580D02*
X145098685Y-88679342D01*
X145098685Y-88679342D02*
X145098685Y-88393628D01*
X145098685Y-88393628D02*
X145146304Y-88298390D01*
X145146304Y-88298390D02*
X145193923Y-88250771D01*
X145193923Y-88250771D02*
X145289161Y-88203152D01*
X145289161Y-88203152D02*
X145432018Y-88203152D01*
X145432018Y-88203152D02*
X145527256Y-88250771D01*
X145527256Y-88250771D02*
X145574875Y-88298390D01*
X145574875Y-88298390D02*
X145622494Y-88393628D01*
X145622494Y-88393628D02*
X145622494Y-88679342D01*
X145622494Y-88679342D02*
X145574875Y-88774580D01*
X145574875Y-88774580D02*
X145527256Y-88822200D01*
X145527256Y-88822200D02*
X145432018Y-88869819D01*
X145432018Y-88869819D02*
X145289161Y-88869819D01*
X146051066Y-88869819D02*
X146051066Y-87869819D01*
X146051066Y-88250771D02*
X146146304Y-88203152D01*
X146146304Y-88203152D02*
X146336780Y-88203152D01*
X146336780Y-88203152D02*
X146432018Y-88250771D01*
X146432018Y-88250771D02*
X146479637Y-88298390D01*
X146479637Y-88298390D02*
X146527256Y-88393628D01*
X146527256Y-88393628D02*
X146527256Y-88679342D01*
X146527256Y-88679342D02*
X146479637Y-88774580D01*
X146479637Y-88774580D02*
X146432018Y-88822200D01*
X146432018Y-88822200D02*
X146336780Y-88869819D01*
X146336780Y-88869819D02*
X146146304Y-88869819D01*
X146146304Y-88869819D02*
X146051066Y-88822200D01*
X147336780Y-88822200D02*
X147241542Y-88869819D01*
X147241542Y-88869819D02*
X147051066Y-88869819D01*
X147051066Y-88869819D02*
X146955828Y-88822200D01*
X146955828Y-88822200D02*
X146908209Y-88726961D01*
X146908209Y-88726961D02*
X146908209Y-88346009D01*
X146908209Y-88346009D02*
X146955828Y-88250771D01*
X146955828Y-88250771D02*
X147051066Y-88203152D01*
X147051066Y-88203152D02*
X147241542Y-88203152D01*
X147241542Y-88203152D02*
X147336780Y-88250771D01*
X147336780Y-88250771D02*
X147384399Y-88346009D01*
X147384399Y-88346009D02*
X147384399Y-88441247D01*
X147384399Y-88441247D02*
X146908209Y-88536485D01*
X174036779Y-127569819D02*
X174036779Y-126569819D01*
X174036779Y-126569819D02*
X174417731Y-126569819D01*
X174417731Y-126569819D02*
X174512969Y-126617438D01*
X174512969Y-126617438D02*
X174560588Y-126665057D01*
X174560588Y-126665057D02*
X174608207Y-126760295D01*
X174608207Y-126760295D02*
X174608207Y-126903152D01*
X174608207Y-126903152D02*
X174560588Y-126998390D01*
X174560588Y-126998390D02*
X174512969Y-127046009D01*
X174512969Y-127046009D02*
X174417731Y-127093628D01*
X174417731Y-127093628D02*
X174036779Y-127093628D01*
X174941541Y-126569819D02*
X175179636Y-127569819D01*
X175179636Y-127569819D02*
X175370112Y-126855533D01*
X175370112Y-126855533D02*
X175560588Y-127569819D01*
X175560588Y-127569819D02*
X175798684Y-126569819D01*
X176751064Y-127569819D02*
X176417731Y-127093628D01*
X176179636Y-127569819D02*
X176179636Y-126569819D01*
X176179636Y-126569819D02*
X176560588Y-126569819D01*
X176560588Y-126569819D02*
X176655826Y-126617438D01*
X176655826Y-126617438D02*
X176703445Y-126665057D01*
X176703445Y-126665057D02*
X176751064Y-126760295D01*
X176751064Y-126760295D02*
X176751064Y-126903152D01*
X176751064Y-126903152D02*
X176703445Y-126998390D01*
X176703445Y-126998390D02*
X176655826Y-127046009D01*
X176655826Y-127046009D02*
X176560588Y-127093628D01*
X176560588Y-127093628D02*
X176179636Y-127093628D01*
X96336779Y-97769819D02*
X96336779Y-96769819D01*
X96336779Y-96769819D02*
X96574874Y-96769819D01*
X96574874Y-96769819D02*
X96717731Y-96817438D01*
X96717731Y-96817438D02*
X96812969Y-96912676D01*
X96812969Y-96912676D02*
X96860588Y-97007914D01*
X96860588Y-97007914D02*
X96908207Y-97198390D01*
X96908207Y-97198390D02*
X96908207Y-97341247D01*
X96908207Y-97341247D02*
X96860588Y-97531723D01*
X96860588Y-97531723D02*
X96812969Y-97626961D01*
X96812969Y-97626961D02*
X96717731Y-97722200D01*
X96717731Y-97722200D02*
X96574874Y-97769819D01*
X96574874Y-97769819D02*
X96336779Y-97769819D01*
X97336779Y-97769819D02*
X97336779Y-97103152D01*
X97336779Y-96769819D02*
X97289160Y-96817438D01*
X97289160Y-96817438D02*
X97336779Y-96865057D01*
X97336779Y-96865057D02*
X97384398Y-96817438D01*
X97384398Y-96817438D02*
X97336779Y-96769819D01*
X97336779Y-96769819D02*
X97336779Y-96865057D01*
X97670112Y-97103152D02*
X98051064Y-97103152D01*
X97812969Y-97769819D02*
X97812969Y-96912676D01*
X97812969Y-96912676D02*
X97860588Y-96817438D01*
X97860588Y-96817438D02*
X97955826Y-96769819D01*
X97955826Y-96769819D02*
X98051064Y-96769819D01*
X98241541Y-97103152D02*
X98622493Y-97103152D01*
X98384398Y-97769819D02*
X98384398Y-96912676D01*
X98384398Y-96912676D02*
X98432017Y-96817438D01*
X98432017Y-96817438D02*
X98527255Y-96769819D01*
X98527255Y-96769819D02*
X98622493Y-96769819D01*
X99336779Y-97722200D02*
X99241541Y-97769819D01*
X99241541Y-97769819D02*
X99051065Y-97769819D01*
X99051065Y-97769819D02*
X98955827Y-97722200D01*
X98955827Y-97722200D02*
X98908208Y-97626961D01*
X98908208Y-97626961D02*
X98908208Y-97246009D01*
X98908208Y-97246009D02*
X98955827Y-97150771D01*
X98955827Y-97150771D02*
X99051065Y-97103152D01*
X99051065Y-97103152D02*
X99241541Y-97103152D01*
X99241541Y-97103152D02*
X99336779Y-97150771D01*
X99336779Y-97150771D02*
X99384398Y-97246009D01*
X99384398Y-97246009D02*
X99384398Y-97341247D01*
X99384398Y-97341247D02*
X98908208Y-97436485D01*
X99812970Y-97769819D02*
X99812970Y-97103152D01*
X99812970Y-97293628D02*
X99860589Y-97198390D01*
X99860589Y-97198390D02*
X99908208Y-97150771D01*
X99908208Y-97150771D02*
X100003446Y-97103152D01*
X100003446Y-97103152D02*
X100098684Y-97103152D01*
X100812970Y-97722200D02*
X100717732Y-97769819D01*
X100717732Y-97769819D02*
X100527256Y-97769819D01*
X100527256Y-97769819D02*
X100432018Y-97722200D01*
X100432018Y-97722200D02*
X100384399Y-97626961D01*
X100384399Y-97626961D02*
X100384399Y-97246009D01*
X100384399Y-97246009D02*
X100432018Y-97150771D01*
X100432018Y-97150771D02*
X100527256Y-97103152D01*
X100527256Y-97103152D02*
X100717732Y-97103152D01*
X100717732Y-97103152D02*
X100812970Y-97150771D01*
X100812970Y-97150771D02*
X100860589Y-97246009D01*
X100860589Y-97246009D02*
X100860589Y-97341247D01*
X100860589Y-97341247D02*
X100384399Y-97436485D01*
X101289161Y-97103152D02*
X101289161Y-97769819D01*
X101289161Y-97198390D02*
X101336780Y-97150771D01*
X101336780Y-97150771D02*
X101432018Y-97103152D01*
X101432018Y-97103152D02*
X101574875Y-97103152D01*
X101574875Y-97103152D02*
X101670113Y-97150771D01*
X101670113Y-97150771D02*
X101717732Y-97246009D01*
X101717732Y-97246009D02*
X101717732Y-97769819D01*
X102051066Y-97103152D02*
X102432018Y-97103152D01*
X102193923Y-96769819D02*
X102193923Y-97626961D01*
X102193923Y-97626961D02*
X102241542Y-97722200D01*
X102241542Y-97722200D02*
X102336780Y-97769819D01*
X102336780Y-97769819D02*
X102432018Y-97769819D01*
X102765352Y-97769819D02*
X102765352Y-97103152D01*
X102765352Y-96769819D02*
X102717733Y-96817438D01*
X102717733Y-96817438D02*
X102765352Y-96865057D01*
X102765352Y-96865057D02*
X102812971Y-96817438D01*
X102812971Y-96817438D02*
X102765352Y-96769819D01*
X102765352Y-96769819D02*
X102765352Y-96865057D01*
X103670113Y-97769819D02*
X103670113Y-97246009D01*
X103670113Y-97246009D02*
X103622494Y-97150771D01*
X103622494Y-97150771D02*
X103527256Y-97103152D01*
X103527256Y-97103152D02*
X103336780Y-97103152D01*
X103336780Y-97103152D02*
X103241542Y-97150771D01*
X103670113Y-97722200D02*
X103574875Y-97769819D01*
X103574875Y-97769819D02*
X103336780Y-97769819D01*
X103336780Y-97769819D02*
X103241542Y-97722200D01*
X103241542Y-97722200D02*
X103193923Y-97626961D01*
X103193923Y-97626961D02*
X103193923Y-97531723D01*
X103193923Y-97531723D02*
X103241542Y-97436485D01*
X103241542Y-97436485D02*
X103336780Y-97388866D01*
X103336780Y-97388866D02*
X103574875Y-97388866D01*
X103574875Y-97388866D02*
X103670113Y-97341247D01*
X104289161Y-97769819D02*
X104193923Y-97722200D01*
X104193923Y-97722200D02*
X104146304Y-97626961D01*
X104146304Y-97626961D02*
X104146304Y-96769819D01*
X105432019Y-97769819D02*
X105432019Y-96769819D01*
X105908209Y-97103152D02*
X105908209Y-97769819D01*
X105908209Y-97198390D02*
X105955828Y-97150771D01*
X105955828Y-97150771D02*
X106051066Y-97103152D01*
X106051066Y-97103152D02*
X106193923Y-97103152D01*
X106193923Y-97103152D02*
X106289161Y-97150771D01*
X106289161Y-97150771D02*
X106336780Y-97246009D01*
X106336780Y-97246009D02*
X106336780Y-97769819D01*
X106812971Y-97103152D02*
X106812971Y-98103152D01*
X106812971Y-97150771D02*
X106908209Y-97103152D01*
X106908209Y-97103152D02*
X107098685Y-97103152D01*
X107098685Y-97103152D02*
X107193923Y-97150771D01*
X107193923Y-97150771D02*
X107241542Y-97198390D01*
X107241542Y-97198390D02*
X107289161Y-97293628D01*
X107289161Y-97293628D02*
X107289161Y-97579342D01*
X107289161Y-97579342D02*
X107241542Y-97674580D01*
X107241542Y-97674580D02*
X107193923Y-97722200D01*
X107193923Y-97722200D02*
X107098685Y-97769819D01*
X107098685Y-97769819D02*
X106908209Y-97769819D01*
X106908209Y-97769819D02*
X106812971Y-97722200D01*
X108146304Y-97103152D02*
X108146304Y-97769819D01*
X107717733Y-97103152D02*
X107717733Y-97626961D01*
X107717733Y-97626961D02*
X107765352Y-97722200D01*
X107765352Y-97722200D02*
X107860590Y-97769819D01*
X107860590Y-97769819D02*
X108003447Y-97769819D01*
X108003447Y-97769819D02*
X108098685Y-97722200D01*
X108098685Y-97722200D02*
X108146304Y-97674580D01*
X108479638Y-97103152D02*
X108860590Y-97103152D01*
X108622495Y-96769819D02*
X108622495Y-97626961D01*
X108622495Y-97626961D02*
X108670114Y-97722200D01*
X108670114Y-97722200D02*
X108765352Y-97769819D01*
X108765352Y-97769819D02*
X108860590Y-97769819D01*
X110670112Y-116346009D02*
X110812969Y-116393628D01*
X110812969Y-116393628D02*
X110860588Y-116441247D01*
X110860588Y-116441247D02*
X110908207Y-116536485D01*
X110908207Y-116536485D02*
X110908207Y-116679342D01*
X110908207Y-116679342D02*
X110860588Y-116774580D01*
X110860588Y-116774580D02*
X110812969Y-116822200D01*
X110812969Y-116822200D02*
X110717731Y-116869819D01*
X110717731Y-116869819D02*
X110336779Y-116869819D01*
X110336779Y-116869819D02*
X110336779Y-115869819D01*
X110336779Y-115869819D02*
X110670112Y-115869819D01*
X110670112Y-115869819D02*
X110765350Y-115917438D01*
X110765350Y-115917438D02*
X110812969Y-115965057D01*
X110812969Y-115965057D02*
X110860588Y-116060295D01*
X110860588Y-116060295D02*
X110860588Y-116155533D01*
X110860588Y-116155533D02*
X110812969Y-116250771D01*
X110812969Y-116250771D02*
X110765350Y-116298390D01*
X110765350Y-116298390D02*
X110670112Y-116346009D01*
X110670112Y-116346009D02*
X110336779Y-116346009D01*
X111289160Y-116584104D02*
X111765350Y-116584104D01*
X111193922Y-116869819D02*
X111527255Y-115869819D01*
X111527255Y-115869819D02*
X111860588Y-116869819D01*
X112051065Y-115869819D02*
X112622493Y-115869819D01*
X112336779Y-116869819D02*
X112336779Y-115869819D01*
X112812970Y-115869819D02*
X113384398Y-115869819D01*
X113098684Y-116869819D02*
X113098684Y-115869819D01*
X113717732Y-116488866D02*
X114479637Y-116488866D01*
X114098684Y-116869819D02*
X114098684Y-116107914D01*
X181893922Y-96769819D02*
X182465350Y-96769819D01*
X182179636Y-97769819D02*
X182179636Y-96769819D01*
X182941541Y-97769819D02*
X182846303Y-97722200D01*
X182846303Y-97722200D02*
X182798684Y-97674580D01*
X182798684Y-97674580D02*
X182751065Y-97579342D01*
X182751065Y-97579342D02*
X182751065Y-97293628D01*
X182751065Y-97293628D02*
X182798684Y-97198390D01*
X182798684Y-97198390D02*
X182846303Y-97150771D01*
X182846303Y-97150771D02*
X182941541Y-97103152D01*
X182941541Y-97103152D02*
X183084398Y-97103152D01*
X183084398Y-97103152D02*
X183179636Y-97150771D01*
X183179636Y-97150771D02*
X183227255Y-97198390D01*
X183227255Y-97198390D02*
X183274874Y-97293628D01*
X183274874Y-97293628D02*
X183274874Y-97579342D01*
X183274874Y-97579342D02*
X183227255Y-97674580D01*
X183227255Y-97674580D02*
X183179636Y-97722200D01*
X183179636Y-97722200D02*
X183084398Y-97769819D01*
X183084398Y-97769819D02*
X182941541Y-97769819D01*
X184417732Y-97722200D02*
X184560589Y-97769819D01*
X184560589Y-97769819D02*
X184798684Y-97769819D01*
X184798684Y-97769819D02*
X184893922Y-97722200D01*
X184893922Y-97722200D02*
X184941541Y-97674580D01*
X184941541Y-97674580D02*
X184989160Y-97579342D01*
X184989160Y-97579342D02*
X184989160Y-97484104D01*
X184989160Y-97484104D02*
X184941541Y-97388866D01*
X184941541Y-97388866D02*
X184893922Y-97341247D01*
X184893922Y-97341247D02*
X184798684Y-97293628D01*
X184798684Y-97293628D02*
X184608208Y-97246009D01*
X184608208Y-97246009D02*
X184512970Y-97198390D01*
X184512970Y-97198390D02*
X184465351Y-97150771D01*
X184465351Y-97150771D02*
X184417732Y-97055533D01*
X184417732Y-97055533D02*
X184417732Y-96960295D01*
X184417732Y-96960295D02*
X184465351Y-96865057D01*
X184465351Y-96865057D02*
X184512970Y-96817438D01*
X184512970Y-96817438D02*
X184608208Y-96769819D01*
X184608208Y-96769819D02*
X184846303Y-96769819D01*
X184846303Y-96769819D02*
X184989160Y-96817438D01*
X185846303Y-97722200D02*
X185751065Y-97769819D01*
X185751065Y-97769819D02*
X185560589Y-97769819D01*
X185560589Y-97769819D02*
X185465351Y-97722200D01*
X185465351Y-97722200D02*
X185417732Y-97674580D01*
X185417732Y-97674580D02*
X185370113Y-97579342D01*
X185370113Y-97579342D02*
X185370113Y-97293628D01*
X185370113Y-97293628D02*
X185417732Y-97198390D01*
X185417732Y-97198390D02*
X185465351Y-97150771D01*
X185465351Y-97150771D02*
X185560589Y-97103152D01*
X185560589Y-97103152D02*
X185751065Y-97103152D01*
X185751065Y-97103152D02*
X185846303Y-97150771D01*
X186417732Y-97769819D02*
X186322494Y-97722200D01*
X186322494Y-97722200D02*
X186274875Y-97674580D01*
X186274875Y-97674580D02*
X186227256Y-97579342D01*
X186227256Y-97579342D02*
X186227256Y-97293628D01*
X186227256Y-97293628D02*
X186274875Y-97198390D01*
X186274875Y-97198390D02*
X186322494Y-97150771D01*
X186322494Y-97150771D02*
X186417732Y-97103152D01*
X186417732Y-97103152D02*
X186560589Y-97103152D01*
X186560589Y-97103152D02*
X186655827Y-97150771D01*
X186655827Y-97150771D02*
X186703446Y-97198390D01*
X186703446Y-97198390D02*
X186751065Y-97293628D01*
X186751065Y-97293628D02*
X186751065Y-97579342D01*
X186751065Y-97579342D02*
X186703446Y-97674580D01*
X186703446Y-97674580D02*
X186655827Y-97722200D01*
X186655827Y-97722200D02*
X186560589Y-97769819D01*
X186560589Y-97769819D02*
X186417732Y-97769819D01*
X187179637Y-97103152D02*
X187179637Y-98103152D01*
X187179637Y-97150771D02*
X187274875Y-97103152D01*
X187274875Y-97103152D02*
X187465351Y-97103152D01*
X187465351Y-97103152D02*
X187560589Y-97150771D01*
X187560589Y-97150771D02*
X187608208Y-97198390D01*
X187608208Y-97198390D02*
X187655827Y-97293628D01*
X187655827Y-97293628D02*
X187655827Y-97579342D01*
X187655827Y-97579342D02*
X187608208Y-97674580D01*
X187608208Y-97674580D02*
X187560589Y-97722200D01*
X187560589Y-97722200D02*
X187465351Y-97769819D01*
X187465351Y-97769819D02*
X187274875Y-97769819D01*
X187274875Y-97769819D02*
X187179637Y-97722200D01*
X188465351Y-97722200D02*
X188370113Y-97769819D01*
X188370113Y-97769819D02*
X188179637Y-97769819D01*
X188179637Y-97769819D02*
X188084399Y-97722200D01*
X188084399Y-97722200D02*
X188036780Y-97626961D01*
X188036780Y-97626961D02*
X188036780Y-97246009D01*
X188036780Y-97246009D02*
X188084399Y-97150771D01*
X188084399Y-97150771D02*
X188179637Y-97103152D01*
X188179637Y-97103152D02*
X188370113Y-97103152D01*
X188370113Y-97103152D02*
X188465351Y-97150771D01*
X188465351Y-97150771D02*
X188512970Y-97246009D01*
X188512970Y-97246009D02*
X188512970Y-97341247D01*
X188512970Y-97341247D02*
X188036780Y-97436485D01*
X104670112Y-116346009D02*
X104812969Y-116393628D01*
X104812969Y-116393628D02*
X104860588Y-116441247D01*
X104860588Y-116441247D02*
X104908207Y-116536485D01*
X104908207Y-116536485D02*
X104908207Y-116679342D01*
X104908207Y-116679342D02*
X104860588Y-116774580D01*
X104860588Y-116774580D02*
X104812969Y-116822200D01*
X104812969Y-116822200D02*
X104717731Y-116869819D01*
X104717731Y-116869819D02*
X104336779Y-116869819D01*
X104336779Y-116869819D02*
X104336779Y-115869819D01*
X104336779Y-115869819D02*
X104670112Y-115869819D01*
X104670112Y-115869819D02*
X104765350Y-115917438D01*
X104765350Y-115917438D02*
X104812969Y-115965057D01*
X104812969Y-115965057D02*
X104860588Y-116060295D01*
X104860588Y-116060295D02*
X104860588Y-116155533D01*
X104860588Y-116155533D02*
X104812969Y-116250771D01*
X104812969Y-116250771D02*
X104765350Y-116298390D01*
X104765350Y-116298390D02*
X104670112Y-116346009D01*
X104670112Y-116346009D02*
X104336779Y-116346009D01*
X105289160Y-116584104D02*
X105765350Y-116584104D01*
X105193922Y-116869819D02*
X105527255Y-115869819D01*
X105527255Y-115869819D02*
X105860588Y-116869819D01*
X106051065Y-115869819D02*
X106622493Y-115869819D01*
X106336779Y-116869819D02*
X106336779Y-115869819D01*
X106812970Y-115869819D02*
X107384398Y-115869819D01*
X107098684Y-116869819D02*
X107098684Y-115869819D01*
X107717732Y-116488866D02*
X108479637Y-116488866D01*
X158560588Y-92617438D02*
X158465350Y-92569819D01*
X158465350Y-92569819D02*
X158322493Y-92569819D01*
X158322493Y-92569819D02*
X158179636Y-92617438D01*
X158179636Y-92617438D02*
X158084398Y-92712676D01*
X158084398Y-92712676D02*
X158036779Y-92807914D01*
X158036779Y-92807914D02*
X157989160Y-92998390D01*
X157989160Y-92998390D02*
X157989160Y-93141247D01*
X157989160Y-93141247D02*
X158036779Y-93331723D01*
X158036779Y-93331723D02*
X158084398Y-93426961D01*
X158084398Y-93426961D02*
X158179636Y-93522200D01*
X158179636Y-93522200D02*
X158322493Y-93569819D01*
X158322493Y-93569819D02*
X158417731Y-93569819D01*
X158417731Y-93569819D02*
X158560588Y-93522200D01*
X158560588Y-93522200D02*
X158608207Y-93474580D01*
X158608207Y-93474580D02*
X158608207Y-93141247D01*
X158608207Y-93141247D02*
X158417731Y-93141247D01*
X159036779Y-93569819D02*
X159036779Y-92569819D01*
X159036779Y-92569819D02*
X159608207Y-93569819D01*
X159608207Y-93569819D02*
X159608207Y-92569819D01*
X160084398Y-93569819D02*
X160084398Y-92569819D01*
X160084398Y-92569819D02*
X160322493Y-92569819D01*
X160322493Y-92569819D02*
X160465350Y-92617438D01*
X160465350Y-92617438D02*
X160560588Y-92712676D01*
X160560588Y-92712676D02*
X160608207Y-92807914D01*
X160608207Y-92807914D02*
X160655826Y-92998390D01*
X160655826Y-92998390D02*
X160655826Y-93141247D01*
X160655826Y-93141247D02*
X160608207Y-93331723D01*
X160608207Y-93331723D02*
X160560588Y-93426961D01*
X160560588Y-93426961D02*
X160465350Y-93522200D01*
X160465350Y-93522200D02*
X160322493Y-93569819D01*
X160322493Y-93569819D02*
X160084398Y-93569819D01*
X172860588Y-92617438D02*
X172765350Y-92569819D01*
X172765350Y-92569819D02*
X172622493Y-92569819D01*
X172622493Y-92569819D02*
X172479636Y-92617438D01*
X172479636Y-92617438D02*
X172384398Y-92712676D01*
X172384398Y-92712676D02*
X172336779Y-92807914D01*
X172336779Y-92807914D02*
X172289160Y-92998390D01*
X172289160Y-92998390D02*
X172289160Y-93141247D01*
X172289160Y-93141247D02*
X172336779Y-93331723D01*
X172336779Y-93331723D02*
X172384398Y-93426961D01*
X172384398Y-93426961D02*
X172479636Y-93522200D01*
X172479636Y-93522200D02*
X172622493Y-93569819D01*
X172622493Y-93569819D02*
X172717731Y-93569819D01*
X172717731Y-93569819D02*
X172860588Y-93522200D01*
X172860588Y-93522200D02*
X172908207Y-93474580D01*
X172908207Y-93474580D02*
X172908207Y-93141247D01*
X172908207Y-93141247D02*
X172717731Y-93141247D01*
X173336779Y-93569819D02*
X173336779Y-92569819D01*
X173336779Y-92569819D02*
X173908207Y-93569819D01*
X173908207Y-93569819D02*
X173908207Y-92569819D01*
X174384398Y-93569819D02*
X174384398Y-92569819D01*
X174384398Y-92569819D02*
X174622493Y-92569819D01*
X174622493Y-92569819D02*
X174765350Y-92617438D01*
X174765350Y-92617438D02*
X174860588Y-92712676D01*
X174860588Y-92712676D02*
X174908207Y-92807914D01*
X174908207Y-92807914D02*
X174955826Y-92998390D01*
X174955826Y-92998390D02*
X174955826Y-93141247D01*
X174955826Y-93141247D02*
X174908207Y-93331723D01*
X174908207Y-93331723D02*
X174860588Y-93426961D01*
X174860588Y-93426961D02*
X174765350Y-93522200D01*
X174765350Y-93522200D02*
X174622493Y-93569819D01*
X174622493Y-93569819D02*
X174384398Y-93569819D01*
X144238095Y-117106819D02*
X144809523Y-117106819D01*
X144523809Y-118106819D02*
X144523809Y-117106819D01*
X145142857Y-118106819D02*
X145142857Y-117106819D01*
X145142857Y-117106819D02*
X145523809Y-117106819D01*
X145523809Y-117106819D02*
X145619047Y-117154438D01*
X145619047Y-117154438D02*
X145666666Y-117202057D01*
X145666666Y-117202057D02*
X145714285Y-117297295D01*
X145714285Y-117297295D02*
X145714285Y-117440152D01*
X145714285Y-117440152D02*
X145666666Y-117535390D01*
X145666666Y-117535390D02*
X145619047Y-117583009D01*
X145619047Y-117583009D02*
X145523809Y-117630628D01*
X145523809Y-117630628D02*
X145142857Y-117630628D01*
X146571428Y-117440152D02*
X146571428Y-118106819D01*
X146333333Y-117059200D02*
X146095238Y-117773485D01*
X146095238Y-117773485D02*
X146714285Y-117773485D01*
X181938095Y-116906819D02*
X182509523Y-116906819D01*
X182223809Y-117906819D02*
X182223809Y-116906819D01*
X182842857Y-117906819D02*
X182842857Y-116906819D01*
X182842857Y-116906819D02*
X183223809Y-116906819D01*
X183223809Y-116906819D02*
X183319047Y-116954438D01*
X183319047Y-116954438D02*
X183366666Y-117002057D01*
X183366666Y-117002057D02*
X183414285Y-117097295D01*
X183414285Y-117097295D02*
X183414285Y-117240152D01*
X183414285Y-117240152D02*
X183366666Y-117335390D01*
X183366666Y-117335390D02*
X183319047Y-117383009D01*
X183319047Y-117383009D02*
X183223809Y-117430628D01*
X183223809Y-117430628D02*
X182842857Y-117430628D01*
X183795238Y-117002057D02*
X183842857Y-116954438D01*
X183842857Y-116954438D02*
X183938095Y-116906819D01*
X183938095Y-116906819D02*
X184176190Y-116906819D01*
X184176190Y-116906819D02*
X184271428Y-116954438D01*
X184271428Y-116954438D02*
X184319047Y-117002057D01*
X184319047Y-117002057D02*
X184366666Y-117097295D01*
X184366666Y-117097295D02*
X184366666Y-117192533D01*
X184366666Y-117192533D02*
X184319047Y-117335390D01*
X184319047Y-117335390D02*
X183747619Y-117906819D01*
X183747619Y-117906819D02*
X184366666Y-117906819D01*
X133557142Y-124954819D02*
X133223809Y-124478628D01*
X132985714Y-124954819D02*
X132985714Y-123954819D01*
X132985714Y-123954819D02*
X133366666Y-123954819D01*
X133366666Y-123954819D02*
X133461904Y-124002438D01*
X133461904Y-124002438D02*
X133509523Y-124050057D01*
X133509523Y-124050057D02*
X133557142Y-124145295D01*
X133557142Y-124145295D02*
X133557142Y-124288152D01*
X133557142Y-124288152D02*
X133509523Y-124383390D01*
X133509523Y-124383390D02*
X133461904Y-124431009D01*
X133461904Y-124431009D02*
X133366666Y-124478628D01*
X133366666Y-124478628D02*
X132985714Y-124478628D01*
X134509523Y-124954819D02*
X133938095Y-124954819D01*
X134223809Y-124954819D02*
X134223809Y-123954819D01*
X134223809Y-123954819D02*
X134128571Y-124097676D01*
X134128571Y-124097676D02*
X134033333Y-124192914D01*
X134033333Y-124192914D02*
X133938095Y-124240533D01*
X134890476Y-124050057D02*
X134938095Y-124002438D01*
X134938095Y-124002438D02*
X135033333Y-123954819D01*
X135033333Y-123954819D02*
X135271428Y-123954819D01*
X135271428Y-123954819D02*
X135366666Y-124002438D01*
X135366666Y-124002438D02*
X135414285Y-124050057D01*
X135414285Y-124050057D02*
X135461904Y-124145295D01*
X135461904Y-124145295D02*
X135461904Y-124240533D01*
X135461904Y-124240533D02*
X135414285Y-124383390D01*
X135414285Y-124383390D02*
X134842857Y-124954819D01*
X134842857Y-124954819D02*
X135461904Y-124954819D01*
X172047142Y-118454819D02*
X171713809Y-117978628D01*
X171475714Y-118454819D02*
X171475714Y-117454819D01*
X171475714Y-117454819D02*
X171856666Y-117454819D01*
X171856666Y-117454819D02*
X171951904Y-117502438D01*
X171951904Y-117502438D02*
X171999523Y-117550057D01*
X171999523Y-117550057D02*
X172047142Y-117645295D01*
X172047142Y-117645295D02*
X172047142Y-117788152D01*
X172047142Y-117788152D02*
X171999523Y-117883390D01*
X171999523Y-117883390D02*
X171951904Y-117931009D01*
X171951904Y-117931009D02*
X171856666Y-117978628D01*
X171856666Y-117978628D02*
X171475714Y-117978628D01*
X172999523Y-118454819D02*
X172428095Y-118454819D01*
X172713809Y-118454819D02*
X172713809Y-117454819D01*
X172713809Y-117454819D02*
X172618571Y-117597676D01*
X172618571Y-117597676D02*
X172523333Y-117692914D01*
X172523333Y-117692914D02*
X172428095Y-117740533D01*
X173618571Y-117454819D02*
X173713809Y-117454819D01*
X173713809Y-117454819D02*
X173809047Y-117502438D01*
X173809047Y-117502438D02*
X173856666Y-117550057D01*
X173856666Y-117550057D02*
X173904285Y-117645295D01*
X173904285Y-117645295D02*
X173951904Y-117835771D01*
X173951904Y-117835771D02*
X173951904Y-118073866D01*
X173951904Y-118073866D02*
X173904285Y-118264342D01*
X173904285Y-118264342D02*
X173856666Y-118359580D01*
X173856666Y-118359580D02*
X173809047Y-118407200D01*
X173809047Y-118407200D02*
X173713809Y-118454819D01*
X173713809Y-118454819D02*
X173618571Y-118454819D01*
X173618571Y-118454819D02*
X173523333Y-118407200D01*
X173523333Y-118407200D02*
X173475714Y-118359580D01*
X173475714Y-118359580D02*
X173428095Y-118264342D01*
X173428095Y-118264342D02*
X173380476Y-118073866D01*
X173380476Y-118073866D02*
X173380476Y-117835771D01*
X173380476Y-117835771D02*
X173428095Y-117645295D01*
X173428095Y-117645295D02*
X173475714Y-117550057D01*
X173475714Y-117550057D02*
X173523333Y-117502438D01*
X173523333Y-117502438D02*
X173618571Y-117454819D01*
X121361905Y-126424819D02*
X121361905Y-125424819D01*
X121361905Y-125424819D02*
X121600000Y-125424819D01*
X121600000Y-125424819D02*
X121742857Y-125472438D01*
X121742857Y-125472438D02*
X121838095Y-125567676D01*
X121838095Y-125567676D02*
X121885714Y-125662914D01*
X121885714Y-125662914D02*
X121933333Y-125853390D01*
X121933333Y-125853390D02*
X121933333Y-125996247D01*
X121933333Y-125996247D02*
X121885714Y-126186723D01*
X121885714Y-126186723D02*
X121838095Y-126281961D01*
X121838095Y-126281961D02*
X121742857Y-126377200D01*
X121742857Y-126377200D02*
X121600000Y-126424819D01*
X121600000Y-126424819D02*
X121361905Y-126424819D01*
X122790476Y-125758152D02*
X122790476Y-126424819D01*
X122552381Y-125377200D02*
X122314286Y-126091485D01*
X122314286Y-126091485D02*
X122933333Y-126091485D01*
X126918095Y-126054819D02*
X126918095Y-125054819D01*
X127489523Y-126054819D02*
X127060952Y-125483390D01*
X127489523Y-125054819D02*
X126918095Y-125626247D01*
X176561905Y-119554819D02*
X176561905Y-118554819D01*
X176561905Y-118554819D02*
X176800000Y-118554819D01*
X176800000Y-118554819D02*
X176942857Y-118602438D01*
X176942857Y-118602438D02*
X177038095Y-118697676D01*
X177038095Y-118697676D02*
X177085714Y-118792914D01*
X177085714Y-118792914D02*
X177133333Y-118983390D01*
X177133333Y-118983390D02*
X177133333Y-119126247D01*
X177133333Y-119126247D02*
X177085714Y-119316723D01*
X177085714Y-119316723D02*
X177038095Y-119411961D01*
X177038095Y-119411961D02*
X176942857Y-119507200D01*
X176942857Y-119507200D02*
X176800000Y-119554819D01*
X176800000Y-119554819D02*
X176561905Y-119554819D01*
X178085714Y-119554819D02*
X177514286Y-119554819D01*
X177800000Y-119554819D02*
X177800000Y-118554819D01*
X177800000Y-118554819D02*
X177704762Y-118697676D01*
X177704762Y-118697676D02*
X177609524Y-118792914D01*
X177609524Y-118792914D02*
X177514286Y-118840533D01*
X160143333Y-121654819D02*
X159810000Y-121178628D01*
X159571905Y-121654819D02*
X159571905Y-120654819D01*
X159571905Y-120654819D02*
X159952857Y-120654819D01*
X159952857Y-120654819D02*
X160048095Y-120702438D01*
X160048095Y-120702438D02*
X160095714Y-120750057D01*
X160095714Y-120750057D02*
X160143333Y-120845295D01*
X160143333Y-120845295D02*
X160143333Y-120988152D01*
X160143333Y-120988152D02*
X160095714Y-121083390D01*
X160095714Y-121083390D02*
X160048095Y-121131009D01*
X160048095Y-121131009D02*
X159952857Y-121178628D01*
X159952857Y-121178628D02*
X159571905Y-121178628D01*
X160524286Y-120750057D02*
X160571905Y-120702438D01*
X160571905Y-120702438D02*
X160667143Y-120654819D01*
X160667143Y-120654819D02*
X160905238Y-120654819D01*
X160905238Y-120654819D02*
X161000476Y-120702438D01*
X161000476Y-120702438D02*
X161048095Y-120750057D01*
X161048095Y-120750057D02*
X161095714Y-120845295D01*
X161095714Y-120845295D02*
X161095714Y-120940533D01*
X161095714Y-120940533D02*
X161048095Y-121083390D01*
X161048095Y-121083390D02*
X160476667Y-121654819D01*
X160476667Y-121654819D02*
X161095714Y-121654819D01*
X134133333Y-119359580D02*
X134085714Y-119407200D01*
X134085714Y-119407200D02*
X133942857Y-119454819D01*
X133942857Y-119454819D02*
X133847619Y-119454819D01*
X133847619Y-119454819D02*
X133704762Y-119407200D01*
X133704762Y-119407200D02*
X133609524Y-119311961D01*
X133609524Y-119311961D02*
X133561905Y-119216723D01*
X133561905Y-119216723D02*
X133514286Y-119026247D01*
X133514286Y-119026247D02*
X133514286Y-118883390D01*
X133514286Y-118883390D02*
X133561905Y-118692914D01*
X133561905Y-118692914D02*
X133609524Y-118597676D01*
X133609524Y-118597676D02*
X133704762Y-118502438D01*
X133704762Y-118502438D02*
X133847619Y-118454819D01*
X133847619Y-118454819D02*
X133942857Y-118454819D01*
X133942857Y-118454819D02*
X134085714Y-118502438D01*
X134085714Y-118502438D02*
X134133333Y-118550057D01*
X135038095Y-118454819D02*
X134561905Y-118454819D01*
X134561905Y-118454819D02*
X134514286Y-118931009D01*
X134514286Y-118931009D02*
X134561905Y-118883390D01*
X134561905Y-118883390D02*
X134657143Y-118835771D01*
X134657143Y-118835771D02*
X134895238Y-118835771D01*
X134895238Y-118835771D02*
X134990476Y-118883390D01*
X134990476Y-118883390D02*
X135038095Y-118931009D01*
X135038095Y-118931009D02*
X135085714Y-119026247D01*
X135085714Y-119026247D02*
X135085714Y-119264342D01*
X135085714Y-119264342D02*
X135038095Y-119359580D01*
X135038095Y-119359580D02*
X134990476Y-119407200D01*
X134990476Y-119407200D02*
X134895238Y-119454819D01*
X134895238Y-119454819D02*
X134657143Y-119454819D01*
X134657143Y-119454819D02*
X134561905Y-119407200D01*
X134561905Y-119407200D02*
X134514286Y-119359580D01*
X172057142Y-105354819D02*
X171723809Y-104878628D01*
X171485714Y-105354819D02*
X171485714Y-104354819D01*
X171485714Y-104354819D02*
X171866666Y-104354819D01*
X171866666Y-104354819D02*
X171961904Y-104402438D01*
X171961904Y-104402438D02*
X172009523Y-104450057D01*
X172009523Y-104450057D02*
X172057142Y-104545295D01*
X172057142Y-104545295D02*
X172057142Y-104688152D01*
X172057142Y-104688152D02*
X172009523Y-104783390D01*
X172009523Y-104783390D02*
X171961904Y-104831009D01*
X171961904Y-104831009D02*
X171866666Y-104878628D01*
X171866666Y-104878628D02*
X171485714Y-104878628D01*
X173009523Y-105354819D02*
X172438095Y-105354819D01*
X172723809Y-105354819D02*
X172723809Y-104354819D01*
X172723809Y-104354819D02*
X172628571Y-104497676D01*
X172628571Y-104497676D02*
X172533333Y-104592914D01*
X172533333Y-104592914D02*
X172438095Y-104640533D01*
X173342857Y-104354819D02*
X173961904Y-104354819D01*
X173961904Y-104354819D02*
X173628571Y-104735771D01*
X173628571Y-104735771D02*
X173771428Y-104735771D01*
X173771428Y-104735771D02*
X173866666Y-104783390D01*
X173866666Y-104783390D02*
X173914285Y-104831009D01*
X173914285Y-104831009D02*
X173961904Y-104926247D01*
X173961904Y-104926247D02*
X173961904Y-105164342D01*
X173961904Y-105164342D02*
X173914285Y-105259580D01*
X173914285Y-105259580D02*
X173866666Y-105307200D01*
X173866666Y-105307200D02*
X173771428Y-105354819D01*
X173771428Y-105354819D02*
X173485714Y-105354819D01*
X173485714Y-105354819D02*
X173390476Y-105307200D01*
X173390476Y-105307200D02*
X173342857Y-105259580D01*
X131523333Y-103029819D02*
X131190000Y-102553628D01*
X130951905Y-103029819D02*
X130951905Y-102029819D01*
X130951905Y-102029819D02*
X131332857Y-102029819D01*
X131332857Y-102029819D02*
X131428095Y-102077438D01*
X131428095Y-102077438D02*
X131475714Y-102125057D01*
X131475714Y-102125057D02*
X131523333Y-102220295D01*
X131523333Y-102220295D02*
X131523333Y-102363152D01*
X131523333Y-102363152D02*
X131475714Y-102458390D01*
X131475714Y-102458390D02*
X131428095Y-102506009D01*
X131428095Y-102506009D02*
X131332857Y-102553628D01*
X131332857Y-102553628D02*
X130951905Y-102553628D01*
X132380476Y-102029819D02*
X132190000Y-102029819D01*
X132190000Y-102029819D02*
X132094762Y-102077438D01*
X132094762Y-102077438D02*
X132047143Y-102125057D01*
X132047143Y-102125057D02*
X131951905Y-102267914D01*
X131951905Y-102267914D02*
X131904286Y-102458390D01*
X131904286Y-102458390D02*
X131904286Y-102839342D01*
X131904286Y-102839342D02*
X131951905Y-102934580D01*
X131951905Y-102934580D02*
X131999524Y-102982200D01*
X131999524Y-102982200D02*
X132094762Y-103029819D01*
X132094762Y-103029819D02*
X132285238Y-103029819D01*
X132285238Y-103029819D02*
X132380476Y-102982200D01*
X132380476Y-102982200D02*
X132428095Y-102934580D01*
X132428095Y-102934580D02*
X132475714Y-102839342D01*
X132475714Y-102839342D02*
X132475714Y-102601247D01*
X132475714Y-102601247D02*
X132428095Y-102506009D01*
X132428095Y-102506009D02*
X132380476Y-102458390D01*
X132380476Y-102458390D02*
X132285238Y-102410771D01*
X132285238Y-102410771D02*
X132094762Y-102410771D01*
X132094762Y-102410771D02*
X131999524Y-102458390D01*
X131999524Y-102458390D02*
X131951905Y-102506009D01*
X131951905Y-102506009D02*
X131904286Y-102601247D01*
X101318095Y-91560707D02*
X101318095Y-90560707D01*
X101318095Y-91036897D02*
X101889523Y-91036897D01*
X101889523Y-91560707D02*
X101889523Y-90560707D01*
X102889523Y-91560707D02*
X102318095Y-91560707D01*
X102603809Y-91560707D02*
X102603809Y-90560707D01*
X102603809Y-90560707D02*
X102508571Y-90703564D01*
X102508571Y-90703564D02*
X102413333Y-90798802D01*
X102413333Y-90798802D02*
X102318095Y-90846421D01*
X171957142Y-115154819D02*
X171623809Y-114678628D01*
X171385714Y-115154819D02*
X171385714Y-114154819D01*
X171385714Y-114154819D02*
X171766666Y-114154819D01*
X171766666Y-114154819D02*
X171861904Y-114202438D01*
X171861904Y-114202438D02*
X171909523Y-114250057D01*
X171909523Y-114250057D02*
X171957142Y-114345295D01*
X171957142Y-114345295D02*
X171957142Y-114488152D01*
X171957142Y-114488152D02*
X171909523Y-114583390D01*
X171909523Y-114583390D02*
X171861904Y-114631009D01*
X171861904Y-114631009D02*
X171766666Y-114678628D01*
X171766666Y-114678628D02*
X171385714Y-114678628D01*
X172909523Y-115154819D02*
X172338095Y-115154819D01*
X172623809Y-115154819D02*
X172623809Y-114154819D01*
X172623809Y-114154819D02*
X172528571Y-114297676D01*
X172528571Y-114297676D02*
X172433333Y-114392914D01*
X172433333Y-114392914D02*
X172338095Y-114440533D01*
X173861904Y-115154819D02*
X173290476Y-115154819D01*
X173576190Y-115154819D02*
X173576190Y-114154819D01*
X173576190Y-114154819D02*
X173480952Y-114297676D01*
X173480952Y-114297676D02*
X173385714Y-114392914D01*
X173385714Y-114392914D02*
X173290476Y-114440533D01*
X117734819Y-96138094D02*
X116734819Y-96138094D01*
X116734819Y-96138094D02*
X116734819Y-95899999D01*
X116734819Y-95899999D02*
X116782438Y-95757142D01*
X116782438Y-95757142D02*
X116877676Y-95661904D01*
X116877676Y-95661904D02*
X116972914Y-95614285D01*
X116972914Y-95614285D02*
X117163390Y-95566666D01*
X117163390Y-95566666D02*
X117306247Y-95566666D01*
X117306247Y-95566666D02*
X117496723Y-95614285D01*
X117496723Y-95614285D02*
X117591961Y-95661904D01*
X117591961Y-95661904D02*
X117687200Y-95757142D01*
X117687200Y-95757142D02*
X117734819Y-95899999D01*
X117734819Y-95899999D02*
X117734819Y-96138094D01*
X116734819Y-95233332D02*
X116734819Y-94614285D01*
X116734819Y-94614285D02*
X117115771Y-94947618D01*
X117115771Y-94947618D02*
X117115771Y-94804761D01*
X117115771Y-94804761D02*
X117163390Y-94709523D01*
X117163390Y-94709523D02*
X117211009Y-94661904D01*
X117211009Y-94661904D02*
X117306247Y-94614285D01*
X117306247Y-94614285D02*
X117544342Y-94614285D01*
X117544342Y-94614285D02*
X117639580Y-94661904D01*
X117639580Y-94661904D02*
X117687200Y-94709523D01*
X117687200Y-94709523D02*
X117734819Y-94804761D01*
X117734819Y-94804761D02*
X117734819Y-95090475D01*
X117734819Y-95090475D02*
X117687200Y-95185713D01*
X117687200Y-95185713D02*
X117639580Y-95233332D01*
X118454819Y-100741904D02*
X117454819Y-100741904D01*
X118454819Y-100170476D02*
X117883390Y-100599047D01*
X117454819Y-100170476D02*
X118026247Y-100741904D01*
X136738095Y-92306819D02*
X137309523Y-92306819D01*
X137023809Y-93306819D02*
X137023809Y-92306819D01*
X137642857Y-93306819D02*
X137642857Y-92306819D01*
X137642857Y-92306819D02*
X138023809Y-92306819D01*
X138023809Y-92306819D02*
X138119047Y-92354438D01*
X138119047Y-92354438D02*
X138166666Y-92402057D01*
X138166666Y-92402057D02*
X138214285Y-92497295D01*
X138214285Y-92497295D02*
X138214285Y-92640152D01*
X138214285Y-92640152D02*
X138166666Y-92735390D01*
X138166666Y-92735390D02*
X138119047Y-92783009D01*
X138119047Y-92783009D02*
X138023809Y-92830628D01*
X138023809Y-92830628D02*
X137642857Y-92830628D01*
X139166666Y-93306819D02*
X138595238Y-93306819D01*
X138880952Y-93306819D02*
X138880952Y-92306819D01*
X138880952Y-92306819D02*
X138785714Y-92449676D01*
X138785714Y-92449676D02*
X138690476Y-92544914D01*
X138690476Y-92544914D02*
X138595238Y-92592533D01*
X151738095Y-97824819D02*
X151738095Y-98634342D01*
X151738095Y-98634342D02*
X151785714Y-98729580D01*
X151785714Y-98729580D02*
X151833333Y-98777200D01*
X151833333Y-98777200D02*
X151928571Y-98824819D01*
X151928571Y-98824819D02*
X152119047Y-98824819D01*
X152119047Y-98824819D02*
X152214285Y-98777200D01*
X152214285Y-98777200D02*
X152261904Y-98729580D01*
X152261904Y-98729580D02*
X152309523Y-98634342D01*
X152309523Y-98634342D02*
X152309523Y-97824819D01*
X152738095Y-97920057D02*
X152785714Y-97872438D01*
X152785714Y-97872438D02*
X152880952Y-97824819D01*
X152880952Y-97824819D02*
X153119047Y-97824819D01*
X153119047Y-97824819D02*
X153214285Y-97872438D01*
X153214285Y-97872438D02*
X153261904Y-97920057D01*
X153261904Y-97920057D02*
X153309523Y-98015295D01*
X153309523Y-98015295D02*
X153309523Y-98110533D01*
X153309523Y-98110533D02*
X153261904Y-98253390D01*
X153261904Y-98253390D02*
X152690476Y-98824819D01*
X152690476Y-98824819D02*
X153309523Y-98824819D01*
X169333333Y-111759580D02*
X169285714Y-111807200D01*
X169285714Y-111807200D02*
X169142857Y-111854819D01*
X169142857Y-111854819D02*
X169047619Y-111854819D01*
X169047619Y-111854819D02*
X168904762Y-111807200D01*
X168904762Y-111807200D02*
X168809524Y-111711961D01*
X168809524Y-111711961D02*
X168761905Y-111616723D01*
X168761905Y-111616723D02*
X168714286Y-111426247D01*
X168714286Y-111426247D02*
X168714286Y-111283390D01*
X168714286Y-111283390D02*
X168761905Y-111092914D01*
X168761905Y-111092914D02*
X168809524Y-110997676D01*
X168809524Y-110997676D02*
X168904762Y-110902438D01*
X168904762Y-110902438D02*
X169047619Y-110854819D01*
X169047619Y-110854819D02*
X169142857Y-110854819D01*
X169142857Y-110854819D02*
X169285714Y-110902438D01*
X169285714Y-110902438D02*
X169333333Y-110950057D01*
X169666667Y-110854819D02*
X170285714Y-110854819D01*
X170285714Y-110854819D02*
X169952381Y-111235771D01*
X169952381Y-111235771D02*
X170095238Y-111235771D01*
X170095238Y-111235771D02*
X170190476Y-111283390D01*
X170190476Y-111283390D02*
X170238095Y-111331009D01*
X170238095Y-111331009D02*
X170285714Y-111426247D01*
X170285714Y-111426247D02*
X170285714Y-111664342D01*
X170285714Y-111664342D02*
X170238095Y-111759580D01*
X170238095Y-111759580D02*
X170190476Y-111807200D01*
X170190476Y-111807200D02*
X170095238Y-111854819D01*
X170095238Y-111854819D02*
X169809524Y-111854819D01*
X169809524Y-111854819D02*
X169714286Y-111807200D01*
X169714286Y-111807200D02*
X169666667Y-111759580D01*
X101328095Y-125054819D02*
X101328095Y-124054819D01*
X101328095Y-124531009D02*
X101899523Y-124531009D01*
X101899523Y-125054819D02*
X101899523Y-124054819D01*
X102280476Y-124054819D02*
X102899523Y-124054819D01*
X102899523Y-124054819D02*
X102566190Y-124435771D01*
X102566190Y-124435771D02*
X102709047Y-124435771D01*
X102709047Y-124435771D02*
X102804285Y-124483390D01*
X102804285Y-124483390D02*
X102851904Y-124531009D01*
X102851904Y-124531009D02*
X102899523Y-124626247D01*
X102899523Y-124626247D02*
X102899523Y-124864342D01*
X102899523Y-124864342D02*
X102851904Y-124959580D01*
X102851904Y-124959580D02*
X102804285Y-125007200D01*
X102804285Y-125007200D02*
X102709047Y-125054819D01*
X102709047Y-125054819D02*
X102423333Y-125054819D01*
X102423333Y-125054819D02*
X102328095Y-125007200D01*
X102328095Y-125007200D02*
X102280476Y-124959580D01*
X131533333Y-116154819D02*
X131200000Y-115678628D01*
X130961905Y-116154819D02*
X130961905Y-115154819D01*
X130961905Y-115154819D02*
X131342857Y-115154819D01*
X131342857Y-115154819D02*
X131438095Y-115202438D01*
X131438095Y-115202438D02*
X131485714Y-115250057D01*
X131485714Y-115250057D02*
X131533333Y-115345295D01*
X131533333Y-115345295D02*
X131533333Y-115488152D01*
X131533333Y-115488152D02*
X131485714Y-115583390D01*
X131485714Y-115583390D02*
X131438095Y-115631009D01*
X131438095Y-115631009D02*
X131342857Y-115678628D01*
X131342857Y-115678628D02*
X130961905Y-115678628D01*
X132390476Y-115488152D02*
X132390476Y-116154819D01*
X132152381Y-115107200D02*
X131914286Y-115821485D01*
X131914286Y-115821485D02*
X132533333Y-115821485D01*
X131533333Y-109629819D02*
X131200000Y-109153628D01*
X130961905Y-109629819D02*
X130961905Y-108629819D01*
X130961905Y-108629819D02*
X131342857Y-108629819D01*
X131342857Y-108629819D02*
X131438095Y-108677438D01*
X131438095Y-108677438D02*
X131485714Y-108725057D01*
X131485714Y-108725057D02*
X131533333Y-108820295D01*
X131533333Y-108820295D02*
X131533333Y-108963152D01*
X131533333Y-108963152D02*
X131485714Y-109058390D01*
X131485714Y-109058390D02*
X131438095Y-109106009D01*
X131438095Y-109106009D02*
X131342857Y-109153628D01*
X131342857Y-109153628D02*
X130961905Y-109153628D01*
X132104762Y-109058390D02*
X132009524Y-109010771D01*
X132009524Y-109010771D02*
X131961905Y-108963152D01*
X131961905Y-108963152D02*
X131914286Y-108867914D01*
X131914286Y-108867914D02*
X131914286Y-108820295D01*
X131914286Y-108820295D02*
X131961905Y-108725057D01*
X131961905Y-108725057D02*
X132009524Y-108677438D01*
X132009524Y-108677438D02*
X132104762Y-108629819D01*
X132104762Y-108629819D02*
X132295238Y-108629819D01*
X132295238Y-108629819D02*
X132390476Y-108677438D01*
X132390476Y-108677438D02*
X132438095Y-108725057D01*
X132438095Y-108725057D02*
X132485714Y-108820295D01*
X132485714Y-108820295D02*
X132485714Y-108867914D01*
X132485714Y-108867914D02*
X132438095Y-108963152D01*
X132438095Y-108963152D02*
X132390476Y-109010771D01*
X132390476Y-109010771D02*
X132295238Y-109058390D01*
X132295238Y-109058390D02*
X132104762Y-109058390D01*
X132104762Y-109058390D02*
X132009524Y-109106009D01*
X132009524Y-109106009D02*
X131961905Y-109153628D01*
X131961905Y-109153628D02*
X131914286Y-109248866D01*
X131914286Y-109248866D02*
X131914286Y-109439342D01*
X131914286Y-109439342D02*
X131961905Y-109534580D01*
X131961905Y-109534580D02*
X132009524Y-109582200D01*
X132009524Y-109582200D02*
X132104762Y-109629819D01*
X132104762Y-109629819D02*
X132295238Y-109629819D01*
X132295238Y-109629819D02*
X132390476Y-109582200D01*
X132390476Y-109582200D02*
X132438095Y-109534580D01*
X132438095Y-109534580D02*
X132485714Y-109439342D01*
X132485714Y-109439342D02*
X132485714Y-109248866D01*
X132485714Y-109248866D02*
X132438095Y-109153628D01*
X132438095Y-109153628D02*
X132390476Y-109106009D01*
X132390476Y-109106009D02*
X132295238Y-109058390D01*
X169433333Y-108459580D02*
X169385714Y-108507200D01*
X169385714Y-108507200D02*
X169242857Y-108554819D01*
X169242857Y-108554819D02*
X169147619Y-108554819D01*
X169147619Y-108554819D02*
X169004762Y-108507200D01*
X169004762Y-108507200D02*
X168909524Y-108411961D01*
X168909524Y-108411961D02*
X168861905Y-108316723D01*
X168861905Y-108316723D02*
X168814286Y-108126247D01*
X168814286Y-108126247D02*
X168814286Y-107983390D01*
X168814286Y-107983390D02*
X168861905Y-107792914D01*
X168861905Y-107792914D02*
X168909524Y-107697676D01*
X168909524Y-107697676D02*
X169004762Y-107602438D01*
X169004762Y-107602438D02*
X169147619Y-107554819D01*
X169147619Y-107554819D02*
X169242857Y-107554819D01*
X169242857Y-107554819D02*
X169385714Y-107602438D01*
X169385714Y-107602438D02*
X169433333Y-107650057D01*
X170385714Y-108554819D02*
X169814286Y-108554819D01*
X170100000Y-108554819D02*
X170100000Y-107554819D01*
X170100000Y-107554819D02*
X170004762Y-107697676D01*
X170004762Y-107697676D02*
X169909524Y-107792914D01*
X169909524Y-107792914D02*
X169814286Y-107840533D01*
X187238095Y-121254819D02*
X187238095Y-120254819D01*
X187238095Y-120731009D02*
X187809523Y-120731009D01*
X187809523Y-121254819D02*
X187809523Y-120254819D01*
X188238095Y-120350057D02*
X188285714Y-120302438D01*
X188285714Y-120302438D02*
X188380952Y-120254819D01*
X188380952Y-120254819D02*
X188619047Y-120254819D01*
X188619047Y-120254819D02*
X188714285Y-120302438D01*
X188714285Y-120302438D02*
X188761904Y-120350057D01*
X188761904Y-120350057D02*
X188809523Y-120445295D01*
X188809523Y-120445295D02*
X188809523Y-120540533D01*
X188809523Y-120540533D02*
X188761904Y-120683390D01*
X188761904Y-120683390D02*
X188190476Y-121254819D01*
X188190476Y-121254819D02*
X188809523Y-121254819D01*
X129766666Y-123631009D02*
X129433333Y-123631009D01*
X129433333Y-124154819D02*
X129433333Y-123154819D01*
X129433333Y-123154819D02*
X129909523Y-123154819D01*
X130814285Y-124154819D02*
X130242857Y-124154819D01*
X130528571Y-124154819D02*
X130528571Y-123154819D01*
X130528571Y-123154819D02*
X130433333Y-123297676D01*
X130433333Y-123297676D02*
X130338095Y-123392914D01*
X130338095Y-123392914D02*
X130242857Y-123440533D01*
X173586666Y-96454819D02*
X173586666Y-97169104D01*
X173586666Y-97169104D02*
X173539047Y-97311961D01*
X173539047Y-97311961D02*
X173443809Y-97407200D01*
X173443809Y-97407200D02*
X173300952Y-97454819D01*
X173300952Y-97454819D02*
X173205714Y-97454819D01*
X174491428Y-96788152D02*
X174491428Y-97454819D01*
X174253333Y-96407200D02*
X174015238Y-97121485D01*
X174015238Y-97121485D02*
X174634285Y-97121485D01*
X171957142Y-102154819D02*
X171623809Y-101678628D01*
X171385714Y-102154819D02*
X171385714Y-101154819D01*
X171385714Y-101154819D02*
X171766666Y-101154819D01*
X171766666Y-101154819D02*
X171861904Y-101202438D01*
X171861904Y-101202438D02*
X171909523Y-101250057D01*
X171909523Y-101250057D02*
X171957142Y-101345295D01*
X171957142Y-101345295D02*
X171957142Y-101488152D01*
X171957142Y-101488152D02*
X171909523Y-101583390D01*
X171909523Y-101583390D02*
X171861904Y-101631009D01*
X171861904Y-101631009D02*
X171766666Y-101678628D01*
X171766666Y-101678628D02*
X171385714Y-101678628D01*
X172909523Y-102154819D02*
X172338095Y-102154819D01*
X172623809Y-102154819D02*
X172623809Y-101154819D01*
X172623809Y-101154819D02*
X172528571Y-101297676D01*
X172528571Y-101297676D02*
X172433333Y-101392914D01*
X172433333Y-101392914D02*
X172338095Y-101440533D01*
X173766666Y-101154819D02*
X173576190Y-101154819D01*
X173576190Y-101154819D02*
X173480952Y-101202438D01*
X173480952Y-101202438D02*
X173433333Y-101250057D01*
X173433333Y-101250057D02*
X173338095Y-101392914D01*
X173338095Y-101392914D02*
X173290476Y-101583390D01*
X173290476Y-101583390D02*
X173290476Y-101964342D01*
X173290476Y-101964342D02*
X173338095Y-102059580D01*
X173338095Y-102059580D02*
X173385714Y-102107200D01*
X173385714Y-102107200D02*
X173480952Y-102154819D01*
X173480952Y-102154819D02*
X173671428Y-102154819D01*
X173671428Y-102154819D02*
X173766666Y-102107200D01*
X173766666Y-102107200D02*
X173814285Y-102059580D01*
X173814285Y-102059580D02*
X173861904Y-101964342D01*
X173861904Y-101964342D02*
X173861904Y-101726247D01*
X173861904Y-101726247D02*
X173814285Y-101631009D01*
X173814285Y-101631009D02*
X173766666Y-101583390D01*
X173766666Y-101583390D02*
X173671428Y-101535771D01*
X173671428Y-101535771D02*
X173480952Y-101535771D01*
X173480952Y-101535771D02*
X173385714Y-101583390D01*
X173385714Y-101583390D02*
X173338095Y-101631009D01*
X173338095Y-101631009D02*
X173290476Y-101726247D01*
X102306666Y-114704819D02*
X102306666Y-115419104D01*
X102306666Y-115419104D02*
X102259047Y-115561961D01*
X102259047Y-115561961D02*
X102163809Y-115657200D01*
X102163809Y-115657200D02*
X102020952Y-115704819D01*
X102020952Y-115704819D02*
X101925714Y-115704819D01*
X102687619Y-114704819D02*
X103306666Y-114704819D01*
X103306666Y-114704819D02*
X102973333Y-115085771D01*
X102973333Y-115085771D02*
X103116190Y-115085771D01*
X103116190Y-115085771D02*
X103211428Y-115133390D01*
X103211428Y-115133390D02*
X103259047Y-115181009D01*
X103259047Y-115181009D02*
X103306666Y-115276247D01*
X103306666Y-115276247D02*
X103306666Y-115514342D01*
X103306666Y-115514342D02*
X103259047Y-115609580D01*
X103259047Y-115609580D02*
X103211428Y-115657200D01*
X103211428Y-115657200D02*
X103116190Y-115704819D01*
X103116190Y-115704819D02*
X102830476Y-115704819D01*
X102830476Y-115704819D02*
X102735238Y-115657200D01*
X102735238Y-115657200D02*
X102687619Y-115609580D01*
X121361905Y-120874819D02*
X121361905Y-119874819D01*
X121361905Y-119874819D02*
X121600000Y-119874819D01*
X121600000Y-119874819D02*
X121742857Y-119922438D01*
X121742857Y-119922438D02*
X121838095Y-120017676D01*
X121838095Y-120017676D02*
X121885714Y-120112914D01*
X121885714Y-120112914D02*
X121933333Y-120303390D01*
X121933333Y-120303390D02*
X121933333Y-120446247D01*
X121933333Y-120446247D02*
X121885714Y-120636723D01*
X121885714Y-120636723D02*
X121838095Y-120731961D01*
X121838095Y-120731961D02*
X121742857Y-120827200D01*
X121742857Y-120827200D02*
X121600000Y-120874819D01*
X121600000Y-120874819D02*
X121361905Y-120874819D01*
X122314286Y-119970057D02*
X122361905Y-119922438D01*
X122361905Y-119922438D02*
X122457143Y-119874819D01*
X122457143Y-119874819D02*
X122695238Y-119874819D01*
X122695238Y-119874819D02*
X122790476Y-119922438D01*
X122790476Y-119922438D02*
X122838095Y-119970057D01*
X122838095Y-119970057D02*
X122885714Y-120065295D01*
X122885714Y-120065295D02*
X122885714Y-120160533D01*
X122885714Y-120160533D02*
X122838095Y-120303390D01*
X122838095Y-120303390D02*
X122266667Y-120874819D01*
X122266667Y-120874819D02*
X122885714Y-120874819D01*
X126918095Y-120154819D02*
X126918095Y-119154819D01*
X127489523Y-120154819D02*
X127060952Y-119583390D01*
X127489523Y-119154819D02*
X126918095Y-119726247D01*
X102666666Y-119454819D02*
X102666666Y-120169104D01*
X102666666Y-120169104D02*
X102619047Y-120311961D01*
X102619047Y-120311961D02*
X102523809Y-120407200D01*
X102523809Y-120407200D02*
X102380952Y-120454819D01*
X102380952Y-120454819D02*
X102285714Y-120454819D01*
X103666666Y-120454819D02*
X103095238Y-120454819D01*
X103380952Y-120454819D02*
X103380952Y-119454819D01*
X103380952Y-119454819D02*
X103285714Y-119597676D01*
X103285714Y-119597676D02*
X103190476Y-119692914D01*
X103190476Y-119692914D02*
X103095238Y-119740533D01*
X153738095Y-119106819D02*
X154309523Y-119106819D01*
X154023809Y-120106819D02*
X154023809Y-119106819D01*
X154642857Y-120106819D02*
X154642857Y-119106819D01*
X154642857Y-119106819D02*
X155023809Y-119106819D01*
X155023809Y-119106819D02*
X155119047Y-119154438D01*
X155119047Y-119154438D02*
X155166666Y-119202057D01*
X155166666Y-119202057D02*
X155214285Y-119297295D01*
X155214285Y-119297295D02*
X155214285Y-119440152D01*
X155214285Y-119440152D02*
X155166666Y-119535390D01*
X155166666Y-119535390D02*
X155119047Y-119583009D01*
X155119047Y-119583009D02*
X155023809Y-119630628D01*
X155023809Y-119630628D02*
X154642857Y-119630628D01*
X156071428Y-119106819D02*
X155880952Y-119106819D01*
X155880952Y-119106819D02*
X155785714Y-119154438D01*
X155785714Y-119154438D02*
X155738095Y-119202057D01*
X155738095Y-119202057D02*
X155642857Y-119344914D01*
X155642857Y-119344914D02*
X155595238Y-119535390D01*
X155595238Y-119535390D02*
X155595238Y-119916342D01*
X155595238Y-119916342D02*
X155642857Y-120011580D01*
X155642857Y-120011580D02*
X155690476Y-120059200D01*
X155690476Y-120059200D02*
X155785714Y-120106819D01*
X155785714Y-120106819D02*
X155976190Y-120106819D01*
X155976190Y-120106819D02*
X156071428Y-120059200D01*
X156071428Y-120059200D02*
X156119047Y-120011580D01*
X156119047Y-120011580D02*
X156166666Y-119916342D01*
X156166666Y-119916342D02*
X156166666Y-119678247D01*
X156166666Y-119678247D02*
X156119047Y-119583009D01*
X156119047Y-119583009D02*
X156071428Y-119535390D01*
X156071428Y-119535390D02*
X155976190Y-119487771D01*
X155976190Y-119487771D02*
X155785714Y-119487771D01*
X155785714Y-119487771D02*
X155690476Y-119535390D01*
X155690476Y-119535390D02*
X155642857Y-119583009D01*
X155642857Y-119583009D02*
X155595238Y-119678247D01*
X131633333Y-106254819D02*
X131300000Y-105778628D01*
X131061905Y-106254819D02*
X131061905Y-105254819D01*
X131061905Y-105254819D02*
X131442857Y-105254819D01*
X131442857Y-105254819D02*
X131538095Y-105302438D01*
X131538095Y-105302438D02*
X131585714Y-105350057D01*
X131585714Y-105350057D02*
X131633333Y-105445295D01*
X131633333Y-105445295D02*
X131633333Y-105588152D01*
X131633333Y-105588152D02*
X131585714Y-105683390D01*
X131585714Y-105683390D02*
X131538095Y-105731009D01*
X131538095Y-105731009D02*
X131442857Y-105778628D01*
X131442857Y-105778628D02*
X131061905Y-105778628D01*
X132538095Y-105254819D02*
X132061905Y-105254819D01*
X132061905Y-105254819D02*
X132014286Y-105731009D01*
X132014286Y-105731009D02*
X132061905Y-105683390D01*
X132061905Y-105683390D02*
X132157143Y-105635771D01*
X132157143Y-105635771D02*
X132395238Y-105635771D01*
X132395238Y-105635771D02*
X132490476Y-105683390D01*
X132490476Y-105683390D02*
X132538095Y-105731009D01*
X132538095Y-105731009D02*
X132585714Y-105826247D01*
X132585714Y-105826247D02*
X132585714Y-106064342D01*
X132585714Y-106064342D02*
X132538095Y-106159580D01*
X132538095Y-106159580D02*
X132490476Y-106207200D01*
X132490476Y-106207200D02*
X132395238Y-106254819D01*
X132395238Y-106254819D02*
X132157143Y-106254819D01*
X132157143Y-106254819D02*
X132061905Y-106207200D01*
X132061905Y-106207200D02*
X132014286Y-106159580D01*
X121738095Y-110306819D02*
X122309523Y-110306819D01*
X122023809Y-111306819D02*
X122023809Y-110306819D01*
X122642857Y-111306819D02*
X122642857Y-110306819D01*
X122642857Y-110306819D02*
X123023809Y-110306819D01*
X123023809Y-110306819D02*
X123119047Y-110354438D01*
X123119047Y-110354438D02*
X123166666Y-110402057D01*
X123166666Y-110402057D02*
X123214285Y-110497295D01*
X123214285Y-110497295D02*
X123214285Y-110640152D01*
X123214285Y-110640152D02*
X123166666Y-110735390D01*
X123166666Y-110735390D02*
X123119047Y-110783009D01*
X123119047Y-110783009D02*
X123023809Y-110830628D01*
X123023809Y-110830628D02*
X122642857Y-110830628D01*
X124119047Y-110306819D02*
X123642857Y-110306819D01*
X123642857Y-110306819D02*
X123595238Y-110783009D01*
X123595238Y-110783009D02*
X123642857Y-110735390D01*
X123642857Y-110735390D02*
X123738095Y-110687771D01*
X123738095Y-110687771D02*
X123976190Y-110687771D01*
X123976190Y-110687771D02*
X124071428Y-110735390D01*
X124071428Y-110735390D02*
X124119047Y-110783009D01*
X124119047Y-110783009D02*
X124166666Y-110878247D01*
X124166666Y-110878247D02*
X124166666Y-111116342D01*
X124166666Y-111116342D02*
X124119047Y-111211580D01*
X124119047Y-111211580D02*
X124071428Y-111259200D01*
X124071428Y-111259200D02*
X123976190Y-111306819D01*
X123976190Y-111306819D02*
X123738095Y-111306819D01*
X123738095Y-111306819D02*
X123642857Y-111259200D01*
X123642857Y-111259200D02*
X123595238Y-111211580D01*
X158633333Y-115659580D02*
X158585714Y-115707200D01*
X158585714Y-115707200D02*
X158442857Y-115754819D01*
X158442857Y-115754819D02*
X158347619Y-115754819D01*
X158347619Y-115754819D02*
X158204762Y-115707200D01*
X158204762Y-115707200D02*
X158109524Y-115611961D01*
X158109524Y-115611961D02*
X158061905Y-115516723D01*
X158061905Y-115516723D02*
X158014286Y-115326247D01*
X158014286Y-115326247D02*
X158014286Y-115183390D01*
X158014286Y-115183390D02*
X158061905Y-114992914D01*
X158061905Y-114992914D02*
X158109524Y-114897676D01*
X158109524Y-114897676D02*
X158204762Y-114802438D01*
X158204762Y-114802438D02*
X158347619Y-114754819D01*
X158347619Y-114754819D02*
X158442857Y-114754819D01*
X158442857Y-114754819D02*
X158585714Y-114802438D01*
X158585714Y-114802438D02*
X158633333Y-114850057D01*
X159014286Y-114850057D02*
X159061905Y-114802438D01*
X159061905Y-114802438D02*
X159157143Y-114754819D01*
X159157143Y-114754819D02*
X159395238Y-114754819D01*
X159395238Y-114754819D02*
X159490476Y-114802438D01*
X159490476Y-114802438D02*
X159538095Y-114850057D01*
X159538095Y-114850057D02*
X159585714Y-114945295D01*
X159585714Y-114945295D02*
X159585714Y-115040533D01*
X159585714Y-115040533D02*
X159538095Y-115183390D01*
X159538095Y-115183390D02*
X158966667Y-115754819D01*
X158966667Y-115754819D02*
X159585714Y-115754819D01*
X182238095Y-91454819D02*
X182238095Y-90454819D01*
X182238095Y-90931009D02*
X182809523Y-90931009D01*
X182809523Y-91454819D02*
X182809523Y-90454819D01*
X183714285Y-90788152D02*
X183714285Y-91454819D01*
X183476190Y-90407200D02*
X183238095Y-91121485D01*
X183238095Y-91121485D02*
X183857142Y-91121485D01*
X143543333Y-100004819D02*
X143210000Y-99528628D01*
X142971905Y-100004819D02*
X142971905Y-99004819D01*
X142971905Y-99004819D02*
X143352857Y-99004819D01*
X143352857Y-99004819D02*
X143448095Y-99052438D01*
X143448095Y-99052438D02*
X143495714Y-99100057D01*
X143495714Y-99100057D02*
X143543333Y-99195295D01*
X143543333Y-99195295D02*
X143543333Y-99338152D01*
X143543333Y-99338152D02*
X143495714Y-99433390D01*
X143495714Y-99433390D02*
X143448095Y-99481009D01*
X143448095Y-99481009D02*
X143352857Y-99528628D01*
X143352857Y-99528628D02*
X142971905Y-99528628D01*
X144019524Y-100004819D02*
X144210000Y-100004819D01*
X144210000Y-100004819D02*
X144305238Y-99957200D01*
X144305238Y-99957200D02*
X144352857Y-99909580D01*
X144352857Y-99909580D02*
X144448095Y-99766723D01*
X144448095Y-99766723D02*
X144495714Y-99576247D01*
X144495714Y-99576247D02*
X144495714Y-99195295D01*
X144495714Y-99195295D02*
X144448095Y-99100057D01*
X144448095Y-99100057D02*
X144400476Y-99052438D01*
X144400476Y-99052438D02*
X144305238Y-99004819D01*
X144305238Y-99004819D02*
X144114762Y-99004819D01*
X144114762Y-99004819D02*
X144019524Y-99052438D01*
X144019524Y-99052438D02*
X143971905Y-99100057D01*
X143971905Y-99100057D02*
X143924286Y-99195295D01*
X143924286Y-99195295D02*
X143924286Y-99433390D01*
X143924286Y-99433390D02*
X143971905Y-99528628D01*
X143971905Y-99528628D02*
X144019524Y-99576247D01*
X144019524Y-99576247D02*
X144114762Y-99623866D01*
X144114762Y-99623866D02*
X144305238Y-99623866D01*
X144305238Y-99623866D02*
X144400476Y-99576247D01*
X144400476Y-99576247D02*
X144448095Y-99528628D01*
X144448095Y-99528628D02*
X144495714Y-99433390D01*
X177666666Y-96954819D02*
X177666666Y-97669104D01*
X177666666Y-97669104D02*
X177619047Y-97811961D01*
X177619047Y-97811961D02*
X177523809Y-97907200D01*
X177523809Y-97907200D02*
X177380952Y-97954819D01*
X177380952Y-97954819D02*
X177285714Y-97954819D01*
X178095238Y-97050057D02*
X178142857Y-97002438D01*
X178142857Y-97002438D02*
X178238095Y-96954819D01*
X178238095Y-96954819D02*
X178476190Y-96954819D01*
X178476190Y-96954819D02*
X178571428Y-97002438D01*
X178571428Y-97002438D02*
X178619047Y-97050057D01*
X178619047Y-97050057D02*
X178666666Y-97145295D01*
X178666666Y-97145295D02*
X178666666Y-97240533D01*
X178666666Y-97240533D02*
X178619047Y-97383390D01*
X178619047Y-97383390D02*
X178047619Y-97954819D01*
X178047619Y-97954819D02*
X178666666Y-97954819D01*
X131533333Y-112854819D02*
X131200000Y-112378628D01*
X130961905Y-112854819D02*
X130961905Y-111854819D01*
X130961905Y-111854819D02*
X131342857Y-111854819D01*
X131342857Y-111854819D02*
X131438095Y-111902438D01*
X131438095Y-111902438D02*
X131485714Y-111950057D01*
X131485714Y-111950057D02*
X131533333Y-112045295D01*
X131533333Y-112045295D02*
X131533333Y-112188152D01*
X131533333Y-112188152D02*
X131485714Y-112283390D01*
X131485714Y-112283390D02*
X131438095Y-112331009D01*
X131438095Y-112331009D02*
X131342857Y-112378628D01*
X131342857Y-112378628D02*
X130961905Y-112378628D01*
X131866667Y-111854819D02*
X132533333Y-111854819D01*
X132533333Y-111854819D02*
X132104762Y-112854819D01*
X160333333Y-125154819D02*
X160000000Y-124678628D01*
X159761905Y-125154819D02*
X159761905Y-124154819D01*
X159761905Y-124154819D02*
X160142857Y-124154819D01*
X160142857Y-124154819D02*
X160238095Y-124202438D01*
X160238095Y-124202438D02*
X160285714Y-124250057D01*
X160285714Y-124250057D02*
X160333333Y-124345295D01*
X160333333Y-124345295D02*
X160333333Y-124488152D01*
X160333333Y-124488152D02*
X160285714Y-124583390D01*
X160285714Y-124583390D02*
X160238095Y-124631009D01*
X160238095Y-124631009D02*
X160142857Y-124678628D01*
X160142857Y-124678628D02*
X159761905Y-124678628D01*
X161285714Y-125154819D02*
X160714286Y-125154819D01*
X161000000Y-125154819D02*
X161000000Y-124154819D01*
X161000000Y-124154819D02*
X160904762Y-124297676D01*
X160904762Y-124297676D02*
X160809524Y-124392914D01*
X160809524Y-124392914D02*
X160714286Y-124440533D01*
X145113333Y-101884580D02*
X145065714Y-101932200D01*
X145065714Y-101932200D02*
X144922857Y-101979819D01*
X144922857Y-101979819D02*
X144827619Y-101979819D01*
X144827619Y-101979819D02*
X144684762Y-101932200D01*
X144684762Y-101932200D02*
X144589524Y-101836961D01*
X144589524Y-101836961D02*
X144541905Y-101741723D01*
X144541905Y-101741723D02*
X144494286Y-101551247D01*
X144494286Y-101551247D02*
X144494286Y-101408390D01*
X144494286Y-101408390D02*
X144541905Y-101217914D01*
X144541905Y-101217914D02*
X144589524Y-101122676D01*
X144589524Y-101122676D02*
X144684762Y-101027438D01*
X144684762Y-101027438D02*
X144827619Y-100979819D01*
X144827619Y-100979819D02*
X144922857Y-100979819D01*
X144922857Y-100979819D02*
X145065714Y-101027438D01*
X145065714Y-101027438D02*
X145113333Y-101075057D01*
X145970476Y-101313152D02*
X145970476Y-101979819D01*
X145732381Y-100932200D02*
X145494286Y-101646485D01*
X145494286Y-101646485D02*
X146113333Y-101646485D01*
X177738095Y-91306819D02*
X178309523Y-91306819D01*
X178023809Y-92306819D02*
X178023809Y-91306819D01*
X178642857Y-92306819D02*
X178642857Y-91306819D01*
X178642857Y-91306819D02*
X179023809Y-91306819D01*
X179023809Y-91306819D02*
X179119047Y-91354438D01*
X179119047Y-91354438D02*
X179166666Y-91402057D01*
X179166666Y-91402057D02*
X179214285Y-91497295D01*
X179214285Y-91497295D02*
X179214285Y-91640152D01*
X179214285Y-91640152D02*
X179166666Y-91735390D01*
X179166666Y-91735390D02*
X179119047Y-91783009D01*
X179119047Y-91783009D02*
X179023809Y-91830628D01*
X179023809Y-91830628D02*
X178642857Y-91830628D01*
X179547619Y-91306819D02*
X180166666Y-91306819D01*
X180166666Y-91306819D02*
X179833333Y-91687771D01*
X179833333Y-91687771D02*
X179976190Y-91687771D01*
X179976190Y-91687771D02*
X180071428Y-91735390D01*
X180071428Y-91735390D02*
X180119047Y-91783009D01*
X180119047Y-91783009D02*
X180166666Y-91878247D01*
X180166666Y-91878247D02*
X180166666Y-92116342D01*
X180166666Y-92116342D02*
X180119047Y-92211580D01*
X180119047Y-92211580D02*
X180071428Y-92259200D01*
X180071428Y-92259200D02*
X179976190Y-92306819D01*
X179976190Y-92306819D02*
X179690476Y-92306819D01*
X179690476Y-92306819D02*
X179595238Y-92259200D01*
X179595238Y-92259200D02*
X179547619Y-92211580D01*
X112846667Y-102407200D02*
X112989524Y-102454819D01*
X112989524Y-102454819D02*
X113227619Y-102454819D01*
X113227619Y-102454819D02*
X113322857Y-102407200D01*
X113322857Y-102407200D02*
X113370476Y-102359580D01*
X113370476Y-102359580D02*
X113418095Y-102264342D01*
X113418095Y-102264342D02*
X113418095Y-102169104D01*
X113418095Y-102169104D02*
X113370476Y-102073866D01*
X113370476Y-102073866D02*
X113322857Y-102026247D01*
X113322857Y-102026247D02*
X113227619Y-101978628D01*
X113227619Y-101978628D02*
X113037143Y-101931009D01*
X113037143Y-101931009D02*
X112941905Y-101883390D01*
X112941905Y-101883390D02*
X112894286Y-101835771D01*
X112894286Y-101835771D02*
X112846667Y-101740533D01*
X112846667Y-101740533D02*
X112846667Y-101645295D01*
X112846667Y-101645295D02*
X112894286Y-101550057D01*
X112894286Y-101550057D02*
X112941905Y-101502438D01*
X112941905Y-101502438D02*
X113037143Y-101454819D01*
X113037143Y-101454819D02*
X113275238Y-101454819D01*
X113275238Y-101454819D02*
X113418095Y-101502438D01*
X113751429Y-101454819D02*
X113989524Y-102454819D01*
X113989524Y-102454819D02*
X114180000Y-101740533D01*
X114180000Y-101740533D02*
X114370476Y-102454819D01*
X114370476Y-102454819D02*
X114608572Y-101454819D01*
X115513333Y-102454819D02*
X114941905Y-102454819D01*
X115227619Y-102454819D02*
X115227619Y-101454819D01*
X115227619Y-101454819D02*
X115132381Y-101597676D01*
X115132381Y-101597676D02*
X115037143Y-101692914D01*
X115037143Y-101692914D02*
X114941905Y-101740533D01*
D11*
%TO.C,TP4*%
X144050000Y-118350000D02*
X146950000Y-118350000D01*
X144050000Y-121250000D02*
X144050000Y-118350000D01*
X146950000Y-118350000D02*
X146950000Y-121250000D01*
X146950000Y-121250000D02*
X144050000Y-121250000D01*
%TO.C,TP2*%
X181750000Y-118150000D02*
X184650000Y-118150000D01*
X181750000Y-121050000D02*
X181750000Y-118150000D01*
X184650000Y-118150000D02*
X184650000Y-121050000D01*
X184650000Y-121050000D02*
X181750000Y-121050000D01*
%TO.C,R12*%
X134420000Y-120830000D02*
X140960000Y-120830000D01*
X134420000Y-121160000D02*
X134420000Y-120830000D01*
X134420000Y-123240000D02*
X134420000Y-123570000D01*
X134420000Y-123570000D02*
X140960000Y-123570000D01*
X140960000Y-120830000D02*
X140960000Y-121160000D01*
X140960000Y-123570000D02*
X140960000Y-123240000D01*
%TO.C,R10*%
X169570000Y-119370000D02*
X163030000Y-119370000D01*
X169570000Y-119040000D02*
X169570000Y-119370000D01*
X169570000Y-116960000D02*
X169570000Y-116630000D01*
X169570000Y-116630000D02*
X163030000Y-116630000D01*
X163030000Y-119370000D02*
X163030000Y-119040000D01*
X163030000Y-116630000D02*
X163030000Y-116960000D01*
%TO.C,D4*%
X125840000Y-123500000D02*
X124820000Y-123500000D01*
X124820000Y-124970000D02*
X124820000Y-122030000D01*
X124820000Y-122030000D02*
X119380000Y-122030000D01*
X124040000Y-124970000D02*
X124040000Y-122030000D01*
X123920000Y-124970000D02*
X123920000Y-122030000D01*
X123800000Y-124970000D02*
X123800000Y-122030000D01*
X119380000Y-124970000D02*
X124820000Y-124970000D01*
X119380000Y-122030000D02*
X119380000Y-124970000D01*
X118360000Y-123500000D02*
X119380000Y-123500000D01*
%TO.C,D1*%
X179830000Y-124545000D02*
X179830000Y-121455000D01*
X174280001Y-122999538D02*
G75*
G03*
X179829999Y-124544830I2989999J-462D01*
G01*
X179830000Y-121455170D02*
G75*
G03*
X174280000Y-123000462I-2560000J-1544830D01*
G01*
X179770000Y-123000000D02*
G75*
G03*
X179770000Y-123000000I-2500000J0D01*
G01*
%TO.C,R2*%
X163030000Y-119830000D02*
X169570000Y-119830000D01*
X163030000Y-120160000D02*
X163030000Y-119830000D01*
X163030000Y-122240000D02*
X163030000Y-122570000D01*
X163030000Y-122570000D02*
X169570000Y-122570000D01*
X169570000Y-119830000D02*
X169570000Y-120160000D01*
X169570000Y-122570000D02*
X169570000Y-122240000D01*
%TO.C,C5*%
X142120000Y-120270000D02*
X142120000Y-119825000D01*
X142120000Y-120270000D02*
X135880000Y-120270000D01*
X142120000Y-117975000D02*
X142120000Y-117530000D01*
X142120000Y-117530000D02*
X135880000Y-117530000D01*
X135880000Y-120270000D02*
X135880000Y-119825000D01*
X135880000Y-117975000D02*
X135880000Y-117530000D01*
%TO.C,R13*%
X169580000Y-106270000D02*
X163040000Y-106270000D01*
X169580000Y-105940000D02*
X169580000Y-106270000D01*
X169580000Y-103860000D02*
X169580000Y-103530000D01*
X169580000Y-103530000D02*
X163040000Y-103530000D01*
X163040000Y-106270000D02*
X163040000Y-105940000D01*
X163040000Y-103530000D02*
X163040000Y-103860000D01*
%TO.C,R6*%
X134420000Y-101205000D02*
X140960000Y-101205000D01*
X134420000Y-101535000D02*
X134420000Y-101205000D01*
X134420000Y-103615000D02*
X134420000Y-103945000D01*
X134420000Y-103945000D02*
X140960000Y-103945000D01*
X140960000Y-101205000D02*
X140960000Y-101535000D01*
X140960000Y-103945000D02*
X140960000Y-103615000D01*
%TO.C,R11*%
X163030000Y-113330000D02*
X169570000Y-113330000D01*
X163030000Y-113660000D02*
X163030000Y-113330000D01*
X163030000Y-115740000D02*
X163030000Y-116070000D01*
X163030000Y-116070000D02*
X169570000Y-116070000D01*
X169570000Y-113330000D02*
X169570000Y-113660000D01*
X169570000Y-116070000D02*
X169570000Y-115740000D01*
%TO.C,D3*%
X118280000Y-99320000D02*
X118280000Y-91480000D01*
X118760000Y-99320000D02*
X118280000Y-99320000D01*
X121640000Y-99320000D02*
X122120000Y-99320000D01*
X122120000Y-99320000D02*
X122120000Y-91480000D01*
X118280000Y-98180000D02*
X122120000Y-98180000D01*
X118280000Y-98060000D02*
X122120000Y-98060000D01*
X118280000Y-97940000D02*
X122120000Y-97940000D01*
X118280000Y-91480000D02*
X118760000Y-91480000D01*
X122120000Y-91480000D02*
X121640000Y-91480000D01*
%TO.C,TP1*%
X136550000Y-93550000D02*
X139450000Y-93550000D01*
X136550000Y-96450000D02*
X136550000Y-93550000D01*
X139450000Y-93550000D02*
X139450000Y-96450000D01*
X139450000Y-96450000D02*
X136550000Y-96450000D01*
%TO.C,U2*%
X149340000Y-99370000D02*
X149340000Y-117270000D01*
X149340000Y-117270000D02*
X154640000Y-117270000D01*
X150990000Y-99370000D02*
X149340000Y-99370000D01*
X154640000Y-99370000D02*
X152990000Y-99370000D01*
X154640000Y-117270000D02*
X154640000Y-99370000D01*
X150990000Y-99370000D02*
G75*
G03*
X152990000Y-99370000I1000000J0D01*
G01*
%TO.C,C3*%
X161880000Y-110030000D02*
X161880000Y-110475000D01*
X161880000Y-110030000D02*
X168120000Y-110030000D01*
X161880000Y-112325000D02*
X161880000Y-112770000D01*
X161880000Y-112770000D02*
X168120000Y-112770000D01*
X168120000Y-110030000D02*
X168120000Y-110475000D01*
X168120000Y-112325000D02*
X168120000Y-112770000D01*
%TO.C,R4*%
X140970000Y-117070000D02*
X134430000Y-117070000D01*
X140970000Y-116740000D02*
X140970000Y-117070000D01*
X140970000Y-114660000D02*
X140970000Y-114330000D01*
X140970000Y-114330000D02*
X134430000Y-114330000D01*
X134430000Y-117070000D02*
X134430000Y-116740000D01*
X134430000Y-114330000D02*
X134430000Y-114660000D01*
%TO.C,R8*%
X134430000Y-107730000D02*
X140970000Y-107730000D01*
X134430000Y-108060000D02*
X134430000Y-107730000D01*
X134430000Y-110140000D02*
X134430000Y-110470000D01*
X134430000Y-110470000D02*
X140970000Y-110470000D01*
X140970000Y-107730000D02*
X140970000Y-108060000D01*
X140970000Y-110470000D02*
X140970000Y-110140000D01*
%TO.C,C1*%
X161880000Y-106730000D02*
X161880000Y-107175000D01*
X161880000Y-106730000D02*
X168120000Y-106730000D01*
X161880000Y-109025000D02*
X161880000Y-109470000D01*
X161880000Y-109470000D02*
X168120000Y-109470000D01*
X168120000Y-106730000D02*
X168120000Y-107175000D01*
X168120000Y-109025000D02*
X168120000Y-109470000D01*
%TO.C,F1*%
X129190000Y-121102064D02*
X129190000Y-119897936D01*
X131010000Y-121102064D02*
X131010000Y-119897936D01*
%TO.C,J4*%
X171840000Y-88840000D02*
X171840000Y-88100000D01*
X171840000Y-88100000D02*
X171340000Y-88100000D01*
X171600000Y-98261000D02*
X171600000Y-88340000D01*
X171600000Y-98261000D02*
X161320000Y-98261000D01*
X171600000Y-95301000D02*
X161320000Y-95301000D01*
X171600000Y-90400000D02*
X161320000Y-90400000D01*
X171600000Y-88900000D02*
X161320000Y-88900000D01*
X171600000Y-88340000D02*
X161320000Y-88340000D01*
X165147000Y-91977000D02*
X165194000Y-91931000D01*
X164954000Y-91761000D02*
X164989000Y-91726000D01*
X162850000Y-94275000D02*
X162885000Y-94239000D01*
X162645000Y-94069000D02*
X162692000Y-94023000D01*
X161320000Y-98261000D02*
X161320000Y-88340000D01*
X170534999Y-93683999D02*
G75*
G03*
X170535426Y-92316958I-1534992J684000D01*
G01*
X168316001Y-94534999D02*
G75*
G03*
X169683042Y-94535426I684000J1534992D01*
G01*
X169684000Y-91465001D02*
G75*
G03*
X168971195Y-91319748I-683999J-1535000D01*
G01*
X169000000Y-91320001D02*
G75*
G03*
X168316682Y-91465245I0J-1679999D01*
G01*
X167465000Y-92316000D02*
G75*
G03*
X167464574Y-93683042I1535000J-684000D01*
G01*
X165600000Y-93000000D02*
G75*
G03*
X165600000Y-93000000I-1680000J0D01*
G01*
%TO.C,R16*%
X163030000Y-100330000D02*
X169570000Y-100330000D01*
X163030000Y-100660000D02*
X163030000Y-100330000D01*
X163030000Y-102740000D02*
X163030000Y-103070000D01*
X163030000Y-103070000D02*
X169570000Y-103070000D01*
X169570000Y-100330000D02*
X169570000Y-100660000D01*
X169570000Y-103070000D02*
X169570000Y-102740000D01*
%TO.C,J3*%
X95140000Y-98330000D02*
X110140000Y-98330000D01*
X95140000Y-114430000D02*
X95140000Y-98330000D01*
X98290000Y-113670000D02*
X98290000Y-114430000D01*
X98290000Y-114430000D02*
X95140000Y-114430000D01*
X106990000Y-113670000D02*
X98290000Y-113670000D01*
X106990000Y-114430000D02*
X106990000Y-113670000D01*
X110140000Y-98330000D02*
X110140000Y-114430000D01*
X110140000Y-114430000D02*
X106990000Y-114430000D01*
%TO.C,D2*%
X126020000Y-119420000D02*
X118180000Y-119420000D01*
X126020000Y-118940000D02*
X126020000Y-119420000D01*
X126020000Y-116060000D02*
X126020000Y-115580000D01*
X126020000Y-115580000D02*
X118180000Y-115580000D01*
X124880000Y-119420000D02*
X124880000Y-115580000D01*
X124760000Y-119420000D02*
X124760000Y-115580000D01*
X124640000Y-119420000D02*
X124640000Y-115580000D01*
X118180000Y-119420000D02*
X118180000Y-118940000D01*
X118180000Y-115580000D02*
X118180000Y-116060000D01*
%TO.C,J1*%
X103795000Y-126965000D02*
X103795000Y-127705000D01*
X103795000Y-127705000D02*
X104295000Y-127705000D01*
X104035000Y-117544000D02*
X104035000Y-127465000D01*
X104035000Y-117544000D02*
X114315000Y-117544000D01*
X104035000Y-120504000D02*
X114315000Y-120504000D01*
X104035000Y-125405000D02*
X114315000Y-125405000D01*
X104035000Y-126905000D02*
X114315000Y-126905000D01*
X104035000Y-127465000D02*
X114315000Y-127465000D01*
X110488000Y-123828000D02*
X110441000Y-123874000D01*
X110681000Y-124044000D02*
X110646000Y-124079000D01*
X112785000Y-121530000D02*
X112750000Y-121566000D01*
X112990000Y-121736000D02*
X112943000Y-121782000D01*
X114315000Y-117544000D02*
X114315000Y-127465000D01*
X105100001Y-122121001D02*
G75*
G03*
X105099574Y-123488042I1534992J-684000D01*
G01*
X107318999Y-121270001D02*
G75*
G03*
X105951958Y-121269574I-684000J-1534992D01*
G01*
X105951000Y-124339999D02*
G75*
G03*
X106663805Y-124485252I683999J1535000D01*
G01*
X106635000Y-124484999D02*
G75*
G03*
X107318318Y-124339755I0J1679999D01*
G01*
X108170000Y-123489000D02*
G75*
G03*
X108170426Y-122121958I-1535000J684000D01*
G01*
X113395000Y-122805000D02*
G75*
G03*
X113395000Y-122805000I-1680000J0D01*
G01*
%TO.C,TP6*%
X153550000Y-120350000D02*
X156450000Y-120350000D01*
X153550000Y-123250000D02*
X153550000Y-120350000D01*
X156450000Y-120350000D02*
X156450000Y-123250000D01*
X156450000Y-123250000D02*
X153550000Y-123250000D01*
%TO.C,R5*%
X140970000Y-107170000D02*
X134430000Y-107170000D01*
X140970000Y-106840000D02*
X140970000Y-107170000D01*
X140970000Y-104760000D02*
X140970000Y-104430000D01*
X140970000Y-104430000D02*
X134430000Y-104430000D01*
X134430000Y-107170000D02*
X134430000Y-106840000D01*
X134430000Y-104430000D02*
X134430000Y-104760000D01*
%TO.C,TP5*%
X121550000Y-111550000D02*
X124450000Y-111550000D01*
X121550000Y-114450000D02*
X121550000Y-111550000D01*
X124450000Y-111550000D02*
X124450000Y-114450000D01*
X124450000Y-114450000D02*
X121550000Y-114450000D01*
%TO.C,C2*%
X157430000Y-114020000D02*
X157875000Y-114020000D01*
X157430000Y-114020000D02*
X157430000Y-107780000D01*
X159725000Y-114020000D02*
X160170000Y-114020000D01*
X160170000Y-114020000D02*
X160170000Y-107780000D01*
X157430000Y-107780000D02*
X157875000Y-107780000D01*
X159725000Y-107780000D02*
X160170000Y-107780000D01*
%TO.C,R9*%
X134430000Y-98030000D02*
X140970000Y-98030000D01*
X134430000Y-98360000D02*
X134430000Y-98030000D01*
X134430000Y-100440000D02*
X134430000Y-100770000D01*
X134430000Y-100770000D02*
X140970000Y-100770000D01*
X140970000Y-98030000D02*
X140970000Y-98360000D01*
X140970000Y-100770000D02*
X140970000Y-100440000D01*
%TO.C,J2*%
X175460000Y-98330000D02*
X190460000Y-98330000D01*
X175460000Y-114430000D02*
X175460000Y-98330000D01*
X178610000Y-113670000D02*
X178610000Y-114430000D01*
X178610000Y-114430000D02*
X175460000Y-114430000D01*
X187310000Y-113670000D02*
X178610000Y-113670000D01*
X187310000Y-114430000D02*
X187310000Y-113670000D01*
X190460000Y-98330000D02*
X190460000Y-114430000D01*
X190460000Y-114430000D02*
X187310000Y-114430000D01*
%TO.C,R7*%
X140970000Y-113770000D02*
X134430000Y-113770000D01*
X140970000Y-113440000D02*
X140970000Y-113770000D01*
X140970000Y-111360000D02*
X140970000Y-111030000D01*
X140970000Y-111030000D02*
X134430000Y-111030000D01*
X134430000Y-113770000D02*
X134430000Y-113440000D01*
X134430000Y-111030000D02*
X134430000Y-111360000D01*
%TO.C,R1*%
X163120000Y-123330000D02*
X169660000Y-123330000D01*
X163120000Y-123660000D02*
X163120000Y-123330000D01*
X163120000Y-125740000D02*
X163120000Y-126070000D01*
X163120000Y-126070000D02*
X169660000Y-126070000D01*
X169660000Y-123330000D02*
X169660000Y-123660000D01*
X169660000Y-126070000D02*
X169660000Y-125740000D01*
%TO.C,C4*%
X146650000Y-102705000D02*
X146205000Y-102705000D01*
X146650000Y-102705000D02*
X146650000Y-108945000D01*
X144355000Y-102705000D02*
X143910000Y-102705000D01*
X143910000Y-102705000D02*
X143910000Y-108945000D01*
X146650000Y-108945000D02*
X146205000Y-108945000D01*
X144355000Y-108945000D02*
X143910000Y-108945000D01*
%TO.C,TP3*%
X177550000Y-92550000D02*
X180450000Y-92550000D01*
X177550000Y-95450000D02*
X177550000Y-92550000D01*
X180450000Y-92550000D02*
X180450000Y-95450000D01*
X180450000Y-95450000D02*
X177550000Y-95450000D01*
D12*
%TO.C,SW1*%
X123930000Y-109500000D02*
X123930000Y-103000000D01*
X123930000Y-103000000D02*
X112430000Y-103000000D01*
X112430000Y-109500000D02*
X123930000Y-109500000D01*
X112430000Y-103000000D02*
X112430000Y-109500000D01*
D13*
X120335000Y-110217800D02*
G75*
G03*
X120335000Y-110217800I-100000J0D01*
G01*
%TD*%
M02*
